<?xml version="1.0" encoding="utf-8" standalone="no"?>
<!DOCTYPE svg PUBLIC "-//W3C//DTD SVG 1.1//EN"
  "http://www.w3.org/Graphics/SVG/1.1/DTD/svg11.dtd">
<svg xmlns:xlink="http://www.w3.org/1999/xlink" width="402.699322pt" height="322.279554pt" viewBox="0 0 402.699322 322.279554" xmlns="http://www.w3.org/2000/svg" version="1.1">
 <metadata>
  <rdf:RDF xmlns:dc="http://purl.org/dc/elements/1.1/" xmlns:cc="http://creativecommons.org/ns#" xmlns:rdf="http://www.w3.org/1999/02/22-rdf-syntax-ns#">
   <cc:Work>
    <dc:type rdf:resource="http://purl.org/dc/dcmitype/StillImage"/>
    <dc:date>2024-11-17T10:57:05.837041</dc:date>
    <dc:format>image/svg+xml</dc:format>
    <dc:creator>
     <cc:Agent>
      <dc:title>Matplotlib v3.8.4, https://matplotlib.org/</dc:title>
     </cc:Agent>
    </dc:creator>
   </cc:Work>
  </rdf:RDF>
 </metadata>
 <defs>
  <style type="text/css">*{stroke-linejoin: round; stroke-linecap: butt}</style>
 </defs>
 <g id="figure_1">
  <g id="patch_1">
   <path d="M 0 322.279554 
L 402.699322 322.279554 
L 402.699322 0 
L 0 0 
z
" style="fill: #ffffff"/>
  </g>
  <g id="axes_1">
   <g id="patch_2">
    <path d="M 38.379322 286.485098 
L 395.499322 286.485098 
L 395.499322 20.373098 
L 38.379322 20.373098 
z
" style="fill: #eaeaf2"/>
   </g>
   <g id="matplotlib.axis_1">
    <g id="xtick_1">
     <g id="line2d_1">
      <path d="M 54.612049 286.485098 
L 54.612049 20.373098 
" clip-path="url(#p7fcbe277bb)" style="fill: none; stroke: #ffffff; stroke-width: 0.8; stroke-linecap: round"/>
     </g>
     <g id="text_1">
      <!-- $\mathdefault{0.0}$ -->
      <g style="fill: #262626" transform="translate(48.660673 300.873381) scale(0.088 -0.088)">
       <defs>
        <path id="CMR17-30" d="M 2688 2038 
C 2688 2430 2682 3099 2413 3613 
C 2176 4063 1798 4224 1466 4224 
C 1158 4224 768 4082 525 3620 
C 269 3137 243 2539 243 2038 
C 243 1671 250 1112 448 623 
C 723 -39 1216 -128 1466 -128 
C 1760 -128 2208 -7 2470 604 
C 2662 1048 2688 1568 2688 2038 
z
M 1466 -26 
C 1056 -26 813 328 723 816 
C 653 1196 653 1749 653 2109 
C 653 2604 653 3015 736 3407 
C 858 3954 1216 4121 1466 4121 
C 1728 4121 2067 3947 2189 3420 
C 2272 3054 2278 2623 2278 2109 
C 2278 1691 2278 1176 2202 797 
C 2067 96 1690 -26 1466 -26 
z
" transform="scale(0.015625)"/>
        <path id="CMMI12-3a" d="M 1178 307 
C 1178 492 1024 620 870 620 
C 685 620 557 467 557 313 
C 557 128 710 0 864 0 
C 1050 0 1178 153 1178 307 
z
" transform="scale(0.015625)"/>
       </defs>
       <use xlink:href="#CMR17-30" transform="scale(0.996264)"/>
       <use xlink:href="#CMMI12-3a" transform="translate(45.690477 0) scale(0.996264)"/>
       <use xlink:href="#CMR17-30" transform="translate(72.787654 0) scale(0.996264)"/>
      </g>
     </g>
    </g>
    <g id="xtick_2">
     <g id="line2d_2">
      <path d="M 115.925466 286.485098 
L 115.925466 20.373098 
" clip-path="url(#p7fcbe277bb)" style="fill: none; stroke: #ffffff; stroke-width: 0.8; stroke-linecap: round"/>
     </g>
     <g id="text_2">
      <!-- $\mathdefault{0.2}$ -->
      <g style="fill: #262626" transform="translate(109.97409 300.873381) scale(0.088 -0.088)">
       <defs>
        <path id="CMR17-32" d="M 2669 990 
L 2554 990 
C 2490 537 2438 460 2413 422 
C 2381 371 1920 371 1830 371 
L 602 371 
C 832 620 1280 1073 1824 1596 
C 2214 1966 2669 2400 2669 3033 
C 2669 3788 2067 4224 1395 4224 
C 691 4224 262 3603 262 3027 
C 262 2777 448 2745 525 2745 
C 589 2745 781 2783 781 3007 
C 781 3206 614 3264 525 3264 
C 486 3264 448 3257 422 3244 
C 544 3788 915 4057 1306 4057 
C 1862 4057 2227 3616 2227 3033 
C 2227 2477 1901 1998 1536 1583 
L 262 147 
L 262 0 
L 2515 0 
L 2669 990 
z
" transform="scale(0.015625)"/>
       </defs>
       <use xlink:href="#CMR17-30" transform="scale(0.996264)"/>
       <use xlink:href="#CMMI12-3a" transform="translate(45.690477 0) scale(0.996264)"/>
       <use xlink:href="#CMR17-32" transform="translate(72.787654 0) scale(0.996264)"/>
      </g>
     </g>
    </g>
    <g id="xtick_3">
     <g id="line2d_3">
      <path d="M 177.238884 286.485098 
L 177.238884 20.373098 
" clip-path="url(#p7fcbe277bb)" style="fill: none; stroke: #ffffff; stroke-width: 0.8; stroke-linecap: round"/>
     </g>
     <g id="text_3">
      <!-- $\mathdefault{0.4}$ -->
      <g style="fill: #262626" transform="translate(171.287508 300.873381) scale(0.088 -0.088)">
       <defs>
        <path id="CMR17-34" d="M 2150 4147 
C 2150 4281 2144 4288 2029 4288 
L 128 1254 
L 128 1088 
L 1779 1088 
L 1779 460 
C 1779 230 1766 166 1318 166 
L 1197 166 
L 1197 0 
C 1402 12 1747 12 1965 12 
C 2182 12 2528 12 2733 0 
L 2733 166 
L 2611 166 
C 2163 166 2150 230 2150 460 
L 2150 1088 
L 2803 1088 
L 2803 1254 
L 2150 1254 
L 2150 4147 
z
M 1798 3723 
L 1798 1254 
L 256 1254 
L 1798 3723 
z
" transform="scale(0.015625)"/>
       </defs>
       <use xlink:href="#CMR17-30" transform="scale(0.996264)"/>
       <use xlink:href="#CMMI12-3a" transform="translate(45.690477 0) scale(0.996264)"/>
       <use xlink:href="#CMR17-34" transform="translate(72.787654 0) scale(0.996264)"/>
      </g>
     </g>
    </g>
    <g id="xtick_4">
     <g id="line2d_4">
      <path d="M 238.552301 286.485098 
L 238.552301 20.373098 
" clip-path="url(#p7fcbe277bb)" style="fill: none; stroke: #ffffff; stroke-width: 0.8; stroke-linecap: round"/>
     </g>
     <g id="text_4">
      <!-- $\mathdefault{0.6}$ -->
      <g style="fill: #262626" transform="translate(232.600925 300.873381) scale(0.088 -0.088)">
       <defs>
        <path id="CMR17-36" d="M 678 2198 
C 678 3712 1395 4076 1811 4076 
C 1946 4076 2272 4049 2400 3782 
C 2298 3782 2106 3782 2106 3558 
C 2106 3385 2246 3328 2336 3328 
C 2394 3328 2566 3353 2566 3571 
C 2566 3987 2246 4224 1805 4224 
C 1043 4224 243 3411 243 2011 
C 243 257 966 -128 1478 -128 
C 2099 -128 2688 431 2688 1295 
C 2688 2101 2170 2688 1517 2688 
C 1126 2688 838 2430 678 1979 
L 678 2198 
z
M 1478 25 
C 691 25 691 1212 691 1450 
C 691 1914 909 2585 1504 2585 
C 1613 2585 1926 2585 2138 2140 
C 2253 1889 2253 1624 2253 1302 
C 2253 954 2253 696 2118 438 
C 1978 173 1773 25 1478 25 
z
" transform="scale(0.015625)"/>
       </defs>
       <use xlink:href="#CMR17-30" transform="scale(0.996264)"/>
       <use xlink:href="#CMMI12-3a" transform="translate(45.690477 0) scale(0.996264)"/>
       <use xlink:href="#CMR17-36" transform="translate(72.787654 0) scale(0.996264)"/>
      </g>
     </g>
    </g>
    <g id="xtick_5">
     <g id="line2d_5">
      <path d="M 299.865719 286.485098 
L 299.865719 20.373098 
" clip-path="url(#p7fcbe277bb)" style="fill: none; stroke: #ffffff; stroke-width: 0.8; stroke-linecap: round"/>
     </g>
     <g id="text_5">
      <!-- $\mathdefault{0.8}$ -->
      <g style="fill: #262626" transform="translate(293.914342 300.873381) scale(0.088 -0.088)">
       <defs>
        <path id="CMR17-38" d="M 1741 2289 
C 2144 2494 2554 2803 2554 3298 
C 2554 3884 1990 4224 1472 4224 
C 890 4224 378 3800 378 3215 
C 378 3054 416 2777 666 2533 
C 730 2469 998 2276 1171 2154 
C 883 2006 211 1652 211 945 
C 211 282 838 -128 1459 -128 
C 2144 -128 2720 366 2720 1022 
C 2720 1607 2330 1877 2074 2051 
L 1741 2289 
z
M 902 2855 
C 851 2887 595 3086 595 3388 
C 595 3781 998 4076 1459 4076 
C 1965 4076 2336 3716 2336 3298 
C 2336 2700 1670 2359 1638 2359 
C 1632 2359 1626 2359 1574 2398 
L 902 2855 
z
M 2080 1536 
C 2176 1466 2483 1253 2483 861 
C 2483 385 2010 25 1472 25 
C 890 25 448 443 448 951 
C 448 1459 838 1884 1280 2083 
L 2080 1536 
z
" transform="scale(0.015625)"/>
       </defs>
       <use xlink:href="#CMR17-30" transform="scale(0.996264)"/>
       <use xlink:href="#CMMI12-3a" transform="translate(45.690477 0) scale(0.996264)"/>
       <use xlink:href="#CMR17-38" transform="translate(72.787654 0) scale(0.996264)"/>
      </g>
     </g>
    </g>
    <g id="xtick_6">
     <g id="line2d_6">
      <path d="M 361.179136 286.485098 
L 361.179136 20.373098 
" clip-path="url(#p7fcbe277bb)" style="fill: none; stroke: #ffffff; stroke-width: 0.8; stroke-linecap: round"/>
     </g>
     <g id="text_6">
      <!-- $\mathdefault{1.0}$ -->
      <g style="fill: #262626" transform="translate(355.22776 300.873381) scale(0.088 -0.088)">
       <defs>
        <path id="CMR17-31" d="M 1702 4083 
C 1702 4217 1696 4224 1606 4224 
C 1357 3927 979 3833 621 3820 
C 602 3820 570 3820 563 3808 
C 557 3795 557 3782 557 3648 
C 755 3648 1088 3686 1344 3839 
L 1344 467 
C 1344 243 1331 166 781 166 
L 589 166 
L 589 0 
C 896 6 1216 12 1523 12 
C 1830 12 2150 6 2458 0 
L 2458 166 
L 2266 166 
C 1715 166 1702 236 1702 467 
L 1702 4083 
z
" transform="scale(0.015625)"/>
       </defs>
       <use xlink:href="#CMR17-31" transform="scale(0.996264)"/>
       <use xlink:href="#CMMI12-3a" transform="translate(45.690477 0) scale(0.996264)"/>
       <use xlink:href="#CMR17-30" transform="translate(72.787654 0) scale(0.996264)"/>
      </g>
     </g>
    </g>
    <g id="text_7">
     <!-- $t$ -->
     <g style="fill: #262626" transform="translate(215.164513 313.219859) scale(0.096 -0.096)">
      <defs>
       <path id="CMMI12-74" d="M 1286 2566 
L 1875 2566 
C 1997 2566 2061 2566 2061 2681 
C 2061 2752 2022 2752 1894 2752 
L 1331 2752 
L 1568 3664 
C 1594 3752 1594 3764 1594 3808 
C 1594 3910 1510 3968 1427 3968 
C 1376 3968 1229 3948 1178 3746 
L 928 2752 
L 326 2752 
C 198 2752 141 2752 141 2630 
C 141 2566 186 2566 307 2566 
L 877 2566 
L 454 881 
C 403 657 384 593 384 510 
C 384 210 595 -64 954 -64 
C 1600 -64 1946 868 1946 913 
C 1946 951 1920 970 1882 970 
C 1869 970 1843 970 1830 944 
C 1824 938 1818 932 1773 830 
C 1638 510 1344 64 973 64 
C 781 64 768 223 768 364 
C 768 370 768 491 787 568 
L 1286 2566 
z
" transform="scale(0.015625)"/>
      </defs>
      <use xlink:href="#CMMI12-74" transform="scale(0.996264)"/>
     </g>
    </g>
   </g>
   <g id="matplotlib.axis_2">
    <g id="ytick_1">
     <g id="line2d_7">
      <path d="M 38.379322 286.485098 
L 395.499322 286.485098 
" clip-path="url(#p7fcbe277bb)" style="fill: none; stroke: #ffffff; stroke-width: 0.8; stroke-linecap: round"/>
     </g>
     <g id="text_8">
      <!-- $\mathdefault{0}$ -->
      <g style="fill: #262626" transform="translate(25.421723 289.52924) scale(0.088 -0.088)">
       <use xlink:href="#CMR17-30" transform="scale(0.996264)"/>
      </g>
     </g>
    </g>
    <g id="ytick_2">
     <g id="line2d_8">
      <path d="M 38.379322 240.405098 
L 395.499322 240.405098 
" clip-path="url(#p7fcbe277bb)" style="fill: none; stroke: #ffffff; stroke-width: 0.8; stroke-linecap: round"/>
     </g>
     <g id="text_9">
      <!-- $\mathdefault{2}$ -->
      <g style="fill: #262626" transform="translate(25.421723 243.44924) scale(0.088 -0.088)">
       <use xlink:href="#CMR17-32" transform="scale(0.996264)"/>
      </g>
     </g>
    </g>
    <g id="ytick_3">
     <g id="line2d_9">
      <path d="M 38.379322 194.325098 
L 395.499322 194.325098 
" clip-path="url(#p7fcbe277bb)" style="fill: none; stroke: #ffffff; stroke-width: 0.8; stroke-linecap: round"/>
     </g>
     <g id="text_10">
      <!-- $\mathdefault{4}$ -->
      <g style="fill: #262626" transform="translate(25.421723 197.36924) scale(0.088 -0.088)">
       <use xlink:href="#CMR17-34" transform="scale(0.996264)"/>
      </g>
     </g>
    </g>
    <g id="ytick_4">
     <g id="line2d_10">
      <path d="M 38.379322 148.245098 
L 395.499322 148.245098 
" clip-path="url(#p7fcbe277bb)" style="fill: none; stroke: #ffffff; stroke-width: 0.8; stroke-linecap: round"/>
     </g>
     <g id="text_11">
      <!-- $\mathdefault{6}$ -->
      <g style="fill: #262626" transform="translate(25.421723 151.28924) scale(0.088 -0.088)">
       <use xlink:href="#CMR17-36" transform="scale(0.996264)"/>
      </g>
     </g>
    </g>
    <g id="ytick_5">
     <g id="line2d_11">
      <path d="M 38.379322 102.165098 
L 395.499322 102.165098 
" clip-path="url(#p7fcbe277bb)" style="fill: none; stroke: #ffffff; stroke-width: 0.8; stroke-linecap: round"/>
     </g>
     <g id="text_12">
      <!-- $\mathdefault{8}$ -->
      <g style="fill: #262626" transform="translate(25.421723 105.20924) scale(0.088 -0.088)">
       <use xlink:href="#CMR17-38" transform="scale(0.996264)"/>
      </g>
     </g>
    </g>
    <g id="ytick_6">
     <g id="line2d_12">
      <path d="M 38.379322 56.085098 
L 395.499322 56.085098 
" clip-path="url(#p7fcbe277bb)" style="fill: none; stroke: #ffffff; stroke-width: 0.8; stroke-linecap: round"/>
     </g>
     <g id="text_13">
      <!-- $\mathdefault{10}$ -->
      <g style="fill: #262626" transform="translate(20.764125 59.12924) scale(0.088 -0.088)">
       <use xlink:href="#CMR17-31" transform="scale(0.996264)"/>
       <use xlink:href="#CMR17-30" transform="translate(45.690477 0) scale(0.996264)"/>
      </g>
     </g>
    </g>
    <g id="text_14">
     <!-- $f_T(t)$ -->
     <g style="fill: #262626" transform="translate(14.373098 164.650932) rotate(-90) scale(0.096 -0.096)">
      <defs>
       <path id="CMMI12-66" d="M 2854 2566 
C 2982 2566 3034 2566 3034 2687 
C 3034 2752 2982 2752 2867 2752 
L 2349 2752 
C 2470 3398 2560 3846 2611 4051 
C 2650 4204 2784 4351 2950 4351 
C 3085 4351 3219 4294 3283 4236 
C 3034 4211 2957 4025 2957 3916 
C 2957 3788 3053 3712 3174 3712 
C 3302 3712 3494 3820 3494 4064 
C 3494 4332 3226 4480 2944 4480 
C 2669 4480 2400 4275 2272 4025 
C 2157 3801 2093 3573 1946 2752 
L 1517 2752 
C 1395 2752 1331 2752 1331 2636 
C 1331 2566 1370 2566 1498 2566 
L 1907 2566 
C 1792 1977 1530 545 1382 -132 
C 1274 -685 1178 -1152 858 -1152 
C 838 -1152 653 -1152 538 -1031 
C 864 -1005 864 -724 864 -717 
C 864 -589 768 -512 646 -512 
C 518 -512 326 -621 326 -865 
C 326 -1140 608 -1280 858 -1280 
C 1510 -1280 1779 -113 1850 203 
C 1965 691 2278 2376 2310 2566 
L 2854 2566 
z
" transform="scale(0.015625)"/>
       <path id="CMMI12-54" d="M 2669 3886 
C 2707 4038 2720 4096 2816 4121 
C 2867 4134 3078 4134 3213 4134 
C 3853 4134 4154 4109 4154 3612 
C 4154 3516 4128 3274 4090 3038 
L 4083 2962 
C 4083 2937 4109 2898 4147 2898 
C 4211 2898 4211 2930 4230 3032 
L 4416 4159 
C 4429 4217 4429 4230 4429 4249 
C 4429 4319 4390 4319 4262 4319 
L 762 4319 
C 614 4319 608 4313 570 4198 
L 179 3051 
C 173 3038 154 2968 154 2962 
C 154 2930 179 2898 218 2898 
C 269 2898 282 2924 307 3007 
C 576 3777 710 4134 1562 4134 
L 1990 4134 
C 2144 4134 2208 4134 2208 4064 
C 2208 4045 2208 4032 2176 3917 
L 1318 497 
C 1254 249 1242 185 563 185 
C 403 185 358 185 358 64 
C 358 0 429 0 461 0 
C 621 0 787 12 947 12 
L 1946 12 
C 2106 12 2278 0 2438 0 
C 2509 0 2573 0 2573 121 
C 2573 185 2528 185 2362 185 
C 1786 185 1786 242 1786 338 
C 1786 344 1786 389 1811 491 
L 2669 3886 
z
" transform="scale(0.015625)"/>
       <path id="CMR17-28" d="M 1958 -1562 
C 1958 -1556 1958 -1543 1939 -1524 
C 1645 -1223 858 -403 858 1596 
C 858 3595 1632 4408 1946 4729 
C 1946 4735 1958 4748 1958 4767 
C 1958 4787 1939 4800 1914 4800 
C 1843 4800 1299 4325 986 3620 
C 666 2909 576 2218 576 1603 
C 576 1141 621 360 1005 -467 
C 1312 -1133 1837 -1600 1914 -1600 
C 1946 -1600 1958 -1588 1958 -1562 
z
" transform="scale(0.015625)"/>
       <path id="CMR17-29" d="M 1683 1596 
C 1683 2057 1638 2839 1254 3665 
C 947 4332 422 4800 346 4800 
C 326 4800 301 4793 301 4761 
C 301 4748 307 4742 314 4729 
C 621 4408 1402 3595 1402 1603 
C 1402 -396 627 -1210 314 -1530 
C 307 -1543 301 -1549 301 -1562 
C 301 -1594 326 -1600 346 -1600 
C 416 -1600 960 -1127 1274 -422 
C 1594 289 1683 981 1683 1596 
z
" transform="scale(0.015625)"/>
      </defs>
      <use xlink:href="#CMMI12-66" transform="scale(0.996264)"/>
      <use xlink:href="#CMMI12-54" transform="translate(48.083238 -14.943915) scale(0.697382)"/>
      <use xlink:href="#CMR17-28" transform="translate(98.087692 0) scale(0.996264)"/>
      <use xlink:href="#CMMI12-74" transform="translate(133.36846 0) scale(0.996264)"/>
      <use xlink:href="#CMR17-29" transform="translate(168.59479 0) scale(0.996264)"/>
     </g>
    </g>
   </g>
   <g id="patch_3">
    <path d="M 54.918616 286.485098 
L 62.829542 286.485098 
L 62.829542 63.834933 
L 54.918616 63.834933 
z
" clip-path="url(#p7fcbe277bb)" style="fill: #800000; stroke: #000000; stroke-width: 0.5; stroke-linejoin: miter"/>
   </g>
   <g id="patch_4">
    <path d="M 62.829542 286.485098 
L 70.740469 286.485098 
L 70.740469 112.409916 
L 62.829542 112.409916 
z
" clip-path="url(#p7fcbe277bb)" style="fill: #800000; stroke: #000000; stroke-width: 0.5; stroke-linejoin: miter"/>
   </g>
   <g id="patch_5">
    <path d="M 70.740469 286.485098 
L 78.651395 286.485098 
L 78.651395 163.653854 
L 70.740469 163.653854 
z
" clip-path="url(#p7fcbe277bb)" style="fill: #800000; stroke: #000000; stroke-width: 0.5; stroke-linejoin: miter"/>
   </g>
   <g id="patch_6">
    <path d="M 78.651395 286.485098 
L 86.562321 286.485098 
L 86.562321 192.893739 
L 78.651395 192.893739 
z
" clip-path="url(#p7fcbe277bb)" style="fill: #800000; stroke: #000000; stroke-width: 0.5; stroke-linejoin: miter"/>
   </g>
   <g id="patch_7">
    <path d="M 86.562321 286.485098 
L 94.473247 286.485098 
L 94.473247 215.787443 
L 86.562321 215.787443 
z
" clip-path="url(#p7fcbe277bb)" style="fill: #800000; stroke: #000000; stroke-width: 0.5; stroke-linejoin: miter"/>
   </g>
   <g id="patch_8">
    <path d="M 94.473247 286.485098 
L 102.384174 286.485098 
L 102.384174 233.639787 
L 94.473247 233.639787 
z
" clip-path="url(#p7fcbe277bb)" style="fill: #800000; stroke: #000000; stroke-width: 0.5; stroke-linejoin: miter"/>
   </g>
   <g id="patch_9">
    <path d="M 102.384174 286.485098 
L 110.2951 286.485098 
L 110.2951 248.763866 
L 102.384174 248.763866 
z
" clip-path="url(#p7fcbe277bb)" style="fill: #800000; stroke: #000000; stroke-width: 0.5; stroke-linejoin: miter"/>
   </g>
   <g id="patch_10">
    <path d="M 110.2951 286.485098 
L 118.206026 286.485098 
L 118.206026 258.609345 
L 110.2951 258.609345 
z
" clip-path="url(#p7fcbe277bb)" style="fill: #800000; stroke: #000000; stroke-width: 0.5; stroke-linejoin: miter"/>
   </g>
   <g id="patch_11">
    <path d="M 118.206026 286.485098 
L 126.116953 286.485098 
L 126.116953 262.998293 
L 118.206026 262.998293 
z
" clip-path="url(#p7fcbe277bb)" style="fill: #800000; stroke: #000000; stroke-width: 0.5; stroke-linejoin: miter"/>
   </g>
   <g id="patch_12">
    <path d="M 126.116953 286.485098 
L 134.027879 286.485098 
L 134.027879 269.107235 
L 126.116953 269.107235 
z
" clip-path="url(#p7fcbe277bb)" style="fill: #800000; stroke: #000000; stroke-width: 0.5; stroke-linejoin: miter"/>
   </g>
   <g id="patch_13">
    <path d="M 134.027879 286.485098 
L 141.938805 286.485098 
L 141.938805 275.334797 
L 134.027879 275.334797 
z
" clip-path="url(#p7fcbe277bb)" style="fill: #800000; stroke: #000000; stroke-width: 0.5; stroke-linejoin: miter"/>
   </g>
   <g id="patch_14">
    <path d="M 141.938805 286.485098 
L 149.849732 286.485098 
L 149.849732 277.410651 
L 141.938805 277.410651 
z
" clip-path="url(#p7fcbe277bb)" style="fill: #800000; stroke: #000000; stroke-width: 0.5; stroke-linejoin: miter"/>
   </g>
   <g id="patch_15">
    <path d="M 149.849732 286.485098 
L 157.760658 286.485098 
L 157.760658 279.367884 
L 149.849732 279.367884 
z
" clip-path="url(#p7fcbe277bb)" style="fill: #800000; stroke: #000000; stroke-width: 0.5; stroke-linejoin: miter"/>
   </g>
   <g id="patch_16">
    <path d="M 157.760658 286.485098 
L 165.671584 286.485098 
L 165.671584 279.960985 
L 157.760658 279.960985 
z
" clip-path="url(#p7fcbe277bb)" style="fill: #800000; stroke: #000000; stroke-width: 0.5; stroke-linejoin: miter"/>
   </g>
   <g id="patch_17">
    <path d="M 165.671584 286.485098 
L 173.58251 286.485098 
L 173.58251 282.15546 
L 165.671584 282.15546 
z
" clip-path="url(#p7fcbe277bb)" style="fill: #800000; stroke: #000000; stroke-width: 0.5; stroke-linejoin: miter"/>
   </g>
   <g id="patch_18">
    <path d="M 173.58251 286.485098 
L 181.493437 286.485098 
L 181.493437 283.460282 
L 173.58251 283.460282 
z
" clip-path="url(#p7fcbe277bb)" style="fill: #800000; stroke: #000000; stroke-width: 0.5; stroke-linejoin: miter"/>
   </g>
   <g id="patch_19">
    <path d="M 181.493437 286.485098 
L 189.404363 286.485098 
L 189.404363 283.994073 
L 181.493437 283.994073 
z
" clip-path="url(#p7fcbe277bb)" style="fill: #800000; stroke: #000000; stroke-width: 0.5; stroke-linejoin: miter"/>
   </g>
   <g id="patch_20">
    <path d="M 189.404363 286.485098 
L 197.315289 286.485098 
L 197.315289 285.002345 
L 189.404363 285.002345 
z
" clip-path="url(#p7fcbe277bb)" style="fill: #800000; stroke: #000000; stroke-width: 0.5; stroke-linejoin: miter"/>
   </g>
   <g id="patch_21">
    <path d="M 197.315289 286.485098 
L 205.226216 286.485098 
L 205.226216 285.476826 
L 197.315289 285.476826 
z
" clip-path="url(#p7fcbe277bb)" style="fill: #800000; stroke: #000000; stroke-width: 0.5; stroke-linejoin: miter"/>
   </g>
   <g id="patch_22">
    <path d="M 205.226216 286.485098 
L 213.137142 286.485098 
L 213.137142 285.773376 
L 205.226216 285.773376 
z
" clip-path="url(#p7fcbe277bb)" style="fill: #800000; stroke: #000000; stroke-width: 0.5; stroke-linejoin: miter"/>
   </g>
   <g id="patch_23">
    <path d="M 213.137142 286.485098 
L 221.048068 286.485098 
L 221.048068 285.773376 
L 213.137142 285.773376 
z
" clip-path="url(#p7fcbe277bb)" style="fill: #800000; stroke: #000000; stroke-width: 0.5; stroke-linejoin: miter"/>
   </g>
   <g id="patch_24">
    <path d="M 221.048068 286.485098 
L 228.958995 286.485098 
L 228.958995 285.832687 
L 221.048068 285.832687 
z
" clip-path="url(#p7fcbe277bb)" style="fill: #800000; stroke: #000000; stroke-width: 0.5; stroke-linejoin: miter"/>
   </g>
   <g id="patch_25">
    <path d="M 228.958995 286.485098 
L 236.869921 286.485098 
L 236.869921 286.247857 
L 228.958995 286.247857 
z
" clip-path="url(#p7fcbe277bb)" style="fill: #800000; stroke: #000000; stroke-width: 0.5; stroke-linejoin: miter"/>
   </g>
   <g id="patch_26">
    <path d="M 236.869921 286.485098 
L 244.780847 286.485098 
L 244.780847 286.010617 
L 236.869921 286.010617 
z
" clip-path="url(#p7fcbe277bb)" style="fill: #800000; stroke: #000000; stroke-width: 0.5; stroke-linejoin: miter"/>
   </g>
   <g id="patch_27">
    <path d="M 244.780847 286.485098 
L 252.691773 286.485098 
L 252.691773 286.425788 
L 244.780847 286.425788 
z
" clip-path="url(#p7fcbe277bb)" style="fill: #800000; stroke: #000000; stroke-width: 0.5; stroke-linejoin: miter"/>
   </g>
   <g id="patch_28">
    <path d="M 252.691773 286.485098 
L 260.6027 286.485098 
L 260.6027 286.485098 
L 252.691773 286.485098 
z
" clip-path="url(#p7fcbe277bb)" style="fill: #800000; stroke: #000000; stroke-width: 0.5; stroke-linejoin: miter"/>
   </g>
   <g id="patch_29">
    <path d="M 260.6027 286.485098 
L 268.513626 286.485098 
L 268.513626 286.188547 
L 260.6027 286.188547 
z
" clip-path="url(#p7fcbe277bb)" style="fill: #800000; stroke: #000000; stroke-width: 0.5; stroke-linejoin: miter"/>
   </g>
   <g id="patch_30">
    <path d="M 268.513626 286.485098 
L 276.424552 286.485098 
L 276.424552 286.485098 
L 268.513626 286.485098 
z
" clip-path="url(#p7fcbe277bb)" style="fill: #800000; stroke: #000000; stroke-width: 0.5; stroke-linejoin: miter"/>
   </g>
   <g id="patch_31">
    <path d="M 276.424552 286.485098 
L 284.335479 286.485098 
L 284.335479 286.366478 
L 276.424552 286.366478 
z
" clip-path="url(#p7fcbe277bb)" style="fill: #800000; stroke: #000000; stroke-width: 0.5; stroke-linejoin: miter"/>
   </g>
   <g id="patch_32">
    <path d="M 284.335479 286.485098 
L 292.246405 286.485098 
L 292.246405 286.425788 
L 284.335479 286.425788 
z
" clip-path="url(#p7fcbe277bb)" style="fill: #800000; stroke: #000000; stroke-width: 0.5; stroke-linejoin: miter"/>
   </g>
   <g id="patch_33">
    <path d="M 292.246405 286.485098 
L 300.157331 286.485098 
L 300.157331 286.485098 
L 292.246405 286.485098 
z
" clip-path="url(#p7fcbe277bb)" style="fill: #800000; stroke: #000000; stroke-width: 0.5; stroke-linejoin: miter"/>
   </g>
   <g id="patch_34">
    <path d="M 300.157331 286.485098 
L 308.068258 286.485098 
L 308.068258 286.485098 
L 300.157331 286.485098 
z
" clip-path="url(#p7fcbe277bb)" style="fill: #800000; stroke: #000000; stroke-width: 0.5; stroke-linejoin: miter"/>
   </g>
   <g id="patch_35">
    <path d="M 308.068258 286.485098 
L 315.979184 286.485098 
L 315.979184 286.425788 
L 308.068258 286.425788 
z
" clip-path="url(#p7fcbe277bb)" style="fill: #800000; stroke: #000000; stroke-width: 0.5; stroke-linejoin: miter"/>
   </g>
   <g id="patch_36">
    <path d="M 315.979184 286.485098 
L 323.89011 286.485098 
L 323.89011 286.485098 
L 315.979184 286.485098 
z
" clip-path="url(#p7fcbe277bb)" style="fill: #800000; stroke: #000000; stroke-width: 0.5; stroke-linejoin: miter"/>
   </g>
   <g id="patch_37">
    <path d="M 323.89011 286.485098 
L 331.801036 286.485098 
L 331.801036 286.485098 
L 323.89011 286.485098 
z
" clip-path="url(#p7fcbe277bb)" style="fill: #800000; stroke: #000000; stroke-width: 0.5; stroke-linejoin: miter"/>
   </g>
   <g id="patch_38">
    <path d="M 331.801036 286.485098 
L 339.711963 286.485098 
L 339.711963 286.485098 
L 331.801036 286.485098 
z
" clip-path="url(#p7fcbe277bb)" style="fill: #800000; stroke: #000000; stroke-width: 0.5; stroke-linejoin: miter"/>
   </g>
   <g id="patch_39">
    <path d="M 339.711963 286.485098 
L 347.622889 286.485098 
L 347.622889 286.425788 
L 339.711963 286.425788 
z
" clip-path="url(#p7fcbe277bb)" style="fill: #800000; stroke: #000000; stroke-width: 0.5; stroke-linejoin: miter"/>
   </g>
   <g id="patch_40">
    <path d="M 347.622889 286.485098 
L 355.533815 286.485098 
L 355.533815 286.485098 
L 347.622889 286.485098 
z
" clip-path="url(#p7fcbe277bb)" style="fill: #800000; stroke: #000000; stroke-width: 0.5; stroke-linejoin: miter"/>
   </g>
   <g id="patch_41">
    <path d="M 355.533815 286.485098 
L 363.444742 286.485098 
L 363.444742 286.485098 
L 355.533815 286.485098 
z
" clip-path="url(#p7fcbe277bb)" style="fill: #800000; stroke: #000000; stroke-width: 0.5; stroke-linejoin: miter"/>
   </g>
   <g id="patch_42">
    <path d="M 363.444742 286.485098 
L 371.355668 286.485098 
L 371.355668 286.485098 
L 363.444742 286.485098 
z
" clip-path="url(#p7fcbe277bb)" style="fill: #800000; stroke: #000000; stroke-width: 0.5; stroke-linejoin: miter"/>
   </g>
   <g id="patch_43">
    <path d="M 371.355668 286.485098 
L 379.266594 286.485098 
L 379.266594 286.425788 
L 371.355668 286.425788 
z
" clip-path="url(#p7fcbe277bb)" style="fill: #800000; stroke: #000000; stroke-width: 0.5; stroke-linejoin: miter"/>
   </g>
   <g id="line2d_13">
    <path d="M 54.612049 33.045098 
L 57.067041 54.415105 
L 59.522032 73.983197 
L 61.977024 91.901312 
L 64.432016 108.308576 
L 66.887007 123.332382 
L 69.341999 137.089384 
L 71.796991 149.686399 
L 74.251982 161.221236 
L 76.706974 171.783459 
L 79.161966 181.455076 
L 81.616957 190.311185 
L 84.071949 198.420549 
L 86.526941 205.846133 
L 88.981932 212.645594 
L 91.743798 219.612133 
L 94.505664 225.921399 
L 97.267529 231.635405 
L 100.029395 236.810312 
L 102.791261 241.496981 
L 105.553126 245.741477 
L 108.314992 249.585517 
L 111.076858 253.066884 
L 113.838723 256.219794 
L 116.907463 259.37539 
L 119.976203 262.20197 
L 123.044942 264.733839 
L 126.420556 267.215078 
L 129.796169 269.413273 
L 133.171783 271.360714 
L 136.85427 273.232731 
L 140.843632 275.000199 
L 145.139867 276.640933 
L 149.436103 278.047272 
L 154.346086 279.410232 
L 159.562944 280.617993 
L 165.393549 281.725553 
L 171.837902 282.708132 
L 178.896003 283.553148 
L 186.874726 284.283064 
L 196.387819 284.919856 
L 207.742156 285.443628 
L 221.858358 285.857511 
L 240.270795 286.160943 
L 266.96883 286.360728 
L 314.841168 286.462776 
L 361.179136 286.480865 
L 361.179136 286.480865 
" clip-path="url(#p7fcbe277bb)" style="fill: none; stroke: #fa8072; stroke-width: 1.2; stroke-linecap: round"/>
   </g>
   <g id="patch_44">
    <path d="M 38.379322 286.485098 
L 38.379322 20.373098 
" style="fill: none; stroke: #ffffff; stroke-linejoin: miter; stroke-linecap: square"/>
   </g>
   <g id="patch_45">
    <path d="M 395.499322 286.485098 
L 395.499322 20.373098 
" style="fill: none; stroke: #ffffff; stroke-linejoin: miter; stroke-linecap: square"/>
   </g>
   <g id="patch_46">
    <path d="M 38.379322 286.485098 
L 395.499322 286.485098 
" style="fill: none; stroke: #ffffff; stroke-linejoin: miter; stroke-linecap: square"/>
   </g>
   <g id="patch_47">
    <path d="M 38.379322 20.373098 
L 395.499322 20.373098 
" style="fill: none; stroke: #ffffff; stroke-linejoin: miter; stroke-linecap: square"/>
   </g>
   <g id="text_15">
    <!-- M/M/$\infty$ with $\lambda = $15, $\mu = $11 -->
    <g style="fill: #262626" transform="translate(157.361309 14.373098) scale(0.096 -0.096)">
     <defs>
      <path id="CMSS17-4d" d="M 3194 2373 
L 2886 1476 
C 2835 1311 2662 795 2624 592 
L 2618 592 
C 2598 719 2560 853 2458 1177 
C 2400 1368 2336 1565 2272 1743 
L 1325 4416 
L 576 4416 
L 576 0 
L 1075 0 
L 1075 3899 
L 1082 3899 
C 1082 3893 1139 3613 1530 2500 
L 2374 102 
L 2848 102 
L 3610 2233 
C 3661 2379 3821 2843 3891 3066 
C 3955 3257 4115 3728 4154 3912 
L 4160 3912 
L 4160 0 
L 4666 0 
L 4666 4416 
L 3923 4416 
L 3194 2373 
z
" transform="scale(0.015625)"/>
      <path id="CMSS17-2f" d="M 2637 4575 
C 2669 4658 2669 4671 2669 4684 
C 2669 4761 2611 4800 2560 4800 
C 2483 4800 2458 4748 2432 4671 
L 365 -1376 
C 333 -1460 333 -1472 333 -1485 
C 333 -1562 390 -1600 442 -1600 
C 518 -1600 544 -1549 570 -1472 
L 2637 4575 
z
" transform="scale(0.015625)"/>
      <path id="CMSY10-31" d="M 3251 1736 
C 2906 2170 2829 2266 2630 2426 
C 2272 2713 1914 2828 1587 2828 
C 838 2828 352 2126 352 1379 
C 352 645 826 -64 1562 -64 
C 2298 -64 2829 517 3142 1028 
C 3488 594 3565 498 3763 338 
C 4122 51 4480 -64 4806 -64 
C 5555 -64 6042 638 6042 1385 
C 6042 2119 5568 2828 4832 2828 
C 4096 2828 3565 2247 3251 1736 
z
M 3418 1519 
C 3680 1979 4154 2624 4877 2624 
C 5555 2624 5901 1960 5901 1385 
C 5901 760 5472 242 4909 242 
C 4538 242 4250 511 4115 645 
C 3955 817 3808 1015 3418 1519 
z
M 2976 1245 
C 2714 785 2240 140 1517 140 
C 838 140 493 804 493 1379 
C 493 2004 922 2521 1485 2521 
C 1856 2521 2144 2253 2278 2119 
C 2438 1947 2586 1749 2976 1245 
z
" transform="scale(0.015625)"/>
      <path id="CMSS17-77" d="M 4013 2752 
L 3526 2752 
L 3187 1600 
C 3117 1356 2918 684 2893 371 
L 2886 371 
C 2874 563 2765 1024 2586 1632 
L 2259 2752 
L 1818 2752 
L 1498 1657 
C 1338 1100 1216 627 1203 371 
L 1197 371 
C 1171 748 909 1632 870 1772 
L 582 2752 
L 83 2752 
L 915 0 
L 1402 0 
C 1734 1100 1990 1952 2010 2380 
C 2022 2169 2131 1715 2195 1491 
L 2618 0 
L 3181 0 
L 4013 2752 
z
" transform="scale(0.015625)"/>
      <path id="CMSS17-69" d="M 979 4224 
L 442 4224 
L 442 3686 
L 979 3686 
L 979 4224 
z
M 947 2752 
L 474 2752 
L 474 0 
L 947 0 
L 947 2752 
z
" transform="scale(0.015625)"/>
      <path id="CMSS17-74" d="M 1069 2380 
L 1901 2380 
L 1901 2752 
L 1069 2752 
L 1069 3520 
L 614 3520 
L 614 2752 
L 109 2752 
L 109 2380 
L 602 2380 
L 602 751 
C 602 384 685 -64 1107 -64 
C 1427 -64 1722 25 2003 172 
L 1901 551 
C 1747 416 1562 339 1363 339 
C 1082 339 1069 699 1069 860 
L 1069 2380 
z
" transform="scale(0.015625)"/>
      <path id="CMSS17-68" d="M 2618 1878 
C 2618 2283 2522 2816 1798 2816 
C 1395 2816 1133 2617 947 2399 
L 947 4416 
L 474 4416 
L 474 0 
L 960 0 
L 960 1556 
C 960 1962 1114 2425 1549 2425 
C 2112 2425 2131 2045 2131 1826 
L 2131 0 
L 2618 0 
L 2618 1878 
z
" transform="scale(0.015625)"/>
      <path id="CMMI12-15" d="M 1978 3963 
C 1818 4416 1312 4416 1229 4416 
C 1190 4416 1120 4416 1120 4351 
C 1120 4300 1158 4294 1190 4287 
C 1286 4275 1363 4262 1466 4078 
C 1530 3957 2189 2055 2189 2042 
C 2189 2036 2182 2029 2131 1978 
L 467 305 
C 390 229 339 178 339 95 
C 339 6 416 -71 518 -71 
C 544 -71 614 -58 653 -20 
C 755 76 1670 1190 2253 1877 
C 2419 1380 2624 795 2822 261 
C 2854 165 2886 76 2976 -7 
C 3040 -64 3053 -64 3232 -64 
L 3354 -64 
C 3379 -64 3424 -64 3424 -13 
C 3424 12 3418 19 3392 44 
C 3334 114 3290 229 3264 305 
L 1978 3963 
z
" transform="scale(0.015625)"/>
      <path id="CMR17-3d" d="M 4115 2048 
C 4211 2048 4307 2048 4307 2156 
C 4307 2272 4198 2272 4090 2272 
L 512 2272 
C 403 2272 294 2272 294 2156 
C 294 2048 390 2048 486 2048 
L 4115 2048 
z
M 4090 927 
C 4198 927 4307 927 4307 1043 
C 4307 1152 4211 1152 4115 1152 
L 486 1152 
C 390 1152 294 1152 294 1043 
C 294 927 403 927 512 927 
L 4090 927 
z
" transform="scale(0.015625)"/>
      <path id="CMSS17-31" d="M 1818 4288 
L 1696 4288 
C 1350 3949 947 3902 538 3891 
L 538 3520 
C 723 3526 1024 3539 1325 3673 
L 1325 371 
L 570 371 
L 570 0 
L 2573 0 
L 2573 371 
L 1818 371 
L 1818 4288 
z
" transform="scale(0.015625)"/>
      <path id="CMSS17-35" d="M 934 3814 
L 2502 3814 
L 2502 4224 
L 467 4224 
L 467 1830 
L 896 1830 
C 1011 2103 1248 2304 1555 2304 
C 1843 2304 2163 2044 2163 1299 
C 2163 502 1709 268 1376 268 
C 966 268 589 521 422 871 
L 218 508 
C 512 51 992 -128 1376 -128 
C 2118 -128 2701 508 2701 1286 
C 2701 2083 2182 2694 1562 2694 
C 1338 2694 1120 2617 934 2464 
L 934 3814 
z
" transform="scale(0.015625)"/>
      <path id="CMSS17-2c" d="M 1088 6 
L 1088 512 
L 576 512 
L 576 0 
L 736 0 
L 570 -775 
L 826 -775 
L 1088 6 
z
" transform="scale(0.015625)"/>
      <path id="CMMI12-16" d="M 922 140 
C 1082 -7 1318 -64 1536 -64 
C 1946 -64 2227 210 2374 408 
C 2438 70 2707 -64 2931 -64 
C 3123 -64 3277 51 3392 281 
C 3494 498 3584 887 3584 913 
C 3584 944 3558 970 3520 970 
C 3462 970 3456 938 3430 842 
C 3334 466 3213 64 2950 64 
C 2765 64 2752 229 2752 357 
C 2752 504 2810 734 2854 925 
L 3034 1615 
C 3059 1736 3130 2023 3162 2138 
C 3200 2291 3270 2566 3270 2591 
C 3270 2687 3194 2752 3098 2752 
C 3040 2752 2906 2726 2854 2534 
L 2406 759 
C 2374 632 2374 619 2291 517 
C 2214 408 1965 64 1562 64 
C 1203 64 1088 325 1088 625 
C 1088 811 1146 1034 1171 1143 
L 1459 2292 
C 1491 2413 1542 2617 1542 2656 
C 1542 2758 1459 2816 1376 2816 
C 1318 2816 1178 2796 1126 2592 
L 198 -1085 
C 192 -1116 179 -1154 179 -1191 
C 179 -1287 256 -1351 352 -1351 
C 538 -1351 576 -1204 621 -1029 
L 922 140 
z
" transform="scale(0.015625)"/>
     </defs>
     <use xlink:href="#CMSS17-4d" transform="scale(0.996264)"/>
     <use xlink:href="#CMSS17-2f" transform="translate(81.67603 0) scale(0.996264)"/>
     <use xlink:href="#CMSS17-4d" transform="translate(128.519653 0) scale(0.996264)"/>
     <use xlink:href="#CMSS17-2f" transform="translate(210.195683 0) scale(0.996264)"/>
     <use xlink:href="#CMSY10-31" transform="translate(257.039307 0) scale(0.996264)"/>
     <use xlink:href="#CMSS17-77" transform="translate(387.895094 0) scale(0.996264)"/>
     <use xlink:href="#CMSS17-69" transform="translate(451.714639 0) scale(0.996264)"/>
     <use xlink:href="#CMSS17-74" transform="translate(473.895362 0) scale(0.996264)"/>
     <use xlink:href="#CMSS17-68" transform="translate(507.726929 0) scale(0.996264)"/>
     <use xlink:href="#CMMI12-15" transform="translate(587.160985 0) scale(0.996264)"/>
     <use xlink:href="#CMR17-3d" transform="translate(671.739066 0) scale(0.996264)"/>
     <use xlink:href="#CMSS17-31" transform="translate(743.453854 0) scale(0.996264)"/>
     <use xlink:href="#CMSS17-35" transform="translate(790.297478 0) scale(0.996264)"/>
     <use xlink:href="#CMSS17-2c" transform="translate(837.141101 0) scale(0.996264)"/>
     <use xlink:href="#CMMI12-16" transform="translate(894.394419 0) scale(0.996264)"/>
     <use xlink:href="#CMR17-3d" transform="translate(980.759849 0) scale(0.996264)"/>
     <use xlink:href="#CMSS17-31" transform="translate(1052.474637 0) scale(0.996264)"/>
     <use xlink:href="#CMSS17-31" transform="translate(1099.318261 0) scale(0.996264)"/>
    </g>
   </g>
   <g id="legend_1">
    <g id="patch_48">
     <path d="M 322.746586 51.942523 
L 389.339322 51.942523 
Q 391.099322 51.942523 391.099322 50.182523 
L 391.099322 26.533098 
Q 391.099322 24.773098 389.339322 24.773098 
L 322.746586 24.773098 
Q 320.986586 24.773098 320.986586 26.533098 
L 320.986586 50.182523 
Q 320.986586 51.942523 322.746586 51.942523 
z
" style="fill: #eaeaf2; opacity: 0.8; stroke: #cccccc; stroke-width: 0.8; stroke-linejoin: miter"/>
    </g>
    <g id="line2d_14">
     <path d="M 324.506586 31.373098 
L 333.306586 31.373098 
L 342.106586 31.373098 
" style="fill: none; stroke: #fa8072; stroke-width: 1.2; stroke-linecap: round"/>
    </g>
    <g id="text_16">
     <!-- Analytical -->
     <g style="fill: #262626" transform="translate(349.146586 34.453098) scale(0.088 -0.088)">
      <defs>
       <path id="CMSS17-41" d="M 2272 4416 
L 1722 4416 
L 166 0 
L 653 0 
L 1101 1280 
L 2816 1280 
L 3270 0 
L 3827 0 
L 2272 4416 
z
M 2694 1638 
L 1222 1638 
C 1530 2530 1914 3638 1958 3924 
L 1965 3924 
C 2010 3663 2138 3281 2246 2956 
L 2694 1638 
z
" transform="scale(0.015625)"/>
       <path id="CMSS17-6e" d="M 2618 1878 
C 2618 2283 2522 2816 1798 2816 
C 1389 2816 1120 2604 941 2386 
L 941 2783 
L 474 2783 
L 474 0 
L 960 0 
L 960 1556 
C 960 1962 1114 2425 1549 2425 
C 2112 2425 2131 2045 2131 1826 
L 2131 0 
L 2618 0 
L 2618 1878 
z
" transform="scale(0.015625)"/>
       <path id="CMSS17-61" d="M 2406 1789 
C 2406 2399 1978 2816 1402 2816 
C 1120 2816 813 2764 461 2559 
L 499 2133 
C 659 2250 934 2438 1395 2438 
C 1722 2438 1920 2185 1920 1782 
L 1920 1536 
C 896 1504 256 1209 256 711 
C 256 452 416 -64 947 -64 
C 1043 -64 1562 -52 1933 224 
L 1933 -13 
L 2406 -13 
L 2406 1789 
z
M 1920 824 
C 1920 711 1920 559 1728 446 
C 1562 339 1350 326 1261 326 
C 941 326 723 503 723 723 
C 723 1165 1722 1209 1920 1216 
L 1920 824 
z
" transform="scale(0.015625)"/>
       <path id="CMSS17-6c" d="M 947 4416 
L 474 4416 
L 474 0 
L 947 0 
L 947 4416 
z
" transform="scale(0.015625)"/>
       <path id="CMSS17-79" d="M 2675 2752 
L 2176 2752 
C 1632 1293 1446 701 1434 383 
L 1427 383 
C 1408 695 1126 1459 902 2006 
L 602 2752 
L 83 2752 
L 1216 14 
C 1146 -177 1043 -464 1011 -527 
C 870 -884 774 -884 672 -884 
C 646 -884 442 -877 211 -807 
L 250 -1229 
C 410 -1261 570 -1280 685 -1280 
C 845 -1280 1165 -1280 1459 -495 
L 2675 2752 
z
" transform="scale(0.015625)"/>
       <path id="CMSS17-63" d="M 2464 2540 
C 2464 2585 2170 2713 2093 2739 
C 1882 2816 1613 2816 1542 2816 
C 710 2816 211 2092 211 1363 
C 211 595 768 -64 1517 -64 
C 1946 -64 2253 76 2502 243 
L 2464 665 
C 2189 454 1869 339 1523 339 
C 1024 339 698 774 698 1369 
C 698 1830 909 2412 1549 2412 
C 1901 2412 2099 2342 2394 2143 
L 2464 2540 
z
" transform="scale(0.015625)"/>
      </defs>
      <use xlink:href="#CMSS17-41" transform="scale(0.996264)"/>
      <use xlink:href="#CMSS17-6e" transform="translate(62.217855 0) scale(0.996264)"/>
      <use xlink:href="#CMSS17-61" transform="translate(110.422798 0) scale(0.996264)"/>
      <use xlink:href="#CMSS17-6c" transform="translate(155.344719 0) scale(0.996264)"/>
      <use xlink:href="#CMSS17-79" transform="translate(177.525442 0) scale(0.996264)"/>
      <use xlink:href="#CMSS17-74" transform="translate(220.525583 0) scale(0.996264)"/>
      <use xlink:href="#CMSS17-69" transform="translate(254.35715 0) scale(0.996264)"/>
      <use xlink:href="#CMSS17-63" transform="translate(276.537873 0) scale(0.996264)"/>
      <use xlink:href="#CMSS17-61" transform="translate(318.176695 0) scale(0.996264)"/>
      <use xlink:href="#CMSS17-6c" transform="translate(363.098616 0) scale(0.996264)"/>
     </g>
    </g>
    <g id="patch_49">
     <path d="M 324.506586 46.717811 
L 342.106586 46.717811 
L 342.106586 40.557811 
L 324.506586 40.557811 
z
" style="fill: #800000; stroke: #000000; stroke-width: 0.5; stroke-linejoin: miter"/>
    </g>
    <g id="text_17">
     <!-- Empirical -->
     <g style="fill: #262626" transform="translate(349.146586 46.717811) scale(0.088 -0.088)">
      <defs>
       <path id="CMSS17-45" d="M 1958 435 
C 1446 435 1216 435 1101 428 
L 1101 2105 
L 3085 2105 
L 3085 2496 
L 1101 2496 
L 1101 3993 
L 1926 3993 
C 2003 3993 2080 3987 2157 3987 
L 3251 3987 
L 3251 4403 
L 563 4403 
L 563 0 
L 3334 0 
L 3334 441 
L 1958 435 
z
" transform="scale(0.015625)"/>
       <path id="CMSS17-6d" d="M 4288 1878 
C 4288 2309 4179 2816 3462 2816 
C 2982 2816 2694 2515 2566 2328 
C 2451 2668 2182 2816 1798 2816 
C 1363 2816 1088 2566 941 2386 
L 941 2783 
L 474 2783 
L 474 0 
L 960 0 
L 960 1556 
C 960 1936 1101 2425 1555 2425 
C 2138 2425 2138 2013 2138 1826 
L 2138 0 
L 2624 0 
L 2624 1556 
C 2624 1936 2765 2425 3219 2425 
C 3802 2425 3802 2013 3802 1826 
L 3802 0 
L 4288 0 
L 4288 1878 
z
" transform="scale(0.015625)"/>
       <path id="CMSS17-70" d="M 966 275 
C 1178 70 1466 -64 1773 -64 
C 2368 -64 2880 553 2880 1382 
C 2880 2147 2496 2816 1946 2816 
C 1626 2816 1242 2700 954 2470 
L 954 2764 
L 480 2764 
L 480 -1280 
L 966 -1280 
L 966 275 
z
M 966 2088 
C 1018 2166 1235 2412 1587 2412 
C 2035 2412 2394 1946 2394 1382 
C 2394 741 1958 326 1530 326 
C 1402 326 1267 358 1139 468 
C 966 624 966 721 966 812 
L 966 2088 
z
" transform="scale(0.015625)"/>
       <path id="CMSS17-72" d="M 954 1369 
C 954 1974 1395 2379 1958 2392 
L 1958 2816 
C 1549 2809 1165 2604 934 2270 
L 934 2783 
L 480 2783 
L 480 0 
L 954 0 
L 954 1369 
z
" transform="scale(0.015625)"/>
      </defs>
      <use xlink:href="#CMSS17-45" transform="scale(0.996264)"/>
      <use xlink:href="#CMSS17-6d" transform="translate(55.892013 0) scale(0.996264)"/>
      <use xlink:href="#CMSS17-70" transform="translate(130.121268 0) scale(0.996264)"/>
      <use xlink:href="#CMSS17-69" transform="translate(178.326211 0) scale(0.996264)"/>
      <use xlink:href="#CMSS17-72" transform="translate(200.506934 0) scale(0.996264)"/>
      <use xlink:href="#CMSS17-69" transform="translate(232.416706 0) scale(0.996264)"/>
      <use xlink:href="#CMSS17-63" transform="translate(254.597429 0) scale(0.996264)"/>
      <use xlink:href="#CMSS17-61" transform="translate(296.236252 0) scale(0.996264)"/>
      <use xlink:href="#CMSS17-6c" transform="translate(341.158172 0) scale(0.996264)"/>
     </g>
    </g>
   </g>
  </g>
 </g>
 <defs>
  <clipPath id="p7fcbe277bb">
   <rect x="38.379322" y="20.373098" width="357.12" height="266.112"/>
  </clipPath>
 </defs>
</svg>
