<?xml version="1.0" encoding="utf-8" standalone="no"?>
<!DOCTYPE svg PUBLIC "-//W3C//DTD SVG 1.1//EN"
  "http://www.w3.org/Graphics/SVG/1.1/DTD/svg11.dtd">
<!-- Created with matplotlib (https://matplotlib.org/) -->
<svg height="345.6pt" version="1.1" viewBox="0 0 460.8 345.6" width="460.8pt" xmlns="http://www.w3.org/2000/svg" xmlns:xlink="http://www.w3.org/1999/xlink">
 <defs>
  <style type="text/css">
*{stroke-linecap:butt;stroke-linejoin:round;}
  </style>
 </defs>
 <g id="figure_1">
  <g id="patch_1">
   <path d="M 0 345.6 
L 460.8 345.6 
L 460.8 0 
L 0 0 
z
" style="fill:none;"/>
  </g>
  <g id="axes_1">
   <g id="patch_2">
    <path d="M 57.6 307.584 
L 414.72 307.584 
L 414.72 41.472 
L 57.6 41.472 
z
" style="fill:none;"/>
   </g>
   <g id="matplotlib.axis_1">
    <g id="xtick_1">
     <g id="line2d_1">
      <path clip-path="url(#paaf2fd2e93)" d="M 73.832727 307.584 
L 73.832727 41.472 
" style="fill:none;stroke:#ffffff;stroke-linecap:round;stroke-width:0.8;"/>
     </g>
     <g id="text_1">
      <!-- $0$ -->
      <defs>
       <path d="M 42 31.84375 
C 42 37.96875 41.90625 48.421875 37.703125 56.453125 
C 34 63.484375 28.09375 66 22.90625 66 
C 18.09375 66 12 63.78125 8.203125 56.5625 
C 4.203125 49.015625 3.796875 39.671875 3.796875 31.84375 
C 3.796875 26.109375 3.90625 17.375 7 9.734375 
C 11.296875 -0.609375 19 -2 22.90625 -2 
C 27.5 -2 34.5 -0.109375 38.59375 9.4375 
C 41.59375 16.375 42 24.5 42 31.84375 
z
M 22.90625 -0.40625 
C 16.5 -0.40625 12.703125 5.125 11.296875 12.75 
C 10.203125 18.6875 10.203125 27.328125 10.203125 32.953125 
C 10.203125 40.6875 10.203125 47.109375 11.5 53.234375 
C 13.40625 61.78125 19 64.390625 22.90625 64.390625 
C 27 64.390625 32.296875 61.671875 34.203125 53.4375 
C 35.5 47.71875 35.59375 40.984375 35.59375 32.953125 
C 35.59375 26.421875 35.59375 18.375 34.40625 12.453125 
C 32.296875 1.5 26.40625 -0.40625 22.90625 -0.40625 
z
" id="CMR17-48"/>
      </defs>
      <g style="fill:#262626;" transform="translate(71.503928 321.972283)scale(0.088 -0.088)">
       <use transform="scale(0.996264)" xlink:href="#CMR17-48"/>
      </g>
     </g>
    </g>
    <g id="xtick_2">
     <g id="line2d_2">
      <path clip-path="url(#paaf2fd2e93)" d="M 138.763636 307.584 
L 138.763636 41.472 
" style="fill:none;stroke:#ffffff;stroke-linecap:round;stroke-width:0.8;"/>
     </g>
     <g id="text_2">
      <!-- $10$ -->
      <defs>
       <path d="M 26.59375 63.796875 
C 26.59375 65.890625 26.5 66 25.09375 66 
C 21.203125 61.359375 15.296875 59.890625 9.703125 59.6875 
C 9.40625 59.6875 8.90625 59.6875 8.796875 59.5 
C 8.703125 59.296875 8.703125 59.09375 8.703125 57 
C 11.796875 57 17 57.59375 21 59.984375 
L 21 7.296875 
C 21 3.796875 20.796875 2.59375 12.203125 2.59375 
L 9.203125 2.59375 
L 9.203125 0 
C 14 0.09375 19 0.1875 23.796875 0.1875 
C 28.59375 0.1875 33.59375 0.09375 38.40625 0 
L 38.40625 2.59375 
L 35.40625 2.59375 
C 26.796875 2.59375 26.59375 3.6875 26.59375 7.296875 
z
" id="CMR17-49"/>
      </defs>
      <g style="fill:#262626;" transform="translate(134.106038 321.972283)scale(0.088 -0.088)">
       <use transform="scale(0.996264)" xlink:href="#CMR17-49"/>
       <use transform="translate(45.690477 0)scale(0.996264)" xlink:href="#CMR17-48"/>
      </g>
     </g>
    </g>
    <g id="xtick_3">
     <g id="line2d_3">
      <path clip-path="url(#paaf2fd2e93)" d="M 203.694545 307.584 
L 203.694545 41.472 
" style="fill:none;stroke:#ffffff;stroke-linecap:round;stroke-width:0.8;"/>
     </g>
     <g id="text_3">
      <!-- $20$ -->
      <defs>
       <path d="M 41.703125 15.46875 
L 39.90625 15.46875 
C 38.90625 8.390625 38.09375 7.1875 37.703125 6.59375 
C 37.203125 5.796875 30 5.796875 28.59375 5.796875 
L 9.40625 5.796875 
C 13 9.6875 20 16.765625 28.5 24.9375 
C 34.59375 30.71875 41.703125 37.5 41.703125 47.390625 
C 41.703125 59.1875 32.296875 66 21.796875 66 
C 10.796875 66 4.09375 56.296875 4.09375 47.296875 
C 4.09375 43.390625 7 42.890625 8.203125 42.890625 
C 9.203125 42.890625 12.203125 43.484375 12.203125 46.984375 
C 12.203125 50.09375 9.59375 51 8.203125 51 
C 7.59375 51 7 50.890625 6.59375 50.6875 
C 8.5 59.1875 14.296875 63.390625 20.40625 63.390625 
C 29.09375 63.390625 34.796875 56.5 34.796875 47.390625 
C 34.796875 38.703125 29.703125 31.21875 24 24.734375 
L 4.09375 2.296875 
L 4.09375 0 
L 39.296875 0 
z
" id="CMR17-50"/>
      </defs>
      <g style="fill:#262626;" transform="translate(199.036947 321.972283)scale(0.088 -0.088)">
       <use transform="scale(0.996264)" xlink:href="#CMR17-50"/>
       <use transform="translate(45.690477 0)scale(0.996264)" xlink:href="#CMR17-48"/>
      </g>
     </g>
    </g>
    <g id="xtick_4">
     <g id="line2d_4">
      <path clip-path="url(#paaf2fd2e93)" d="M 268.625455 307.584 
L 268.625455 41.472 
" style="fill:none;stroke:#ffffff;stroke-linecap:round;stroke-width:0.8;"/>
     </g>
     <g id="text_4">
      <!-- $30$ -->
      <defs>
       <path d="M 22.09375 34 
C 31 34 34.90625 26.140625 34.90625 17.09375 
C 34.90625 5.03125 28.5 0.390625 22.703125 0.390625 
C 17.40625 0.390625 8.796875 3.015625 6.09375 10.796875 
C 6.59375 10.59375 7.09375 10.59375 7.59375 10.59375 
C 10 10.59375 11.796875 12.1875 11.796875 14.796875 
C 11.796875 17.6875 9.59375 19 7.59375 19 
C 5.90625 19 3.296875 18.1875 3.296875 14.484375 
C 3.296875 5.234375 12.296875 -2 22.90625 -2 
C 34 -2 42.5 6.75 42.5 16.984375 
C 42.5 26.84375 34.5 34 25 35.09375 
C 32.59375 36.671875 39.90625 43.375 39.90625 52.390625 
C 39.90625 60.25 32 66 23 66 
C 13.90625 66 5.90625 60.34375 5.90625 52.296875 
C 5.90625 48.796875 8.5 48.1875 9.796875 48.1875 
C 11.90625 48.1875 13.703125 49.484375 13.703125 52.09375 
C 13.703125 54.6875 11.90625 56 9.796875 56 
C 9.40625 56 8.90625 56 8.5 55.796875 
C 11.40625 62.484375 19.296875 63.6875 22.796875 63.6875 
C 26.296875 63.6875 32.90625 61.96875 32.90625 52.296875 
C 32.90625 49.484375 32.5 44.546875 29.09375 40.21875 
C 26.09375 36.390625 22.703125 36.1875 19.40625 35.890625 
C 18.90625 35.890625 16.59375 35.6875 16.203125 35.6875 
C 15.5 35.59375 15.09375 35.5 15.09375 34.796875 
C 15.09375 34.09375 15.203125 34 17.203125 34 
z
" id="CMR17-51"/>
      </defs>
      <g style="fill:#262626;" transform="translate(263.967856 321.972283)scale(0.088 -0.088)">
       <use transform="scale(0.996264)" xlink:href="#CMR17-51"/>
       <use transform="translate(45.690477 0)scale(0.996264)" xlink:href="#CMR17-48"/>
      </g>
     </g>
    </g>
    <g id="xtick_5">
     <g id="line2d_5">
      <path clip-path="url(#paaf2fd2e93)" d="M 333.556364 307.584 
L 333.556364 41.472 
" style="fill:none;stroke:#ffffff;stroke-linecap:round;stroke-width:0.8;"/>
     </g>
     <g id="text_5">
      <!-- $40$ -->
      <defs>
       <path d="M 33.59375 64.796875 
C 33.59375 66.890625 33.5 67 31.703125 67 
L 2 19.59375 
L 2 17 
L 27.796875 17 
L 27.796875 7.1875 
C 27.796875 3.59375 27.59375 2.59375 20.59375 2.59375 
L 18.703125 2.59375 
L 18.703125 0 
C 21.90625 0.1875 27.296875 0.1875 30.703125 0.1875 
C 34.09375 0.1875 39.5 0.1875 42.703125 0 
L 42.703125 2.59375 
L 40.796875 2.59375 
C 33.796875 2.59375 33.59375 3.59375 33.59375 7.1875 
L 33.59375 17 
L 43.796875 17 
L 43.796875 19.59375 
L 33.59375 19.59375 
z
M 28.09375 58.171875 
L 28.09375 19.59375 
L 4 19.59375 
z
" id="CMR17-52"/>
      </defs>
      <g style="fill:#262626;" transform="translate(328.898766 321.972283)scale(0.088 -0.088)">
       <use transform="scale(0.996264)" xlink:href="#CMR17-52"/>
       <use transform="translate(45.690477 0)scale(0.996264)" xlink:href="#CMR17-48"/>
      </g>
     </g>
    </g>
    <g id="xtick_6">
     <g id="line2d_6">
      <path clip-path="url(#paaf2fd2e93)" d="M 398.487273 307.584 
L 398.487273 41.472 
" style="fill:none;stroke:#ffffff;stroke-linecap:round;stroke-width:0.8;"/>
     </g>
     <g id="text_6">
      <!-- $50$ -->
      <defs>
       <path d="M 11.40625 58.59375 
C 12.40625 58.1875 16.5 56.890625 20.703125 56.890625 
C 30 56.890625 35.09375 61.890625 38 64.6875 
C 38 65.484375 38 66 37.40625 66 
C 37.296875 66 37.09375 66 36.296875 65.59375 
C 32.796875 64.09375 28.703125 63 23.703125 63 
C 20.703125 63 16.203125 63.359375 11.296875 65.484375 
C 10.203125 66 10 66 9.90625 66 
C 9.40625 66 9.296875 65.890625 9.296875 63.90625 
L 9.296875 34.859375 
C 9.296875 33.015625 9.296875 32.5 10.296875 32.5 
C 10.796875 32.5 11 32.703125 11.5 33.421875 
C 14.703125 38.046875 19.09375 40 24.09375 40 
C 27.59375 40 35.09375 37.734375 35.09375 20.203125 
C 35.09375 16.984375 35.09375 11.1875 32.09375 6.59375 
C 29.59375 2.484375 25.703125 0.390625 21.40625 0.390625 
C 14.796875 0.390625 8.09375 4.984375 6.296875 12.6875 
C 6.703125 12.59375 7.5 12.390625 7.90625 12.390625 
C 9.203125 12.390625 11.703125 13.09375 11.703125 16.1875 
C 11.703125 18.890625 9.796875 20 7.90625 20 
C 5.59375 20 4.09375 18.59375 4.09375 15.796875 
C 4.09375 7.09375 11 -2 21.59375 -2 
C 31.90625 -2 41.703125 6.890625 41.703125 19.796875 
C 41.703125 32.09375 33.90625 41.59375 24.203125 41.59375 
C 19.09375 41.59375 14.796875 39.6875 11.40625 36 
z
" id="CMR17-53"/>
      </defs>
      <g style="fill:#262626;" transform="translate(393.829675 321.972283)scale(0.088 -0.088)">
       <use transform="scale(0.996264)" xlink:href="#CMR17-53"/>
       <use transform="translate(45.690477 0)scale(0.996264)" xlink:href="#CMR17-48"/>
      </g>
     </g>
    </g>
    <g id="text_7">
     <!-- $N$ -->
     <defs>
      <path d="M 74 57.53125 
C 75.09375 61.8125 76.703125 64.796875 84.296875 65.09375 
C 84.59375 65.09375 85.796875 65.1875 85.796875 66.890625 
C 85.796875 68 84.90625 68 84.5 68 
C 82.5 68 77.40625 67.796875 75.40625 67.796875 
L 70.59375 67.796875 
C 69.203125 67.796875 67.40625 68 66 68 
C 65.40625 68 64.203125 68 64.203125 66.09375 
C 64.203125 65.09375 65 65.09375 65.703125 65.09375 
C 71.703125 64.890625 72.09375 62.609375 72.09375 60.8125 
C 72.09375 59.921875 72 59.625 71.703125 58.21875 
L 60.40625 13.34375 
L 39 66.296875 
C 38.296875 67.890625 38.203125 68 36 68 
L 23.796875 68 
C 21.796875 68 20.90625 68 20.90625 66.09375 
C 20.90625 65.09375 21.59375 65.09375 23.5 65.09375 
C 24 65.09375 29.90625 65.09375 29.90625 64.203125 
C 29.90625 64 29.703125 63.203125 29.59375 62.90625 
L 16.296875 10.15625 
C 15.09375 5.28125 12.703125 3.1875 6.09375 2.890625 
C 5.59375 2.890625 4.59375 2.796875 4.59375 1 
C 4.59375 0 5.59375 0 5.90625 0 
C 7.90625 0 13 0.1875 15 0.1875 
L 19.796875 0.1875 
C 21.203125 0.1875 22.90625 0 24.296875 0 
C 25 0 26.09375 0 26.09375 1.890625 
C 26.09375 2.796875 25.09375 2.890625 24.703125 2.890625 
C 21.40625 2.984375 18.203125 3.59375 18.203125 7.171875 
C 18.203125 7.96875 18.40625 8.859375 18.59375 9.65625 
L 32.09375 62.90625 
C 32.703125 61.90625 32.703125 61.703125 33.09375 60.8125 
L 56.90625 1.796875 
C 57.40625 0.59375 57.59375 0 58.5 0 
C 59.5 0 59.59375 0.296875 60 2 
z
" id="CMMI12-78"/>
     </defs>
     <g style="fill:#262626;" transform="translate(232.231054 334.318761)scale(0.096 -0.096)">
      <use transform="scale(0.996264)" xlink:href="#CMMI12-78"/>
     </g>
    </g>
   </g>
   <g id="matplotlib.axis_2">
    <g id="ytick_1">
     <g id="line2d_7">
      <path clip-path="url(#paaf2fd2e93)" d="M 57.6 295.488 
L 414.72 295.488 
" style="fill:none;stroke:#ffffff;stroke-linecap:round;stroke-width:0.8;"/>
     </g>
     <g id="text_8">
      <!-- $0$ -->
      <g style="fill:#262626;" transform="translate(44.642402 298.532142)scale(0.088 -0.088)">
       <use transform="scale(0.996264)" xlink:href="#CMR17-48"/>
      </g>
     </g>
    </g>
    <g id="ytick_2">
     <g id="line2d_8">
      <path clip-path="url(#paaf2fd2e93)" d="M 57.6 250.688 
L 414.72 250.688 
" style="fill:none;stroke:#ffffff;stroke-linecap:round;stroke-width:0.8;"/>
     </g>
     <g id="text_9">
      <!-- $50$ -->
      <g style="fill:#262626;" transform="translate(39.984804 253.732142)scale(0.088 -0.088)">
       <use transform="scale(0.996264)" xlink:href="#CMR17-53"/>
       <use transform="translate(45.690477 0)scale(0.996264)" xlink:href="#CMR17-48"/>
      </g>
     </g>
    </g>
    <g id="ytick_3">
     <g id="line2d_9">
      <path clip-path="url(#paaf2fd2e93)" d="M 57.6 205.888 
L 414.72 205.888 
" style="fill:none;stroke:#ffffff;stroke-linecap:round;stroke-width:0.8;"/>
     </g>
     <g id="text_10">
      <!-- $100$ -->
      <g style="fill:#262626;" transform="translate(35.327206 208.932142)scale(0.088 -0.088)">
       <use transform="scale(0.996264)" xlink:href="#CMR17-49"/>
       <use transform="translate(45.690477 0)scale(0.996264)" xlink:href="#CMR17-48"/>
       <use transform="translate(91.380954 0)scale(0.996264)" xlink:href="#CMR17-48"/>
      </g>
     </g>
    </g>
    <g id="ytick_4">
     <g id="line2d_10">
      <path clip-path="url(#paaf2fd2e93)" d="M 57.6 161.088 
L 414.72 161.088 
" style="fill:none;stroke:#ffffff;stroke-linecap:round;stroke-width:0.8;"/>
     </g>
     <g id="text_11">
      <!-- $150$ -->
      <g style="fill:#262626;" transform="translate(35.327206 164.132142)scale(0.088 -0.088)">
       <use transform="scale(0.996264)" xlink:href="#CMR17-49"/>
       <use transform="translate(45.690477 0)scale(0.996264)" xlink:href="#CMR17-53"/>
       <use transform="translate(91.380954 0)scale(0.996264)" xlink:href="#CMR17-48"/>
      </g>
     </g>
    </g>
    <g id="ytick_5">
     <g id="line2d_11">
      <path clip-path="url(#paaf2fd2e93)" d="M 57.6 116.288 
L 414.72 116.288 
" style="fill:none;stroke:#ffffff;stroke-linecap:round;stroke-width:0.8;"/>
     </g>
     <g id="text_12">
      <!-- $200$ -->
      <g style="fill:#262626;" transform="translate(35.327206 119.332142)scale(0.088 -0.088)">
       <use transform="scale(0.996264)" xlink:href="#CMR17-50"/>
       <use transform="translate(45.690477 0)scale(0.996264)" xlink:href="#CMR17-48"/>
       <use transform="translate(91.380954 0)scale(0.996264)" xlink:href="#CMR17-48"/>
      </g>
     </g>
    </g>
    <g id="ytick_6">
     <g id="line2d_12">
      <path clip-path="url(#paaf2fd2e93)" d="M 57.6 71.488 
L 414.72 71.488 
" style="fill:none;stroke:#ffffff;stroke-linecap:round;stroke-width:0.8;"/>
     </g>
     <g id="text_13">
      <!-- $250$ -->
      <g style="fill:#262626;" transform="translate(35.327206 74.532142)scale(0.088 -0.088)">
       <use transform="scale(0.996264)" xlink:href="#CMR17-50"/>
       <use transform="translate(45.690477 0)scale(0.996264)" xlink:href="#CMR17-53"/>
       <use transform="translate(91.380954 0)scale(0.996264)" xlink:href="#CMR17-48"/>
      </g>
     </g>
    </g>
    <g id="text_14">
     <!-- $\mu_{\text{eff}}$ -->
     <defs>
      <path d="M 14.40625 2.1875 
C 16.90625 -0.109375 20.59375 -1 24 -1 
C 30.40625 -1 34.796875 3.28125 37.09375 6.375 
C 38.09375 1.09375 42.296875 -1 45.796875 -1 
C 48.796875 -1 51.203125 0.796875 53 4.390625 
C 54.59375 7.78125 56 13.859375 56 14.265625 
C 56 14.75 55.59375 15.15625 55 15.15625 
C 54.09375 15.15625 54 14.65625 53.59375 13.15625 
C 52.09375 7.28125 50.203125 1 46.09375 1 
C 43.203125 1 43 3.578125 43 5.578125 
C 43 7.875 43.90625 11.46875 44.59375 14.453125 
L 47.40625 25.234375 
C 47.796875 27.125 48.90625 31.609375 49.40625 33.40625 
C 50 35.796875 51.09375 40.09375 51.09375 40.484375 
C 51.09375 41.984375 49.90625 43 48.40625 43 
C 47.5 43 45.40625 42.59375 44.59375 39.59375 
L 37.59375 11.859375 
C 37.09375 9.875 37.09375 9.671875 35.796875 8.078125 
C 34.59375 6.375 30.703125 1 24.40625 1 
C 18.796875 1 17 5.078125 17 9.765625 
C 17 12.671875 17.90625 16.15625 18.296875 17.859375 
L 22.796875 35.8125 
C 23.296875 37.703125 24.09375 40.890625 24.09375 41.5 
C 24.09375 43.09375 22.796875 44 21.5 44 
C 20.59375 44 18.40625 43.6875 17.59375 40.5 
L 3.09375 -16.953125 
C 3 -17.4375 2.796875 -18.03125 2.796875 -18.609375 
C 2.796875 -20.109375 4 -21.109375 5.5 -21.109375 
C 8.40625 -21.109375 9 -18.8125 9.703125 -16.078125 
z
" id="CMMI12-22"/>
      <path d="M 39.09375 21.484375 
C 39.09375 24.796875 38.90625 31.265625 35.703125 36.671875 
C 32.203125 42.390625 26.5 44 22.203125 44 
C 11.796875 44 3 34.125 3 21.296875 
C 3 9.046875 12.09375 -1 23.59375 -1 
C 28.09375 -1 33.59375 0.296875 38.59375 3.890625 
C 38.59375 4.296875 38.40625 6.46875 38.296875 6.578125 
C 38.296875 6.765625 38 9.828125 38 10.234375 
C 33.203125 6.375 27.703125 5.09375 23.703125 5.09375 
C 17.296875 5.09375 10.40625 10.421875 10.09375 21.484375 
z
M 10.90625 27 
C 12.203125 32.59375 16.59375 37.890625 22.203125 37.890625 
C 23.703125 37.890625 30.703125 37.6875 32.5 27 
z
" id="CMSS17-101"/>
      <path d="M 16.796875 37.1875 
L 27.09375 37.1875 
L 27.09375 43 
L 16.59375 43 
L 16.59375 55.671875 
C 16.59375 62.5 21.796875 63.890625 25.203125 63.890625 
C 28.703125 63.890625 31.59375 63 32.703125 62.609375 
L 32.703125 69.1875 
C 31.59375 69.390625 28.59375 70 25.296875 70 
C 16.09375 70 9.40625 62.5 9.40625 52.59375 
L 9.40625 43 
L 2.5 43 
L 2.5 37.1875 
L 9.40625 37.1875 
L 9.40625 0 
L 16.796875 0 
z
M 42.796875 37.1875 
L 53.09375 37.1875 
L 53.09375 43 
L 42.59375 43 
L 42.59375 55.671875 
C 42.59375 62.5 47.796875 63.890625 51.203125 63.890625 
C 54.703125 63.890625 57.59375 63 58.703125 62.609375 
L 58.703125 69.1875 
C 57.59375 69.390625 54.59375 70 51.296875 70 
C 42.09375 70 35.40625 62.5 35.40625 52.59375 
L 35.40625 0 
L 42.796875 0 
z
" id="CMSS17-11"/>
     </defs>
     <g style="fill:#262626;" transform="translate(24.710615 172.668305)scale(0.096 -0.096)">
      <use transform="translate(0 14.943915)scale(0.996264)" xlink:href="#CMMI12-22"/>
      <use transform="translate(58.691421 0)scale(0.697382)" xlink:href="#CMSS17-101"/>
      <use transform="translate(87.838468 0)scale(0.697382)" xlink:href="#CMSS17-11"/>
     </g>
    </g>
   </g>
   <g id="line2d_13">
    <path clip-path="url(#paaf2fd2e93)" d="M 73.832727 295.488 
L 77.112066 292.772848 
L 80.391405 290.057697 
L 83.670744 287.342545 
L 86.950083 284.627394 
L 90.229421 281.912242 
L 93.50876 279.197091 
L 96.788099 276.481939 
L 100.067438 273.766788 
L 103.346777 271.051636 
L 106.626116 268.336485 
L 109.905455 265.621333 
L 113.184793 262.906182 
L 116.464132 260.19103 
L 119.743471 257.475879 
L 123.02281 254.760727 
L 126.302149 252.045576 
L 129.581488 249.330424 
L 132.860826 246.615273 
L 136.140165 243.900121 
L 139.419504 241.18497 
L 142.698843 238.469818 
L 145.978182 235.754667 
L 149.257521 233.039515 
L 152.53686 230.324364 
L 155.816198 227.609212 
L 159.095537 224.894061 
L 162.374876 222.178909 
L 165.654215 219.463758 
L 168.933554 216.748606 
L 172.212893 214.033455 
L 175.492231 211.318303 
L 178.77157 208.603152 
L 182.050909 205.888 
L 185.330248 203.172848 
L 188.609587 200.457697 
L 191.888926 197.742545 
L 195.168264 195.027394 
L 198.447603 192.312242 
L 201.726942 189.597091 
L 205.006281 186.881939 
L 208.28562 184.166788 
L 211.564959 181.451636 
L 214.844298 178.736485 
L 218.123636 176.021333 
L 221.402975 173.306182 
L 224.682314 170.59103 
L 227.961653 167.875879 
L 231.240992 165.160727 
L 234.520331 162.445576 
L 237.799669 159.730424 
L 241.079008 157.015273 
L 244.358347 154.300121 
L 247.637686 151.58497 
L 250.917025 148.869818 
L 254.196364 146.154667 
L 257.475702 143.439515 
L 260.755041 140.724364 
L 264.03438 138.009212 
L 267.313719 135.294061 
L 270.593058 134.208 
L 273.872397 134.208 
L 277.151736 134.208 
L 280.431074 134.208 
L 283.710413 134.208 
L 286.989752 134.208 
L 290.269091 134.208 
L 293.54843 134.208 
L 296.827769 134.208 
L 300.107107 134.208 
L 303.386446 134.208 
L 306.665785 134.208 
L 309.945124 134.208 
L 313.224463 134.208 
L 316.503802 134.208 
L 319.78314 134.208 
L 323.062479 134.208 
L 326.341818 134.208 
L 329.621157 134.208 
L 332.900496 134.208 
L 336.179835 134.208 
L 339.459174 134.208 
L 342.738512 134.208 
L 346.017851 134.208 
L 349.29719 134.208 
L 352.576529 134.208 
L 355.855868 134.208 
L 359.135207 134.208 
L 362.414545 134.208 
L 365.693884 134.208 
L 368.973223 134.208 
L 372.252562 134.208 
L 375.531901 134.208 
L 378.81124 134.208 
L 382.090579 134.208 
L 385.369917 134.208 
L 388.649256 134.208 
L 391.928595 134.208 
L 395.207934 134.208 
L 398.487273 134.208 
" style="fill:none;stroke:#4c72b0;stroke-linecap:round;stroke-width:1.2;"/>
   </g>
   <g id="line2d_14">
    <path clip-path="url(#paaf2fd2e93)" d="M 73.832727 295.488 
L 77.112066 292.320323 
L 80.391405 289.152646 
L 83.670744 285.98497 
L 86.950083 282.817293 
L 90.229421 279.649616 
L 93.50876 276.481939 
L 96.788099 273.314263 
L 100.067438 270.146586 
L 103.346777 266.978909 
L 106.626116 263.811232 
L 109.905455 260.643556 
L 113.184793 257.475879 
L 116.464132 254.308202 
L 119.743471 251.140525 
L 123.02281 247.972848 
L 126.302149 244.805172 
L 129.581488 241.637495 
L 132.860826 238.469818 
L 136.140165 235.302141 
L 139.419504 232.134465 
L 142.698843 228.966788 
L 145.978182 225.799111 
L 149.257521 222.631434 
L 152.53686 219.463758 
L 155.816198 216.296081 
L 159.095537 213.128404 
L 162.374876 209.960727 
L 165.654215 206.793051 
L 168.933554 203.625374 
L 172.212893 200.457697 
L 175.492231 197.29002 
L 178.77157 194.122343 
L 182.050909 190.954667 
L 185.330248 187.78699 
L 188.609587 184.619313 
L 191.888926 181.451636 
L 195.168264 178.28396 
L 198.447603 175.116283 
L 201.726942 171.948606 
L 205.006281 168.780929 
L 208.28562 165.613253 
L 211.564959 162.445576 
L 214.844298 159.277899 
L 218.123636 156.110222 
L 221.402975 152.942545 
L 224.682314 149.774869 
L 227.961653 146.607192 
L 231.240992 143.439515 
L 234.520331 140.271838 
L 237.799669 137.104162 
L 241.079008 133.936485 
L 244.358347 130.768808 
L 247.637686 127.601131 
L 250.917025 124.433455 
L 254.196364 121.265778 
L 257.475702 118.098101 
L 260.755041 114.930424 
L 264.03438 111.762747 
L 267.313719 108.595071 
L 270.593058 107.328 
L 273.872397 107.328 
L 277.151736 107.328 
L 280.431074 107.328 
L 283.710413 107.328 
L 286.989752 107.328 
L 290.269091 107.328 
L 293.54843 107.328 
L 296.827769 107.328 
L 300.107107 107.328 
L 303.386446 107.328 
L 306.665785 107.328 
L 309.945124 107.328 
L 313.224463 107.328 
L 316.503802 107.328 
L 319.78314 107.328 
L 323.062479 107.328 
L 326.341818 107.328 
L 329.621157 107.328 
L 332.900496 107.328 
L 336.179835 107.328 
L 339.459174 107.328 
L 342.738512 107.328 
L 346.017851 107.328 
L 349.29719 107.328 
L 352.576529 107.328 
L 355.855868 107.328 
L 359.135207 107.328 
L 362.414545 107.328 
L 365.693884 107.328 
L 368.973223 107.328 
L 372.252562 107.328 
L 375.531901 107.328 
L 378.81124 107.328 
L 382.090579 107.328 
L 385.369917 107.328 
L 388.649256 107.328 
L 391.928595 107.328 
L 395.207934 107.328 
L 398.487273 107.328 
" style="fill:none;stroke:#dd8452;stroke-linecap:round;stroke-width:1.2;"/>
   </g>
   <g id="line2d_15">
    <path clip-path="url(#paaf2fd2e93)" d="M 73.832727 295.488 
L 77.112066 291.867798 
L 80.391405 288.247596 
L 83.670744 284.627394 
L 86.950083 281.007192 
L 90.229421 277.38699 
L 93.50876 273.766788 
L 96.788099 270.146586 
L 100.067438 266.526384 
L 103.346777 262.906182 
L 106.626116 259.28598 
L 109.905455 255.665778 
L 113.184793 252.045576 
L 116.464132 248.425374 
L 119.743471 244.805172 
L 123.02281 241.18497 
L 126.302149 237.564768 
L 129.581488 233.944566 
L 132.860826 230.324364 
L 136.140165 226.704162 
L 139.419504 223.08396 
L 142.698843 219.463758 
L 145.978182 215.843556 
L 149.257521 212.223354 
L 152.53686 208.603152 
L 155.816198 204.982949 
L 159.095537 201.362747 
L 162.374876 197.742545 
L 165.654215 194.122343 
L 168.933554 190.502141 
L 172.212893 186.881939 
L 175.492231 183.261737 
L 178.77157 179.641535 
L 182.050909 176.021333 
L 185.330248 172.401131 
L 188.609587 168.780929 
L 191.888926 165.160727 
L 195.168264 161.540525 
L 198.447603 157.920323 
L 201.726942 154.300121 
L 205.006281 150.679919 
L 208.28562 147.059717 
L 211.564959 143.439515 
L 214.844298 139.819313 
L 218.123636 136.199111 
L 221.402975 132.578909 
L 224.682314 128.958707 
L 227.961653 125.338505 
L 231.240992 121.718303 
L 234.520331 118.098101 
L 237.799669 114.477899 
L 241.079008 110.857697 
L 244.358347 107.237495 
L 247.637686 103.617293 
L 250.917025 99.997091 
L 254.196364 96.376889 
L 257.475702 92.756687 
L 260.755041 89.136485 
L 264.03438 85.516283 
L 267.313719 81.896081 
L 270.593058 80.448 
L 273.872397 80.448 
L 277.151736 80.448 
L 280.431074 80.448 
L 283.710413 80.448 
L 286.989752 80.448 
L 290.269091 80.448 
L 293.54843 80.448 
L 296.827769 80.448 
L 300.107107 80.448 
L 303.386446 80.448 
L 306.665785 80.448 
L 309.945124 80.448 
L 313.224463 80.448 
L 316.503802 80.448 
L 319.78314 80.448 
L 323.062479 80.448 
L 326.341818 80.448 
L 329.621157 80.448 
L 332.900496 80.448 
L 336.179835 80.448 
L 339.459174 80.448 
L 342.738512 80.448 
L 346.017851 80.448 
L 349.29719 80.448 
L 352.576529 80.448 
L 355.855868 80.448 
L 359.135207 80.448 
L 362.414545 80.448 
L 365.693884 80.448 
L 368.973223 80.448 
L 372.252562 80.448 
L 375.531901 80.448 
L 378.81124 80.448 
L 382.090579 80.448 
L 385.369917 80.448 
L 388.649256 80.448 
L 391.928595 80.448 
L 395.207934 80.448 
L 398.487273 80.448 
" style="fill:none;stroke:#55a868;stroke-linecap:round;stroke-width:1.2;"/>
   </g>
   <g id="line2d_16">
    <path clip-path="url(#paaf2fd2e93)" d="M 73.832727 295.488 
L 77.112066 291.415273 
L 80.391405 287.342545 
L 83.670744 283.269818 
L 86.950083 279.197091 
L 90.229421 275.124364 
L 93.50876 271.051636 
L 96.788099 266.978909 
L 100.067438 262.906182 
L 103.346777 258.833455 
L 106.626116 254.760727 
L 109.905455 250.688 
L 113.184793 246.615273 
L 116.464132 242.542545 
L 119.743471 238.469818 
L 123.02281 234.397091 
L 126.302149 230.324364 
L 129.581488 226.251636 
L 132.860826 222.178909 
L 136.140165 218.106182 
L 139.419504 214.033455 
L 142.698843 209.960727 
L 145.978182 205.888 
L 149.257521 201.815273 
L 152.53686 197.742545 
L 155.816198 193.669818 
L 159.095537 189.597091 
L 162.374876 185.524364 
L 165.654215 181.451636 
L 168.933554 177.378909 
L 172.212893 173.306182 
L 175.492231 169.233455 
L 178.77157 165.160727 
L 182.050909 161.088 
L 185.330248 157.015273 
L 188.609587 152.942545 
L 191.888926 148.869818 
L 195.168264 144.797091 
L 198.447603 140.724364 
L 201.726942 136.651636 
L 205.006281 132.578909 
L 208.28562 128.506182 
L 211.564959 124.433455 
L 214.844298 120.360727 
L 218.123636 116.288 
L 221.402975 112.215273 
L 224.682314 108.142545 
L 227.961653 104.069818 
L 231.240992 99.997091 
L 234.520331 95.924364 
L 237.799669 91.851636 
L 241.079008 87.778909 
L 244.358347 83.706182 
L 247.637686 79.633455 
L 250.917025 75.560727 
L 254.196364 71.488 
L 257.475702 67.415273 
L 260.755041 63.342545 
L 264.03438 59.269818 
L 267.313719 55.197091 
L 270.593058 53.568 
L 273.872397 53.568 
L 277.151736 53.568 
L 280.431074 53.568 
L 283.710413 53.568 
L 286.989752 53.568 
L 290.269091 53.568 
L 293.54843 53.568 
L 296.827769 53.568 
L 300.107107 53.568 
L 303.386446 53.568 
L 306.665785 53.568 
L 309.945124 53.568 
L 313.224463 53.568 
L 316.503802 53.568 
L 319.78314 53.568 
L 323.062479 53.568 
L 326.341818 53.568 
L 329.621157 53.568 
L 332.900496 53.568 
L 336.179835 53.568 
L 339.459174 53.568 
L 342.738512 53.568 
L 346.017851 53.568 
L 349.29719 53.568 
L 352.576529 53.568 
L 355.855868 53.568 
L 359.135207 53.568 
L 362.414545 53.568 
L 365.693884 53.568 
L 368.973223 53.568 
L 372.252562 53.568 
L 375.531901 53.568 
L 378.81124 53.568 
L 382.090579 53.568 
L 385.369917 53.568 
L 388.649256 53.568 
L 391.928595 53.568 
L 395.207934 53.568 
L 398.487273 53.568 
" style="fill:none;stroke:#c44e52;stroke-linecap:round;stroke-width:1.2;"/>
   </g>
   <g id="line2d_17">
    <path clip-path="url(#paaf2fd2e93)" d="M 268.625455 307.584 
L 268.625455 41.472 
" style="fill:none;stroke:#ff0000;stroke-dasharray:1.5,2.475;stroke-dashoffset:0;stroke-width:1.5;"/>
   </g>
   <g id="patch_3">
    <path d="M 57.6 307.584 
L 57.6 41.472 
" style="fill:none;stroke:#ffffff;stroke-linecap:square;stroke-linejoin:miter;"/>
   </g>
   <g id="patch_4">
    <path d="M 414.72 307.584 
L 414.72 41.472 
" style="fill:none;stroke:#ffffff;stroke-linecap:square;stroke-linejoin:miter;"/>
   </g>
   <g id="patch_5">
    <path d="M 57.6 307.584 
L 414.72 307.584 
" style="fill:none;stroke:#ffffff;stroke-linecap:square;stroke-linejoin:miter;"/>
   </g>
   <g id="patch_6">
    <path d="M 57.6 41.472 
L 414.72 41.472 
" style="fill:none;stroke:#ffffff;stroke-linecap:square;stroke-linejoin:miter;"/>
   </g>
   <g id="legend_1">
    <g id="patch_7">
     <path d="M 63.76 97.570851 
L 114.601546 97.570851 
Q 116.361546 97.570851 116.361546 95.810851 
L 116.361546 47.632 
Q 116.361546 45.872 114.601546 45.872 
L 63.76 45.872 
Q 62 45.872 62 47.632 
L 62 95.810851 
Q 62 97.570851 63.76 97.570851 
z
" style="fill:#eaeaf2;opacity:0.8;stroke:#cccccc;stroke-linejoin:miter;stroke-width:0.8;"/>
    </g>
    <g id="line2d_18">
     <path d="M 65.52 52.472 
L 83.12 52.472 
" style="fill:none;stroke:#4c72b0;stroke-linecap:round;stroke-width:1.2;"/>
    </g>
    <g id="line2d_19"/>
    <g id="text_15">
     <!-- $\mu = 6$ -->
     <defs>
      <path d="M 64.296875 32 
C 65.796875 32 67.296875 32 67.296875 33.6875 
C 67.296875 35.5 65.59375 35.5 63.90625 35.5 
L 8 35.5 
C 6.296875 35.5 4.59375 35.5 4.59375 33.6875 
C 4.59375 32 6.09375 32 7.59375 32 
z
M 63.90625 14.484375 
C 65.59375 14.484375 67.296875 14.484375 67.296875 16.296875 
C 67.296875 18 65.796875 18 64.296875 18 
L 7.59375 18 
C 6.09375 18 4.59375 18 4.59375 16.296875 
C 4.59375 14.484375 6.296875 14.484375 8 14.484375 
z
" id="CMR17-61"/>
      <path d="M 10.59375 34.34375 
C 10.59375 58 21.796875 63.6875 28.296875 63.6875 
C 30.40625 63.6875 35.5 63.265625 37.5 59.09375 
C 35.90625 59.09375 32.90625 59.09375 32.90625 55.59375 
C 32.90625 52.890625 35.09375 52 36.5 52 
C 37.40625 52 40.09375 52.390625 40.09375 55.796875 
C 40.09375 62.296875 35.09375 66 28.203125 66 
C 16.296875 66 3.796875 53.296875 3.796875 31.421875 
C 3.796875 4.015625 15.09375 -2 23.09375 -2 
C 32.796875 -2 42 6.734375 42 20.234375 
C 42 32.828125 33.90625 42 23.703125 42 
C 17.59375 42 13.09375 37.96875 10.59375 30.921875 
z
M 23.09375 0.390625 
C 10.796875 0.390625 10.796875 18.9375 10.796875 22.65625 
C 10.796875 29.90625 14.203125 40.390625 23.5 40.390625 
C 25.203125 40.390625 30.09375 40.390625 33.40625 33.4375 
C 35.203125 29.515625 35.203125 25.375 35.203125 20.34375 
C 35.203125 14.90625 35.203125 10.875 33.09375 6.84375 
C 30.90625 2.703125 27.703125 0.390625 23.09375 0.390625 
z
" id="CMR17-54"/>
     </defs>
     <g style="fill:#262626;" transform="translate(90.16 55.552)scale(0.088 -0.088)">
      <use transform="scale(0.996264)" xlink:href="#CMMI12-22"/>
      <use transform="translate(86.36543 0)scale(0.996264)" xlink:href="#CMR17-61"/>
      <use transform="translate(185.754227 0)scale(0.996264)" xlink:href="#CMR17-54"/>
     </g>
    </g>
    <g id="line2d_20">
     <path d="M 65.52 64.736713 
L 83.12 64.736713 
" style="fill:none;stroke:#dd8452;stroke-linecap:round;stroke-width:1.2;"/>
    </g>
    <g id="line2d_21"/>
    <g id="text_16">
     <!-- $\mu = 7$ -->
     <defs>
      <path d="M 45.09375 61.796875 
L 45.09375 64 
L 21.59375 64 
C 9.90625 64 9.703125 65.09375 9.296875 67 
L 7.5 67 
L 4.59375 48.5 
L 6.40625 48.5 
C 6.703125 50.40625 7.40625 55.5 8.59375 57.390625 
C 9.203125 58.1875 16.59375 58.1875 18.296875 58.1875 
L 40.296875 58.1875 
L 29.203125 41.71875 
C 21.796875 30.640625 16.703125 15.671875 16.703125 2.59375 
C 16.703125 1.390625 16.703125 -2 20.296875 -2 
C 23.90625 -2 23.90625 1.390625 23.90625 2.6875 
L 23.90625 7.28125 
C 23.90625 23.65625 26.703125 34.4375 31.296875 41.3125 
z
" id="CMR17-55"/>
     </defs>
     <g style="fill:#262626;" transform="translate(90.16 67.816713)scale(0.088 -0.088)">
      <use transform="scale(0.996264)" xlink:href="#CMMI12-22"/>
      <use transform="translate(86.36543 0)scale(0.996264)" xlink:href="#CMR17-61"/>
      <use transform="translate(185.754227 0)scale(0.996264)" xlink:href="#CMR17-55"/>
     </g>
    </g>
    <g id="line2d_22">
     <path d="M 65.52 77.001425 
L 83.12 77.001425 
" style="fill:none;stroke:#55a868;stroke-linecap:round;stroke-width:1.2;"/>
    </g>
    <g id="line2d_23"/>
    <g id="text_17">
     <!-- $\mu = 8$ -->
     <defs>
      <path d="M 27.203125 35.765625 
C 33.5 38.96875 39.90625 43.796875 39.90625 51.53125 
C 39.90625 60.6875 31.09375 66 23 66 
C 13.90625 66 5.90625 59.375 5.90625 50.234375 
C 5.90625 47.71875 6.5 43.390625 10.40625 39.578125 
C 11.40625 38.578125 15.59375 35.5625 18.296875 33.65625 
C 13.796875 31.34375 3.296875 25.8125 3.296875 14.765625 
C 3.296875 4.40625 13.09375 -2 22.796875 -2 
C 33.5 -2 42.5 5.71875 42.5 15.96875 
C 42.5 25.109375 36.40625 29.328125 32.40625 32.046875 
z
M 14.09375 44.609375 
C 13.296875 45.109375 9.296875 48.21875 9.296875 52.9375 
C 9.296875 59.078125 15.59375 63.6875 22.796875 63.6875 
C 30.703125 63.6875 36.5 58.0625 36.5 51.53125 
C 36.5 42.1875 26.09375 36.859375 25.59375 36.859375 
C 25.5 36.859375 25.40625 36.859375 24.59375 37.46875 
z
M 32.5 24 
C 34 22.90625 38.796875 19.578125 38.796875 13.453125 
C 38.796875 6.015625 31.40625 0.390625 23 0.390625 
C 13.90625 0.390625 7 6.921875 7 14.859375 
C 7 22.796875 13.09375 29.4375 20 32.546875 
z
" id="CMR17-56"/>
     </defs>
     <g style="fill:#262626;" transform="translate(90.16 80.081425)scale(0.088 -0.088)">
      <use transform="scale(0.996264)" xlink:href="#CMMI12-22"/>
      <use transform="translate(86.36543 0)scale(0.996264)" xlink:href="#CMR17-61"/>
      <use transform="translate(185.754227 0)scale(0.996264)" xlink:href="#CMR17-56"/>
     </g>
    </g>
    <g id="line2d_24">
     <path d="M 65.52 89.266138 
L 83.12 89.266138 
" style="fill:none;stroke:#c44e52;stroke-linecap:round;stroke-width:1.2;"/>
    </g>
    <g id="line2d_25"/>
    <g id="text_18">
     <!-- $\mu = 9$ -->
     <defs>
      <path d="M 35.203125 29.234375 
C 35.203125 7 26.09375 0.390625 18.59375 0.390625 
C 16.296875 0.390625 10.703125 0.671875 8.40625 4.390625 
C 11 4 12.90625 5.390625 12.90625 7.890625 
C 12.90625 10.59375 10.703125 11.5 9.296875 11.5 
C 8.40625 11.5 5.703125 11.09375 5.703125 7.6875 
C 5.703125 1.0625 11.59375 -2 18.796875 -2 
C 30.296875 -2 42 10.390625 42 32.65625 
C 42 60.265625 30.796875 66 23.203125 66 
C 13.296875 66 3.796875 57.25 3.796875 43.75 
C 3.796875 31.25 11.90625 22 22.09375 22 
C 30.5 22 34.203125 29.84375 35.203125 33.15625 
z
M 22.296875 23.59375 
C 19.59375 23.59375 15.796875 24.09375 12.703125 30.140625 
C 10.59375 34.078125 10.59375 38.703125 10.59375 43.640625 
C 10.59375 49.59375 10.59375 53.71875 13.40625 58.15625 
C 14.796875 60.265625 17.40625 63.6875 23.203125 63.6875 
C 35 63.6875 35 45.453125 35 41.421875 
C 35 34.265625 31.796875 23.59375 22.296875 23.59375 
z
" id="CMR17-57"/>
     </defs>
     <g style="fill:#262626;" transform="translate(90.16 92.346138)scale(0.088 -0.088)">
      <use transform="scale(0.996264)" xlink:href="#CMMI12-22"/>
      <use transform="translate(86.36543 0)scale(0.996264)" xlink:href="#CMR17-61"/>
      <use transform="translate(185.754227 0)scale(0.996264)" xlink:href="#CMR17-57"/>
     </g>
    </g>
   </g>
  </g>
 </g>
 <defs>
  <clipPath id="paaf2fd2e93">
   <rect height="266.112" width="357.12" x="57.6" y="41.472"/>
  </clipPath>
 </defs>
</svg>
