<?xml version="1.0" encoding="utf-8" standalone="no"?>
<!DOCTYPE svg PUBLIC "-//W3C//DTD SVG 1.1//EN"
  "http://www.w3.org/Graphics/SVG/1.1/DTD/svg11.dtd">
<svg xmlns:xlink="http://www.w3.org/1999/xlink" width="460.8pt" height="345.6pt" viewBox="0 0 460.8 345.6" xmlns="http://www.w3.org/2000/svg" version="1.1">
 <metadata>
  <rdf:RDF xmlns:dc="http://purl.org/dc/elements/1.1/" xmlns:cc="http://creativecommons.org/ns#" xmlns:rdf="http://www.w3.org/1999/02/22-rdf-syntax-ns#">
   <cc:Work>
    <dc:type rdf:resource="http://purl.org/dc/dcmitype/StillImage"/>
    <dc:date>2024-11-10T22:17:22.486954</dc:date>
    <dc:format>image/svg+xml</dc:format>
    <dc:creator>
     <cc:Agent>
      <dc:title>Matplotlib v3.8.4, https://matplotlib.org/</dc:title>
     </cc:Agent>
    </dc:creator>
   </cc:Work>
  </rdf:RDF>
 </metadata>
 <defs>
  <style type="text/css">*{stroke-linejoin: round; stroke-linecap: butt}</style>
 </defs>
 <g id="figure_1">
  <g id="patch_1">
   <path d="M 0 345.6 
L 460.8 345.6 
L 460.8 0 
L 0 0 
L 0 345.6 
z
" style="fill: none"/>
  </g>
  <g id="axes_1">
   <g id="patch_2">
    <path d="M 57.6 307.584 
L 414.72 307.584 
L 414.72 41.472 
L 57.6 41.472 
L 57.6 307.584 
z
" style="fill: none"/>
   </g>
   <g id="matplotlib.axis_1">
    <g id="xtick_1">
     <g id="line2d_1">
      <path d="M 73.832727 307.584 
L 73.832727 41.472 
" clip-path="url(#p549da302f9)" style="fill: none; stroke: #ffffff; stroke-width: 0.8; stroke-linecap: round"/>
     </g>
     <g id="text_1">
      <!-- $\mathdefault{0.00}$ -->
      <g style="fill: #262626" transform="translate(65.552552 321.972283) scale(0.088 -0.088)">
       <defs>
        <path id="CMR17-30" d="M 2688 2038 
C 2688 2430 2682 3099 2413 3613 
C 2176 4063 1798 4224 1466 4224 
C 1158 4224 768 4082 525 3620 
C 269 3137 243 2539 243 2038 
C 243 1671 250 1112 448 623 
C 723 -39 1216 -128 1466 -128 
C 1760 -128 2208 -7 2470 604 
C 2662 1048 2688 1568 2688 2038 
z
M 1466 -26 
C 1056 -26 813 328 723 816 
C 653 1196 653 1749 653 2109 
C 653 2604 653 3015 736 3407 
C 858 3954 1216 4121 1466 4121 
C 1728 4121 2067 3947 2189 3420 
C 2272 3054 2278 2623 2278 2109 
C 2278 1691 2278 1176 2202 797 
C 2067 96 1690 -26 1466 -26 
z
" transform="scale(0.015625)"/>
        <path id="CMMI12-3a" d="M 1178 307 
C 1178 492 1024 620 870 620 
C 685 620 557 467 557 313 
C 557 128 710 0 864 0 
C 1050 0 1178 153 1178 307 
z
" transform="scale(0.015625)"/>
       </defs>
       <use xlink:href="#CMR17-30" transform="scale(0.996264)"/>
       <use xlink:href="#CMMI12-3a" transform="translate(45.690477 0) scale(0.996264)"/>
       <use xlink:href="#CMR17-30" transform="translate(72.787654 0) scale(0.996264)"/>
       <use xlink:href="#CMR17-30" transform="translate(118.478131 0) scale(0.996264)"/>
      </g>
     </g>
    </g>
    <g id="xtick_2">
     <g id="line2d_2">
      <path d="M 114.414545 307.584 
L 114.414545 41.472 
" clip-path="url(#p549da302f9)" style="fill: none; stroke: #ffffff; stroke-width: 0.8; stroke-linecap: round"/>
     </g>
     <g id="text_2">
      <!-- $\mathdefault{0.25}$ -->
      <g style="fill: #262626" transform="translate(106.13437 321.972283) scale(0.088 -0.088)">
       <defs>
        <path id="CMR17-32" d="M 2669 990 
L 2554 990 
C 2490 537 2438 460 2413 422 
C 2381 371 1920 371 1830 371 
L 602 371 
C 832 620 1280 1073 1824 1596 
C 2214 1966 2669 2400 2669 3033 
C 2669 3788 2067 4224 1395 4224 
C 691 4224 262 3603 262 3027 
C 262 2777 448 2745 525 2745 
C 589 2745 781 2783 781 3007 
C 781 3206 614 3264 525 3264 
C 486 3264 448 3257 422 3244 
C 544 3788 915 4057 1306 4057 
C 1862 4057 2227 3616 2227 3033 
C 2227 2477 1901 1998 1536 1583 
L 262 147 
L 262 0 
L 2515 0 
L 2669 990 
z
" transform="scale(0.015625)"/>
        <path id="CMR17-35" d="M 730 3750 
C 794 3724 1056 3641 1325 3641 
C 1920 3641 2246 3961 2432 4140 
C 2432 4191 2432 4224 2394 4224 
C 2387 4224 2374 4224 2323 4198 
C 2099 4102 1837 4032 1517 4032 
C 1325 4032 1037 4055 723 4191 
C 653 4224 640 4224 634 4224 
C 602 4224 595 4217 595 4090 
L 595 2231 
C 595 2113 595 2080 659 2080 
C 691 2080 704 2093 736 2139 
C 941 2435 1222 2560 1542 2560 
C 1766 2560 2246 2415 2246 1293 
C 2246 1087 2246 716 2054 422 
C 1894 159 1645 25 1370 25 
C 947 25 518 319 403 812 
C 429 806 480 793 506 793 
C 589 793 749 838 749 1036 
C 749 1209 627 1280 506 1280 
C 358 1280 262 1190 262 1011 
C 262 454 704 -128 1382 -128 
C 2042 -128 2669 441 2669 1267 
C 2669 2054 2170 2662 1549 2662 
C 1222 2662 947 2540 730 2304 
L 730 3750 
z
" transform="scale(0.015625)"/>
       </defs>
       <use xlink:href="#CMR17-30" transform="scale(0.996264)"/>
       <use xlink:href="#CMMI12-3a" transform="translate(45.690477 0) scale(0.996264)"/>
       <use xlink:href="#CMR17-32" transform="translate(72.787654 0) scale(0.996264)"/>
       <use xlink:href="#CMR17-35" transform="translate(118.478131 0) scale(0.996264)"/>
      </g>
     </g>
    </g>
    <g id="xtick_3">
     <g id="line2d_3">
      <path d="M 154.996364 307.584 
L 154.996364 41.472 
" clip-path="url(#p549da302f9)" style="fill: none; stroke: #ffffff; stroke-width: 0.8; stroke-linecap: round"/>
     </g>
     <g id="text_3">
      <!-- $\mathdefault{0.50}$ -->
      <g style="fill: #262626" transform="translate(146.716188 321.972283) scale(0.088 -0.088)">
       <use xlink:href="#CMR17-30" transform="scale(0.996264)"/>
       <use xlink:href="#CMMI12-3a" transform="translate(45.690477 0) scale(0.996264)"/>
       <use xlink:href="#CMR17-35" transform="translate(72.787654 0) scale(0.996264)"/>
       <use xlink:href="#CMR17-30" transform="translate(118.478131 0) scale(0.996264)"/>
      </g>
     </g>
    </g>
    <g id="xtick_4">
     <g id="line2d_4">
      <path d="M 195.578182 307.584 
L 195.578182 41.472 
" clip-path="url(#p549da302f9)" style="fill: none; stroke: #ffffff; stroke-width: 0.8; stroke-linecap: round"/>
     </g>
     <g id="text_4">
      <!-- $\mathdefault{0.75}$ -->
      <g style="fill: #262626" transform="translate(187.298007 321.972283) scale(0.088 -0.088)">
       <defs>
        <path id="CMR17-37" d="M 2886 3955 
L 2886 4096 
L 1382 4096 
C 634 4096 621 4166 595 4288 
L 480 4288 
L 294 3104 
L 410 3104 
C 429 3226 474 3552 550 3673 
C 589 3724 1062 3724 1171 3724 
L 2579 3724 
L 1869 2670 
C 1395 1961 1069 1003 1069 166 
C 1069 89 1069 -128 1299 -128 
C 1530 -128 1530 89 1530 172 
L 1530 466 
C 1530 1514 1709 2204 2003 2644 
L 2886 3955 
z
" transform="scale(0.015625)"/>
       </defs>
       <use xlink:href="#CMR17-30" transform="scale(0.996264)"/>
       <use xlink:href="#CMMI12-3a" transform="translate(45.690477 0) scale(0.996264)"/>
       <use xlink:href="#CMR17-37" transform="translate(72.787654 0) scale(0.996264)"/>
       <use xlink:href="#CMR17-35" transform="translate(118.478131 0) scale(0.996264)"/>
      </g>
     </g>
    </g>
    <g id="xtick_5">
     <g id="line2d_5">
      <path d="M 236.16 307.584 
L 236.16 41.472 
" clip-path="url(#p549da302f9)" style="fill: none; stroke: #ffffff; stroke-width: 0.8; stroke-linecap: round"/>
     </g>
     <g id="text_5">
      <!-- $\mathdefault{1.00}$ -->
      <g style="fill: #262626" transform="translate(227.879825 321.972283) scale(0.088 -0.088)">
       <defs>
        <path id="CMR17-31" d="M 1702 4083 
C 1702 4217 1696 4224 1606 4224 
C 1357 3927 979 3833 621 3820 
C 602 3820 570 3820 563 3808 
C 557 3795 557 3782 557 3648 
C 755 3648 1088 3686 1344 3839 
L 1344 467 
C 1344 243 1331 166 781 166 
L 589 166 
L 589 0 
C 896 6 1216 12 1523 12 
C 1830 12 2150 6 2458 0 
L 2458 166 
L 2266 166 
C 1715 166 1702 236 1702 467 
L 1702 4083 
z
" transform="scale(0.015625)"/>
       </defs>
       <use xlink:href="#CMR17-31" transform="scale(0.996264)"/>
       <use xlink:href="#CMMI12-3a" transform="translate(45.690477 0) scale(0.996264)"/>
       <use xlink:href="#CMR17-30" transform="translate(72.787654 0) scale(0.996264)"/>
       <use xlink:href="#CMR17-30" transform="translate(118.478131 0) scale(0.996264)"/>
      </g>
     </g>
    </g>
    <g id="xtick_6">
     <g id="line2d_6">
      <path d="M 276.741818 307.584 
L 276.741818 41.472 
" clip-path="url(#p549da302f9)" style="fill: none; stroke: #ffffff; stroke-width: 0.8; stroke-linecap: round"/>
     </g>
     <g id="text_6">
      <!-- $\mathdefault{1.25}$ -->
      <g style="fill: #262626" transform="translate(268.461643 321.972283) scale(0.088 -0.088)">
       <use xlink:href="#CMR17-31" transform="scale(0.996264)"/>
       <use xlink:href="#CMMI12-3a" transform="translate(45.690477 0) scale(0.996264)"/>
       <use xlink:href="#CMR17-32" transform="translate(72.787654 0) scale(0.996264)"/>
       <use xlink:href="#CMR17-35" transform="translate(118.478131 0) scale(0.996264)"/>
      </g>
     </g>
    </g>
    <g id="xtick_7">
     <g id="line2d_7">
      <path d="M 317.323636 307.584 
L 317.323636 41.472 
" clip-path="url(#p549da302f9)" style="fill: none; stroke: #ffffff; stroke-width: 0.8; stroke-linecap: round"/>
     </g>
     <g id="text_7">
      <!-- $\mathdefault{1.50}$ -->
      <g style="fill: #262626" transform="translate(309.043461 321.972283) scale(0.088 -0.088)">
       <use xlink:href="#CMR17-31" transform="scale(0.996264)"/>
       <use xlink:href="#CMMI12-3a" transform="translate(45.690477 0) scale(0.996264)"/>
       <use xlink:href="#CMR17-35" transform="translate(72.787654 0) scale(0.996264)"/>
       <use xlink:href="#CMR17-30" transform="translate(118.478131 0) scale(0.996264)"/>
      </g>
     </g>
    </g>
    <g id="xtick_8">
     <g id="line2d_8">
      <path d="M 357.905455 307.584 
L 357.905455 41.472 
" clip-path="url(#p549da302f9)" style="fill: none; stroke: #ffffff; stroke-width: 0.8; stroke-linecap: round"/>
     </g>
     <g id="text_8">
      <!-- $\mathdefault{1.75}$ -->
      <g style="fill: #262626" transform="translate(349.625279 321.972283) scale(0.088 -0.088)">
       <use xlink:href="#CMR17-31" transform="scale(0.996264)"/>
       <use xlink:href="#CMMI12-3a" transform="translate(45.690477 0) scale(0.996264)"/>
       <use xlink:href="#CMR17-37" transform="translate(72.787654 0) scale(0.996264)"/>
       <use xlink:href="#CMR17-35" transform="translate(118.478131 0) scale(0.996264)"/>
      </g>
     </g>
    </g>
    <g id="xtick_9">
     <g id="line2d_9">
      <path d="M 398.487273 307.584 
L 398.487273 41.472 
" clip-path="url(#p549da302f9)" style="fill: none; stroke: #ffffff; stroke-width: 0.8; stroke-linecap: round"/>
     </g>
     <g id="text_9">
      <!-- $\mathdefault{2.00}$ -->
      <g style="fill: #262626" transform="translate(390.207097 321.972283) scale(0.088 -0.088)">
       <use xlink:href="#CMR17-32" transform="scale(0.996264)"/>
       <use xlink:href="#CMMI12-3a" transform="translate(45.690477 0) scale(0.996264)"/>
       <use xlink:href="#CMR17-30" transform="translate(72.787654 0) scale(0.996264)"/>
       <use xlink:href="#CMR17-30" transform="translate(118.478131 0) scale(0.996264)"/>
      </g>
     </g>
    </g>
    <g id="text_10">
     <!-- time -->
     <g style="fill: #262626" transform="translate(227.123589 334.318761) scale(0.096 -0.096)">
      <defs>
       <path id="CMSS17-74" d="M 1069 2380 
L 1901 2380 
L 1901 2752 
L 1069 2752 
L 1069 3520 
L 614 3520 
L 614 2752 
L 109 2752 
L 109 2380 
L 602 2380 
L 602 751 
C 602 384 685 -64 1107 -64 
C 1427 -64 1722 25 2003 172 
L 1901 551 
C 1747 416 1562 339 1363 339 
C 1082 339 1069 699 1069 860 
L 1069 2380 
z
" transform="scale(0.015625)"/>
       <path id="CMSS17-69" d="M 979 4224 
L 442 4224 
L 442 3686 
L 979 3686 
L 979 4224 
z
M 947 2752 
L 474 2752 
L 474 0 
L 947 0 
L 947 2752 
z
" transform="scale(0.015625)"/>
       <path id="CMSS17-6d" d="M 4288 1878 
C 4288 2309 4179 2816 3462 2816 
C 2982 2816 2694 2515 2566 2328 
C 2451 2668 2182 2816 1798 2816 
C 1363 2816 1088 2566 941 2386 
L 941 2783 
L 474 2783 
L 474 0 
L 960 0 
L 960 1556 
C 960 1936 1101 2425 1555 2425 
C 2138 2425 2138 2013 2138 1826 
L 2138 0 
L 2624 0 
L 2624 1556 
C 2624 1936 2765 2425 3219 2425 
C 3802 2425 3802 2013 3802 1826 
L 3802 0 
L 4288 0 
L 4288 1878 
z
" transform="scale(0.015625)"/>
       <path id="CMSS17-65" d="M 2502 1375 
C 2502 1587 2490 2001 2285 2347 
C 2061 2713 1696 2816 1421 2816 
C 755 2816 192 2184 192 1363 
C 192 579 774 -64 1510 -64 
C 1798 -64 2150 19 2470 249 
C 2470 275 2458 414 2451 421 
C 2451 433 2432 629 2432 655 
C 2125 408 1773 326 1517 326 
C 1107 326 666 667 646 1375 
L 2502 1375 
z
M 698 1728 
C 781 2086 1062 2425 1421 2425 
C 1517 2425 1965 2412 2080 1728 
L 698 1728 
z
" transform="scale(0.015625)"/>
      </defs>
      <use xlink:href="#CMSS17-74" transform="scale(0.996264)"/>
      <use xlink:href="#CMSS17-69" transform="translate(33.831567 0) scale(0.996264)"/>
      <use xlink:href="#CMSS17-6d" transform="translate(56.01229 0) scale(0.996264)"/>
      <use xlink:href="#CMSS17-65" transform="translate(130.241544 0) scale(0.996264)"/>
     </g>
    </g>
   </g>
   <g id="matplotlib.axis_2">
    <g id="ytick_1">
     <g id="line2d_10">
      <path d="M 57.6 307.584 
L 414.72 307.584 
" clip-path="url(#p549da302f9)" style="fill: none; stroke: #ffffff; stroke-width: 0.8; stroke-linecap: round"/>
     </g>
     <g id="text_11">
      <!-- $\mathdefault{0.0}$ -->
      <g style="fill: #262626" transform="translate(37.397248 310.628142) scale(0.088 -0.088)">
       <use xlink:href="#CMR17-30" transform="scale(0.996264)"/>
       <use xlink:href="#CMMI12-3a" transform="translate(45.690477 0) scale(0.996264)"/>
       <use xlink:href="#CMR17-30" transform="translate(72.787654 0) scale(0.996264)"/>
      </g>
     </g>
    </g>
    <g id="ytick_2">
     <g id="line2d_11">
      <path d="M 57.6 275.904 
L 414.72 275.904 
" clip-path="url(#p549da302f9)" style="fill: none; stroke: #ffffff; stroke-width: 0.8; stroke-linecap: round"/>
     </g>
     <g id="text_12">
      <!-- $\mathdefault{2.5}$ -->
      <g style="fill: #262626" transform="translate(37.397248 278.948142) scale(0.088 -0.088)">
       <use xlink:href="#CMR17-32" transform="scale(0.996264)"/>
       <use xlink:href="#CMMI12-3a" transform="translate(45.690477 0) scale(0.996264)"/>
       <use xlink:href="#CMR17-35" transform="translate(72.787654 0) scale(0.996264)"/>
      </g>
     </g>
    </g>
    <g id="ytick_3">
     <g id="line2d_12">
      <path d="M 57.6 244.224 
L 414.72 244.224 
" clip-path="url(#p549da302f9)" style="fill: none; stroke: #ffffff; stroke-width: 0.8; stroke-linecap: round"/>
     </g>
     <g id="text_13">
      <!-- $\mathdefault{5.0}$ -->
      <g style="fill: #262626" transform="translate(37.397248 247.268142) scale(0.088 -0.088)">
       <use xlink:href="#CMR17-35" transform="scale(0.996264)"/>
       <use xlink:href="#CMMI12-3a" transform="translate(45.690477 0) scale(0.996264)"/>
       <use xlink:href="#CMR17-30" transform="translate(72.787654 0) scale(0.996264)"/>
      </g>
     </g>
    </g>
    <g id="ytick_4">
     <g id="line2d_13">
      <path d="M 57.6 212.544 
L 414.72 212.544 
" clip-path="url(#p549da302f9)" style="fill: none; stroke: #ffffff; stroke-width: 0.8; stroke-linecap: round"/>
     </g>
     <g id="text_14">
      <!-- $\mathdefault{7.5}$ -->
      <g style="fill: #262626" transform="translate(37.397248 215.588142) scale(0.088 -0.088)">
       <use xlink:href="#CMR17-37" transform="scale(0.996264)"/>
       <use xlink:href="#CMMI12-3a" transform="translate(45.690477 0) scale(0.996264)"/>
       <use xlink:href="#CMR17-35" transform="translate(72.787654 0) scale(0.996264)"/>
      </g>
     </g>
    </g>
    <g id="ytick_5">
     <g id="line2d_14">
      <path d="M 57.6 180.864 
L 414.72 180.864 
" clip-path="url(#p549da302f9)" style="fill: none; stroke: #ffffff; stroke-width: 0.8; stroke-linecap: round"/>
     </g>
     <g id="text_15">
      <!-- $\mathdefault{10.0}$ -->
      <g style="fill: #262626" transform="translate(32.73965 183.908142) scale(0.088 -0.088)">
       <use xlink:href="#CMR17-31" transform="scale(0.996264)"/>
       <use xlink:href="#CMR17-30" transform="translate(45.690477 0) scale(0.996264)"/>
       <use xlink:href="#CMMI12-3a" transform="translate(91.380954 0) scale(0.996264)"/>
       <use xlink:href="#CMR17-30" transform="translate(118.478131 0) scale(0.996264)"/>
      </g>
     </g>
    </g>
    <g id="ytick_6">
     <g id="line2d_15">
      <path d="M 57.6 149.184 
L 414.72 149.184 
" clip-path="url(#p549da302f9)" style="fill: none; stroke: #ffffff; stroke-width: 0.8; stroke-linecap: round"/>
     </g>
     <g id="text_16">
      <!-- $\mathdefault{12.5}$ -->
      <g style="fill: #262626" transform="translate(32.73965 152.228142) scale(0.088 -0.088)">
       <use xlink:href="#CMR17-31" transform="scale(0.996264)"/>
       <use xlink:href="#CMR17-32" transform="translate(45.690477 0) scale(0.996264)"/>
       <use xlink:href="#CMMI12-3a" transform="translate(91.380954 0) scale(0.996264)"/>
       <use xlink:href="#CMR17-35" transform="translate(118.478131 0) scale(0.996264)"/>
      </g>
     </g>
    </g>
    <g id="ytick_7">
     <g id="line2d_16">
      <path d="M 57.6 117.504 
L 414.72 117.504 
" clip-path="url(#p549da302f9)" style="fill: none; stroke: #ffffff; stroke-width: 0.8; stroke-linecap: round"/>
     </g>
     <g id="text_17">
      <!-- $\mathdefault{15.0}$ -->
      <g style="fill: #262626" transform="translate(32.73965 120.548142) scale(0.088 -0.088)">
       <use xlink:href="#CMR17-31" transform="scale(0.996264)"/>
       <use xlink:href="#CMR17-35" transform="translate(45.690477 0) scale(0.996264)"/>
       <use xlink:href="#CMMI12-3a" transform="translate(91.380954 0) scale(0.996264)"/>
       <use xlink:href="#CMR17-30" transform="translate(118.478131 0) scale(0.996264)"/>
      </g>
     </g>
    </g>
    <g id="ytick_8">
     <g id="line2d_17">
      <path d="M 57.6 85.824 
L 414.72 85.824 
" clip-path="url(#p549da302f9)" style="fill: none; stroke: #ffffff; stroke-width: 0.8; stroke-linecap: round"/>
     </g>
     <g id="text_18">
      <!-- $\mathdefault{17.5}$ -->
      <g style="fill: #262626" transform="translate(32.73965 88.868142) scale(0.088 -0.088)">
       <use xlink:href="#CMR17-31" transform="scale(0.996264)"/>
       <use xlink:href="#CMR17-37" transform="translate(45.690477 0) scale(0.996264)"/>
       <use xlink:href="#CMMI12-3a" transform="translate(91.380954 0) scale(0.996264)"/>
       <use xlink:href="#CMR17-35" transform="translate(118.478131 0) scale(0.996264)"/>
      </g>
     </g>
    </g>
    <g id="ytick_9">
     <g id="line2d_18">
      <path d="M 57.6 54.144 
L 414.72 54.144 
" clip-path="url(#p549da302f9)" style="fill: none; stroke: #ffffff; stroke-width: 0.8; stroke-linecap: round"/>
     </g>
     <g id="text_19">
      <!-- $\mathdefault{20.0}$ -->
      <g style="fill: #262626" transform="translate(32.73965 57.188142) scale(0.088 -0.088)">
       <use xlink:href="#CMR17-32" transform="scale(0.996264)"/>
       <use xlink:href="#CMR17-30" transform="translate(45.690477 0) scale(0.996264)"/>
       <use xlink:href="#CMMI12-3a" transform="translate(91.380954 0) scale(0.996264)"/>
       <use xlink:href="#CMR17-30" transform="translate(118.478131 0) scale(0.996264)"/>
      </g>
     </g>
    </g>
    <g id="text_20">
     <!-- $f_T(t)$ -->
     <g style="fill: #262626" transform="translate(17.517815 172.136972) scale(0.096 -0.096)">
      <defs>
       <path id="CMMI12-66" d="M 2854 2566 
C 2982 2566 3034 2566 3034 2687 
C 3034 2752 2982 2752 2867 2752 
L 2349 2752 
C 2470 3398 2560 3846 2611 4051 
C 2650 4204 2784 4351 2950 4351 
C 3085 4351 3219 4294 3283 4236 
C 3034 4211 2957 4025 2957 3916 
C 2957 3788 3053 3712 3174 3712 
C 3302 3712 3494 3820 3494 4064 
C 3494 4332 3226 4480 2944 4480 
C 2669 4480 2400 4275 2272 4025 
C 2157 3801 2093 3573 1946 2752 
L 1517 2752 
C 1395 2752 1331 2752 1331 2636 
C 1331 2566 1370 2566 1498 2566 
L 1907 2566 
C 1792 1977 1530 545 1382 -132 
C 1274 -685 1178 -1152 858 -1152 
C 838 -1152 653 -1152 538 -1031 
C 864 -1005 864 -724 864 -717 
C 864 -589 768 -512 646 -512 
C 518 -512 326 -621 326 -865 
C 326 -1140 608 -1280 858 -1280 
C 1510 -1280 1779 -113 1850 203 
C 1965 691 2278 2376 2310 2566 
L 2854 2566 
z
" transform="scale(0.015625)"/>
       <path id="CMMI12-54" d="M 2669 3886 
C 2707 4038 2720 4096 2816 4121 
C 2867 4134 3078 4134 3213 4134 
C 3853 4134 4154 4109 4154 3612 
C 4154 3516 4128 3274 4090 3038 
L 4083 2962 
C 4083 2937 4109 2898 4147 2898 
C 4211 2898 4211 2930 4230 3032 
L 4416 4159 
C 4429 4217 4429 4230 4429 4249 
C 4429 4319 4390 4319 4262 4319 
L 762 4319 
C 614 4319 608 4313 570 4198 
L 179 3051 
C 173 3038 154 2968 154 2962 
C 154 2930 179 2898 218 2898 
C 269 2898 282 2924 307 3007 
C 576 3777 710 4134 1562 4134 
L 1990 4134 
C 2144 4134 2208 4134 2208 4064 
C 2208 4045 2208 4032 2176 3917 
L 1318 497 
C 1254 249 1242 185 563 185 
C 403 185 358 185 358 64 
C 358 0 429 0 461 0 
C 621 0 787 12 947 12 
L 1946 12 
C 2106 12 2278 0 2438 0 
C 2509 0 2573 0 2573 121 
C 2573 185 2528 185 2362 185 
C 1786 185 1786 242 1786 338 
C 1786 344 1786 389 1811 491 
L 2669 3886 
z
" transform="scale(0.015625)"/>
       <path id="CMR17-28" d="M 1958 -1562 
C 1958 -1556 1958 -1543 1939 -1524 
C 1645 -1223 858 -403 858 1596 
C 858 3595 1632 4408 1946 4729 
C 1946 4735 1958 4748 1958 4767 
C 1958 4787 1939 4800 1914 4800 
C 1843 4800 1299 4325 986 3620 
C 666 2909 576 2218 576 1603 
C 576 1141 621 360 1005 -467 
C 1312 -1133 1837 -1600 1914 -1600 
C 1946 -1600 1958 -1588 1958 -1562 
z
" transform="scale(0.015625)"/>
       <path id="CMMI12-74" d="M 1286 2566 
L 1875 2566 
C 1997 2566 2061 2566 2061 2681 
C 2061 2752 2022 2752 1894 2752 
L 1331 2752 
L 1568 3664 
C 1594 3752 1594 3764 1594 3808 
C 1594 3910 1510 3968 1427 3968 
C 1376 3968 1229 3948 1178 3746 
L 928 2752 
L 326 2752 
C 198 2752 141 2752 141 2630 
C 141 2566 186 2566 307 2566 
L 877 2566 
L 454 881 
C 403 657 384 593 384 510 
C 384 210 595 -64 954 -64 
C 1600 -64 1946 868 1946 913 
C 1946 951 1920 970 1882 970 
C 1869 970 1843 970 1830 944 
C 1824 938 1818 932 1773 830 
C 1638 510 1344 64 973 64 
C 781 64 768 223 768 364 
C 768 370 768 491 787 568 
L 1286 2566 
z
" transform="scale(0.015625)"/>
       <path id="CMR17-29" d="M 1683 1596 
C 1683 2057 1638 2839 1254 3665 
C 947 4332 422 4800 346 4800 
C 326 4800 301 4793 301 4761 
C 301 4748 307 4742 314 4729 
C 621 4408 1402 3595 1402 1603 
C 1402 -396 627 -1210 314 -1530 
C 307 -1543 301 -1549 301 -1562 
C 301 -1594 326 -1600 346 -1600 
C 416 -1600 960 -1127 1274 -422 
C 1594 289 1683 981 1683 1596 
z
" transform="scale(0.015625)"/>
      </defs>
      <use xlink:href="#CMMI12-66" transform="scale(0.996264)"/>
      <use xlink:href="#CMMI12-54" transform="translate(48.083238 -14.943915) scale(0.697382)"/>
      <use xlink:href="#CMR17-28" transform="translate(98.087692 0) scale(0.996264)"/>
      <use xlink:href="#CMMI12-74" transform="translate(133.36846 0) scale(0.996264)"/>
      <use xlink:href="#CMR17-29" transform="translate(168.59479 0) scale(0.996264)"/>
     </g>
    </g>
   </g>
   <g id="patch_3">
    <path d="M 73.995055 307.584 
L 75.788573 307.584 
L 75.788573 58.331538 
L 73.995055 58.331538 
z
" clip-path="url(#p549da302f9)" style="fill: #fa8072; stroke: #d2b48c; stroke-width: 0.5; stroke-linejoin: miter"/>
   </g>
   <g id="patch_4">
    <path d="M 75.788573 307.584 
L 77.582091 307.584 
L 77.582091 131.236319 
L 75.788573 131.236319 
z
" clip-path="url(#p549da302f9)" style="fill: #fa8072; stroke: #d2b48c; stroke-width: 0.5; stroke-linejoin: miter"/>
   </g>
   <g id="patch_5">
    <path d="M 77.582091 307.584 
L 79.37561 307.584 
L 79.37561 163.196138 
L 77.582091 163.196138 
z
" clip-path="url(#p549da302f9)" style="fill: #fa8072; stroke: #d2b48c; stroke-width: 0.5; stroke-linejoin: miter"/>
   </g>
   <g id="patch_6">
    <path d="M 79.37561 307.584 
L 81.169128 307.584 
L 81.169128 195.89524 
L 79.37561 195.89524 
z
" clip-path="url(#p549da302f9)" style="fill: #fa8072; stroke: #d2b48c; stroke-width: 0.5; stroke-linejoin: miter"/>
   </g>
   <g id="patch_7">
    <path d="M 81.169128 307.584 
L 82.962647 307.584 
L 82.962647 213.979265 
L 81.169128 213.979265 
z
" clip-path="url(#p549da302f9)" style="fill: #fa8072; stroke: #d2b48c; stroke-width: 0.5; stroke-linejoin: miter"/>
   </g>
   <g id="patch_8">
    <path d="M 82.962647 307.584 
L 84.756165 307.584 
L 84.756165 229.276758 
L 82.962647 229.276758 
z
" clip-path="url(#p549da302f9)" style="fill: #fa8072; stroke: #d2b48c; stroke-width: 0.5; stroke-linejoin: miter"/>
   </g>
   <g id="patch_9">
    <path d="M 84.756165 307.584 
L 86.549683 307.584 
L 86.549683 243.323155 
L 84.756165 243.323155 
z
" clip-path="url(#p549da302f9)" style="fill: #fa8072; stroke: #d2b48c; stroke-width: 0.5; stroke-linejoin: miter"/>
   </g>
   <g id="patch_10">
    <path d="M 86.549683 307.584 
L 88.343202 307.584 
L 88.343202 262.317069 
L 86.549683 262.317069 
z
" clip-path="url(#p549da302f9)" style="fill: #fa8072; stroke: #d2b48c; stroke-width: 0.5; stroke-linejoin: miter"/>
   </g>
   <g id="patch_11">
    <path d="M 88.343202 307.584 
L 90.13672 307.584 
L 90.13672 270.506061 
L 88.343202 270.506061 
z
" clip-path="url(#p549da302f9)" style="fill: #fa8072; stroke: #d2b48c; stroke-width: 0.5; stroke-linejoin: miter"/>
   </g>
   <g id="patch_12">
    <path d="M 90.13672 307.584 
L 91.930239 307.584 
L 91.930239 277.898902 
L 90.13672 277.898902 
z
" clip-path="url(#p549da302f9)" style="fill: #fa8072; stroke: #d2b48c; stroke-width: 0.5; stroke-linejoin: miter"/>
   </g>
   <g id="patch_13">
    <path d="M 91.930239 307.584 
L 93.723757 307.584 
L 93.723757 283.471966 
L 91.930239 283.471966 
z
" clip-path="url(#p549da302f9)" style="fill: #fa8072; stroke: #d2b48c; stroke-width: 0.5; stroke-linejoin: miter"/>
   </g>
   <g id="patch_14">
    <path d="M 93.723757 307.584 
L 95.517275 307.584 
L 95.517275 288.874427 
L 93.723757 288.874427 
z
" clip-path="url(#p549da302f9)" style="fill: #fa8072; stroke: #d2b48c; stroke-width: 0.5; stroke-linejoin: miter"/>
   </g>
   <g id="patch_15">
    <path d="M 95.517275 307.584 
L 97.310794 307.584 
L 97.310794 293.196395 
L 95.517275 293.196395 
z
" clip-path="url(#p549da302f9)" style="fill: #fa8072; stroke: #d2b48c; stroke-width: 0.5; stroke-linejoin: miter"/>
   </g>
   <g id="patch_16">
    <path d="M 97.310794 307.584 
L 99.104312 307.584 
L 99.104312 295.471115 
L 97.310794 295.471115 
z
" clip-path="url(#p549da302f9)" style="fill: #fa8072; stroke: #d2b48c; stroke-width: 0.5; stroke-linejoin: miter"/>
   </g>
   <g id="patch_17">
    <path d="M 99.104312 307.584 
L 100.897831 307.584 
L 100.897831 299.053799 
L 99.104312 299.053799 
z
" clip-path="url(#p549da302f9)" style="fill: #fa8072; stroke: #d2b48c; stroke-width: 0.5; stroke-linejoin: miter"/>
   </g>
   <g id="patch_18">
    <path d="M 100.897831 307.584 
L 102.691349 307.584 
L 102.691349 300.304895 
L 100.897831 300.304895 
z
" clip-path="url(#p549da302f9)" style="fill: #fa8072; stroke: #d2b48c; stroke-width: 0.5; stroke-linejoin: miter"/>
   </g>
   <g id="patch_19">
    <path d="M 102.691349 307.584 
L 104.484867 307.584 
L 104.484867 300.646103 
L 102.691349 300.646103 
z
" clip-path="url(#p549da302f9)" style="fill: #fa8072; stroke: #d2b48c; stroke-width: 0.5; stroke-linejoin: miter"/>
   </g>
   <g id="patch_20">
    <path d="M 104.484867 307.584 
L 106.278386 307.584 
L 106.278386 302.352144 
L 104.484867 302.352144 
z
" clip-path="url(#p549da302f9)" style="fill: #fa8072; stroke: #d2b48c; stroke-width: 0.5; stroke-linejoin: miter"/>
   </g>
   <g id="patch_21">
    <path d="M 106.278386 307.584 
L 108.071904 307.584 
L 108.071904 303.546372 
L 106.278386 303.546372 
z
" clip-path="url(#p549da302f9)" style="fill: #fa8072; stroke: #d2b48c; stroke-width: 0.5; stroke-linejoin: miter"/>
   </g>
   <g id="patch_22">
    <path d="M 108.071904 307.584 
L 109.865423 307.584 
L 109.865423 304.569996 
L 108.071904 304.569996 
z
" clip-path="url(#p549da302f9)" style="fill: #fa8072; stroke: #d2b48c; stroke-width: 0.5; stroke-linejoin: miter"/>
   </g>
   <g id="patch_23">
    <path d="M 109.865423 307.584 
L 111.658941 307.584 
L 111.658941 305.138676 
L 109.865423 305.138676 
z
" clip-path="url(#p549da302f9)" style="fill: #fa8072; stroke: #d2b48c; stroke-width: 0.5; stroke-linejoin: miter"/>
   </g>
   <g id="patch_24">
    <path d="M 111.658941 307.584 
L 113.452459 307.584 
L 113.452459 305.423016 
L 111.658941 305.423016 
z
" clip-path="url(#p549da302f9)" style="fill: #fa8072; stroke: #d2b48c; stroke-width: 0.5; stroke-linejoin: miter"/>
   </g>
   <g id="patch_25">
    <path d="M 113.452459 307.584 
L 115.245978 307.584 
L 115.245978 306.048564 
L 113.452459 306.048564 
z
" clip-path="url(#p549da302f9)" style="fill: #fa8072; stroke: #d2b48c; stroke-width: 0.5; stroke-linejoin: miter"/>
   </g>
   <g id="patch_26">
    <path d="M 115.245978 307.584 
L 117.039496 307.584 
L 117.039496 306.332904 
L 115.245978 306.332904 
z
" clip-path="url(#p549da302f9)" style="fill: #fa8072; stroke: #d2b48c; stroke-width: 0.5; stroke-linejoin: miter"/>
   </g>
   <g id="patch_27">
    <path d="M 117.039496 307.584 
L 118.833015 307.584 
L 118.833015 306.674112 
L 117.039496 306.674112 
z
" clip-path="url(#p549da302f9)" style="fill: #fa8072; stroke: #d2b48c; stroke-width: 0.5; stroke-linejoin: miter"/>
   </g>
   <g id="patch_28">
    <path d="M 118.833015 307.584 
L 120.626533 307.584 
L 120.626533 306.73098 
L 118.833015 306.73098 
z
" clip-path="url(#p549da302f9)" style="fill: #fa8072; stroke: #d2b48c; stroke-width: 0.5; stroke-linejoin: miter"/>
   </g>
   <g id="patch_29">
    <path d="M 120.626533 307.584 
L 122.420051 307.584 
L 122.420051 306.844716 
L 120.626533 306.844716 
z
" clip-path="url(#p549da302f9)" style="fill: #fa8072; stroke: #d2b48c; stroke-width: 0.5; stroke-linejoin: miter"/>
   </g>
   <g id="patch_30">
    <path d="M 122.420051 307.584 
L 124.21357 307.584 
L 124.21357 307.129056 
L 122.420051 307.129056 
z
" clip-path="url(#p549da302f9)" style="fill: #fa8072; stroke: #d2b48c; stroke-width: 0.5; stroke-linejoin: miter"/>
   </g>
   <g id="patch_31">
    <path d="M 124.21357 307.584 
L 126.007088 307.584 
L 126.007088 307.356528 
L 124.21357 307.356528 
z
" clip-path="url(#p549da302f9)" style="fill: #fa8072; stroke: #d2b48c; stroke-width: 0.5; stroke-linejoin: miter"/>
   </g>
   <g id="patch_32">
    <path d="M 126.007088 307.584 
L 127.800607 307.584 
L 127.800607 307.242792 
L 126.007088 307.242792 
z
" clip-path="url(#p549da302f9)" style="fill: #fa8072; stroke: #d2b48c; stroke-width: 0.5; stroke-linejoin: miter"/>
   </g>
   <g id="patch_33">
    <path d="M 127.800607 307.584 
L 129.594125 307.584 
L 129.594125 307.185924 
L 127.800607 307.185924 
z
" clip-path="url(#p549da302f9)" style="fill: #fa8072; stroke: #d2b48c; stroke-width: 0.5; stroke-linejoin: miter"/>
   </g>
   <g id="patch_34">
    <path d="M 129.594125 307.584 
L 131.387643 307.584 
L 131.387643 307.29966 
L 129.594125 307.29966 
z
" clip-path="url(#p549da302f9)" style="fill: #fa8072; stroke: #d2b48c; stroke-width: 0.5; stroke-linejoin: miter"/>
   </g>
   <g id="patch_35">
    <path d="M 131.387643 307.584 
L 133.181162 307.584 
L 133.181162 307.413396 
L 131.387643 307.413396 
z
" clip-path="url(#p549da302f9)" style="fill: #fa8072; stroke: #d2b48c; stroke-width: 0.5; stroke-linejoin: miter"/>
   </g>
   <g id="patch_36">
    <path d="M 133.181162 307.584 
L 134.97468 307.584 
L 134.97468 307.413396 
L 133.181162 307.413396 
z
" clip-path="url(#p549da302f9)" style="fill: #fa8072; stroke: #d2b48c; stroke-width: 0.5; stroke-linejoin: miter"/>
   </g>
   <g id="patch_37">
    <path d="M 134.97468 307.584 
L 136.768199 307.584 
L 136.768199 307.356528 
L 134.97468 307.356528 
z
" clip-path="url(#p549da302f9)" style="fill: #fa8072; stroke: #d2b48c; stroke-width: 0.5; stroke-linejoin: miter"/>
   </g>
   <g id="patch_38">
    <path d="M 136.768199 307.584 
L 138.561717 307.584 
L 138.561717 307.470264 
L 136.768199 307.470264 
z
" clip-path="url(#p549da302f9)" style="fill: #fa8072; stroke: #d2b48c; stroke-width: 0.5; stroke-linejoin: miter"/>
   </g>
   <g id="patch_39">
    <path d="M 138.561717 307.584 
L 140.355235 307.584 
L 140.355235 307.470264 
L 138.561717 307.470264 
z
" clip-path="url(#p549da302f9)" style="fill: #fa8072; stroke: #d2b48c; stroke-width: 0.5; stroke-linejoin: miter"/>
   </g>
   <g id="patch_40">
    <path d="M 140.355235 307.584 
L 142.148754 307.584 
L 142.148754 307.527132 
L 140.355235 307.527132 
z
" clip-path="url(#p549da302f9)" style="fill: #fa8072; stroke: #d2b48c; stroke-width: 0.5; stroke-linejoin: miter"/>
   </g>
   <g id="patch_41">
    <path d="M 142.148754 307.584 
L 143.942272 307.584 
L 143.942272 307.584 
L 142.148754 307.584 
z
" clip-path="url(#p549da302f9)" style="fill: #fa8072; stroke: #d2b48c; stroke-width: 0.5; stroke-linejoin: miter"/>
   </g>
   <g id="patch_42">
    <path d="M 143.942272 307.584 
L 145.735791 307.584 
L 145.735791 307.413396 
L 143.942272 307.413396 
z
" clip-path="url(#p549da302f9)" style="fill: #fa8072; stroke: #d2b48c; stroke-width: 0.5; stroke-linejoin: miter"/>
   </g>
   <g id="patch_43">
    <path d="M 145.735791 307.584 
L 147.529309 307.584 
L 147.529309 307.527132 
L 145.735791 307.527132 
z
" clip-path="url(#p549da302f9)" style="fill: #fa8072; stroke: #d2b48c; stroke-width: 0.5; stroke-linejoin: miter"/>
   </g>
   <g id="line2d_19">
    <path d="M 73.832727 54.144 
L 75.132645 91.651265 
L 76.432563 123.607729 
L 77.732482 150.83487 
L 79.0324 174.032594 
L 80.332318 193.797224 
L 81.632236 210.636834 
L 82.932154 224.984305 
L 84.232072 237.208455 
L 85.53199 247.623521 
L 86.831908 256.497233 
L 88.131826 264.0577 
L 89.431744 270.499274 
L 90.731663 275.987542 
L 92.031581 280.663586 
L 93.331499 284.647611 
L 94.631417 288.042028 
L 95.931335 290.934097 
L 97.556233 293.954941 
L 99.18113 296.427704 
L 100.806028 298.451826 
L 102.430925 300.108705 
L 104.055823 301.464971 
L 106.0057 302.771758 
L 107.955577 303.799465 
L 110.230434 304.724512 
L 112.83027 305.50825 
L 115.755086 306.13632 
L 119.329861 306.652052 
L 123.554595 307.030226 
L 129.404226 307.314644 
L 138.178673 307.492627 
L 155.402588 307.573056 
L 247.696773 307.584 
L 398.487273 307.584 
L 398.487273 307.584 
" clip-path="url(#p549da302f9)" style="fill: none; stroke: #800080; stroke-width: 1.2; stroke-linecap: round"/>
   </g>
   <g id="patch_44">
    <path d="M 57.6 307.584 
L 57.6 41.472 
" style="fill: none; stroke: #ffffff; stroke-linejoin: miter; stroke-linecap: square"/>
   </g>
   <g id="patch_45">
    <path d="M 414.72 307.584 
L 414.72 41.472 
" style="fill: none; stroke: #ffffff; stroke-linejoin: miter; stroke-linecap: square"/>
   </g>
   <g id="patch_46">
    <path d="M 57.6 307.584 
L 414.72 307.584 
" style="fill: none; stroke: #ffffff; stroke-linejoin: miter; stroke-linecap: square"/>
   </g>
   <g id="patch_47">
    <path d="M 57.6 41.472 
L 414.72 41.472 
" style="fill: none; stroke: #ffffff; stroke-linejoin: miter; stroke-linecap: square"/>
   </g>
   <g id="text_21">
    <!-- M/M/m with $\lambda = $20, $\mu = $11 -->
    <g style="fill: #262626" transform="translate(177.593013 35.472) scale(0.096 -0.096)">
     <defs>
      <path id="CMSS17-4d" d="M 3194 2373 
L 2886 1476 
C 2835 1311 2662 795 2624 592 
L 2618 592 
C 2598 719 2560 853 2458 1177 
C 2400 1368 2336 1565 2272 1743 
L 1325 4416 
L 576 4416 
L 576 0 
L 1075 0 
L 1075 3899 
L 1082 3899 
C 1082 3893 1139 3613 1530 2500 
L 2374 102 
L 2848 102 
L 3610 2233 
C 3661 2379 3821 2843 3891 3066 
C 3955 3257 4115 3728 4154 3912 
L 4160 3912 
L 4160 0 
L 4666 0 
L 4666 4416 
L 3923 4416 
L 3194 2373 
z
" transform="scale(0.015625)"/>
      <path id="CMSS17-2f" d="M 2637 4575 
C 2669 4658 2669 4671 2669 4684 
C 2669 4761 2611 4800 2560 4800 
C 2483 4800 2458 4748 2432 4671 
L 365 -1376 
C 333 -1460 333 -1472 333 -1485 
C 333 -1562 390 -1600 442 -1600 
C 518 -1600 544 -1549 570 -1472 
L 2637 4575 
z
" transform="scale(0.015625)"/>
      <path id="CMSS17-77" d="M 4013 2752 
L 3526 2752 
L 3187 1600 
C 3117 1356 2918 684 2893 371 
L 2886 371 
C 2874 563 2765 1024 2586 1632 
L 2259 2752 
L 1818 2752 
L 1498 1657 
C 1338 1100 1216 627 1203 371 
L 1197 371 
C 1171 748 909 1632 870 1772 
L 582 2752 
L 83 2752 
L 915 0 
L 1402 0 
C 1734 1100 1990 1952 2010 2380 
C 2022 2169 2131 1715 2195 1491 
L 2618 0 
L 3181 0 
L 4013 2752 
z
" transform="scale(0.015625)"/>
      <path id="CMSS17-68" d="M 2618 1878 
C 2618 2283 2522 2816 1798 2816 
C 1395 2816 1133 2617 947 2399 
L 947 4416 
L 474 4416 
L 474 0 
L 960 0 
L 960 1556 
C 960 1962 1114 2425 1549 2425 
C 2112 2425 2131 2045 2131 1826 
L 2131 0 
L 2618 0 
L 2618 1878 
z
" transform="scale(0.015625)"/>
      <path id="CMMI12-15" d="M 1978 3963 
C 1818 4416 1312 4416 1229 4416 
C 1190 4416 1120 4416 1120 4351 
C 1120 4300 1158 4294 1190 4287 
C 1286 4275 1363 4262 1466 4078 
C 1530 3957 2189 2055 2189 2042 
C 2189 2036 2182 2029 2131 1978 
L 467 305 
C 390 229 339 178 339 95 
C 339 6 416 -71 518 -71 
C 544 -71 614 -58 653 -20 
C 755 76 1670 1190 2253 1877 
C 2419 1380 2624 795 2822 261 
C 2854 165 2886 76 2976 -7 
C 3040 -64 3053 -64 3232 -64 
L 3354 -64 
C 3379 -64 3424 -64 3424 -13 
C 3424 12 3418 19 3392 44 
C 3334 114 3290 229 3264 305 
L 1978 3963 
z
" transform="scale(0.015625)"/>
      <path id="CMR17-3d" d="M 4115 2048 
C 4211 2048 4307 2048 4307 2156 
C 4307 2272 4198 2272 4090 2272 
L 512 2272 
C 403 2272 294 2272 294 2156 
C 294 2048 390 2048 486 2048 
L 4115 2048 
z
M 4090 927 
C 4198 927 4307 927 4307 1043 
C 4307 1152 4211 1152 4115 1152 
L 486 1152 
C 390 1152 294 1152 294 1043 
C 294 927 403 927 512 927 
L 4090 927 
z
" transform="scale(0.015625)"/>
      <path id="CMSS17-32" d="M 1651 1353 
C 1830 1538 2099 1761 2285 1984 
C 2464 2201 2701 2507 2701 2953 
C 2701 3655 2227 4288 1421 4288 
C 787 4288 422 3891 250 3272 
L 499 2928 
C 640 3508 838 3878 1338 3878 
C 1888 3878 2195 3431 2195 2940 
C 2195 2354 1747 1901 1408 1563 
C 1030 1187 659 805 301 409 
L 301 0 
L 2701 0 
L 2701 435 
L 1613 435 
C 1536 435 1459 428 1382 428 
L 742 428 
L 742 435 
L 1651 1353 
z
" transform="scale(0.015625)"/>
      <path id="CMSS17-30" d="M 2758 2073 
C 2758 2439 2752 3120 2490 3647 
C 2227 4153 1805 4288 1504 4288 
C 1069 4288 698 4031 506 3621 
C 301 3191 243 2748 243 2073 
C 243 1611 262 1046 493 551 
C 755 6 1197 -128 1498 -128 
C 1894 -128 2278 83 2496 525 
C 2720 988 2758 1495 2758 2073 
z
M 1498 262 
C 1011 262 864 821 819 1007 
C 742 1328 730 1636 730 2144 
C 730 2542 730 2992 851 3345 
C 998 3756 1254 3897 1498 3897 
C 1971 3897 2125 3422 2176 3255 
C 2272 2915 2272 2516 2272 2144 
C 2272 1546 2272 262 1498 262 
z
" transform="scale(0.015625)"/>
      <path id="CMSS17-2c" d="M 1088 6 
L 1088 512 
L 576 512 
L 576 0 
L 736 0 
L 570 -775 
L 826 -775 
L 1088 6 
z
" transform="scale(0.015625)"/>
      <path id="CMMI12-16" d="M 922 140 
C 1082 -7 1318 -64 1536 -64 
C 1946 -64 2227 210 2374 408 
C 2438 70 2707 -64 2931 -64 
C 3123 -64 3277 51 3392 281 
C 3494 498 3584 887 3584 913 
C 3584 944 3558 970 3520 970 
C 3462 970 3456 938 3430 842 
C 3334 466 3213 64 2950 64 
C 2765 64 2752 229 2752 357 
C 2752 504 2810 734 2854 925 
L 3034 1615 
C 3059 1736 3130 2023 3162 2138 
C 3200 2291 3270 2566 3270 2591 
C 3270 2687 3194 2752 3098 2752 
C 3040 2752 2906 2726 2854 2534 
L 2406 759 
C 2374 632 2374 619 2291 517 
C 2214 408 1965 64 1562 64 
C 1203 64 1088 325 1088 625 
C 1088 811 1146 1034 1171 1143 
L 1459 2292 
C 1491 2413 1542 2617 1542 2656 
C 1542 2758 1459 2816 1376 2816 
C 1318 2816 1178 2796 1126 2592 
L 198 -1085 
C 192 -1116 179 -1154 179 -1191 
C 179 -1287 256 -1351 352 -1351 
C 538 -1351 576 -1204 621 -1029 
L 922 140 
z
" transform="scale(0.015625)"/>
      <path id="CMSS17-31" d="M 1818 4288 
L 1696 4288 
C 1350 3949 947 3902 538 3891 
L 538 3520 
C 723 3526 1024 3539 1325 3673 
L 1325 371 
L 570 371 
L 570 0 
L 2573 0 
L 2573 371 
L 1818 371 
L 1818 4288 
z
" transform="scale(0.015625)"/>
     </defs>
     <use xlink:href="#CMSS17-4d" transform="scale(0.996264)"/>
     <use xlink:href="#CMSS17-2f" transform="translate(81.67603 0) scale(0.996264)"/>
     <use xlink:href="#CMSS17-4d" transform="translate(128.519653 0) scale(0.996264)"/>
     <use xlink:href="#CMSS17-2f" transform="translate(210.195683 0) scale(0.996264)"/>
     <use xlink:href="#CMSS17-6d" transform="translate(257.039307 0) scale(0.996264)"/>
     <use xlink:href="#CMSS17-77" transform="translate(362.497674 0) scale(0.996264)"/>
     <use xlink:href="#CMSS17-69" transform="translate(426.317219 0) scale(0.996264)"/>
     <use xlink:href="#CMSS17-74" transform="translate(448.497942 0) scale(0.996264)"/>
     <use xlink:href="#CMSS17-68" transform="translate(482.329509 0) scale(0.996264)"/>
     <use xlink:href="#CMMI12-15" transform="translate(561.763565 0) scale(0.996264)"/>
     <use xlink:href="#CMR17-3d" transform="translate(646.341645 0) scale(0.996264)"/>
     <use xlink:href="#CMSS17-32" transform="translate(718.056434 0) scale(0.996264)"/>
     <use xlink:href="#CMSS17-30" transform="translate(764.900057 0) scale(0.996264)"/>
     <use xlink:href="#CMSS17-2c" transform="translate(811.743681 0) scale(0.996264)"/>
     <use xlink:href="#CMMI12-16" transform="translate(868.996999 0) scale(0.996264)"/>
     <use xlink:href="#CMR17-3d" transform="translate(955.362429 0) scale(0.996264)"/>
     <use xlink:href="#CMSS17-31" transform="translate(1027.077217 0) scale(0.996264)"/>
     <use xlink:href="#CMSS17-31" transform="translate(1073.920841 0) scale(0.996264)"/>
    </g>
   </g>
   <g id="legend_1">
    <g id="patch_48">
     <path d="M 341.967264 73.041425 
L 408.56 73.041425 
Q 410.32 73.041425 410.32 71.281425 
L 410.32 47.632 
Q 410.32 45.872 408.56 45.872 
L 341.967264 45.872 
Q 340.207264 45.872 340.207264 47.632 
L 340.207264 71.281425 
Q 340.207264 73.041425 341.967264 73.041425 
z
" style="fill: #eaeaf2; opacity: 0.8; stroke: #cccccc; stroke-width: 0.8; stroke-linejoin: miter"/>
    </g>
    <g id="line2d_20">
     <path d="M 343.727264 52.472 
L 352.527264 52.472 
L 361.327264 52.472 
" style="fill: none; stroke: #800080; stroke-width: 1.2; stroke-linecap: round"/>
    </g>
    <g id="text_22">
     <!-- Analytical -->
     <g style="fill: #262626" transform="translate(368.367264 55.552) scale(0.088 -0.088)">
      <defs>
       <path id="CMSS17-41" d="M 2272 4416 
L 1722 4416 
L 166 0 
L 653 0 
L 1101 1280 
L 2816 1280 
L 3270 0 
L 3827 0 
L 2272 4416 
z
M 2694 1638 
L 1222 1638 
C 1530 2530 1914 3638 1958 3924 
L 1965 3924 
C 2010 3663 2138 3281 2246 2956 
L 2694 1638 
z
" transform="scale(0.015625)"/>
       <path id="CMSS17-6e" d="M 2618 1878 
C 2618 2283 2522 2816 1798 2816 
C 1389 2816 1120 2604 941 2386 
L 941 2783 
L 474 2783 
L 474 0 
L 960 0 
L 960 1556 
C 960 1962 1114 2425 1549 2425 
C 2112 2425 2131 2045 2131 1826 
L 2131 0 
L 2618 0 
L 2618 1878 
z
" transform="scale(0.015625)"/>
       <path id="CMSS17-61" d="M 2406 1789 
C 2406 2399 1978 2816 1402 2816 
C 1120 2816 813 2764 461 2559 
L 499 2133 
C 659 2250 934 2438 1395 2438 
C 1722 2438 1920 2185 1920 1782 
L 1920 1536 
C 896 1504 256 1209 256 711 
C 256 452 416 -64 947 -64 
C 1043 -64 1562 -52 1933 224 
L 1933 -13 
L 2406 -13 
L 2406 1789 
z
M 1920 824 
C 1920 711 1920 559 1728 446 
C 1562 339 1350 326 1261 326 
C 941 326 723 503 723 723 
C 723 1165 1722 1209 1920 1216 
L 1920 824 
z
" transform="scale(0.015625)"/>
       <path id="CMSS17-6c" d="M 947 4416 
L 474 4416 
L 474 0 
L 947 0 
L 947 4416 
z
" transform="scale(0.015625)"/>
       <path id="CMSS17-79" d="M 2675 2752 
L 2176 2752 
C 1632 1293 1446 701 1434 383 
L 1427 383 
C 1408 695 1126 1459 902 2006 
L 602 2752 
L 83 2752 
L 1216 14 
C 1146 -177 1043 -464 1011 -527 
C 870 -884 774 -884 672 -884 
C 646 -884 442 -877 211 -807 
L 250 -1229 
C 410 -1261 570 -1280 685 -1280 
C 845 -1280 1165 -1280 1459 -495 
L 2675 2752 
z
" transform="scale(0.015625)"/>
       <path id="CMSS17-63" d="M 2464 2540 
C 2464 2585 2170 2713 2093 2739 
C 1882 2816 1613 2816 1542 2816 
C 710 2816 211 2092 211 1363 
C 211 595 768 -64 1517 -64 
C 1946 -64 2253 76 2502 243 
L 2464 665 
C 2189 454 1869 339 1523 339 
C 1024 339 698 774 698 1369 
C 698 1830 909 2412 1549 2412 
C 1901 2412 2099 2342 2394 2143 
L 2464 2540 
z
" transform="scale(0.015625)"/>
      </defs>
      <use xlink:href="#CMSS17-41" transform="scale(0.996264)"/>
      <use xlink:href="#CMSS17-6e" transform="translate(62.217855 0) scale(0.996264)"/>
      <use xlink:href="#CMSS17-61" transform="translate(110.422798 0) scale(0.996264)"/>
      <use xlink:href="#CMSS17-6c" transform="translate(155.344719 0) scale(0.996264)"/>
      <use xlink:href="#CMSS17-79" transform="translate(177.525442 0) scale(0.996264)"/>
      <use xlink:href="#CMSS17-74" transform="translate(220.525583 0) scale(0.996264)"/>
      <use xlink:href="#CMSS17-69" transform="translate(254.35715 0) scale(0.996264)"/>
      <use xlink:href="#CMSS17-63" transform="translate(276.537873 0) scale(0.996264)"/>
      <use xlink:href="#CMSS17-61" transform="translate(318.176695 0) scale(0.996264)"/>
      <use xlink:href="#CMSS17-6c" transform="translate(363.098616 0) scale(0.996264)"/>
     </g>
    </g>
    <g id="patch_49">
     <path d="M 343.727264 67.816713 
L 361.327264 67.816713 
L 361.327264 61.656713 
L 343.727264 61.656713 
z
" style="fill: #fa8072; stroke: #d2b48c; stroke-width: 0.5; stroke-linejoin: miter"/>
    </g>
    <g id="text_23">
     <!-- Empirical -->
     <g style="fill: #262626" transform="translate(368.367264 67.816713) scale(0.088 -0.088)">
      <defs>
       <path id="CMSS17-45" d="M 1958 435 
C 1446 435 1216 435 1101 428 
L 1101 2105 
L 3085 2105 
L 3085 2496 
L 1101 2496 
L 1101 3993 
L 1926 3993 
C 2003 3993 2080 3987 2157 3987 
L 3251 3987 
L 3251 4403 
L 563 4403 
L 563 0 
L 3334 0 
L 3334 441 
L 1958 435 
z
" transform="scale(0.015625)"/>
       <path id="CMSS17-70" d="M 966 275 
C 1178 70 1466 -64 1773 -64 
C 2368 -64 2880 553 2880 1382 
C 2880 2147 2496 2816 1946 2816 
C 1626 2816 1242 2700 954 2470 
L 954 2764 
L 480 2764 
L 480 -1280 
L 966 -1280 
L 966 275 
z
M 966 2088 
C 1018 2166 1235 2412 1587 2412 
C 2035 2412 2394 1946 2394 1382 
C 2394 741 1958 326 1530 326 
C 1402 326 1267 358 1139 468 
C 966 624 966 721 966 812 
L 966 2088 
z
" transform="scale(0.015625)"/>
       <path id="CMSS17-72" d="M 954 1369 
C 954 1974 1395 2379 1958 2392 
L 1958 2816 
C 1549 2809 1165 2604 934 2270 
L 934 2783 
L 480 2783 
L 480 0 
L 954 0 
L 954 1369 
z
" transform="scale(0.015625)"/>
      </defs>
      <use xlink:href="#CMSS17-45" transform="scale(0.996264)"/>
      <use xlink:href="#CMSS17-6d" transform="translate(55.892013 0) scale(0.996264)"/>
      <use xlink:href="#CMSS17-70" transform="translate(130.121268 0) scale(0.996264)"/>
      <use xlink:href="#CMSS17-69" transform="translate(178.326211 0) scale(0.996264)"/>
      <use xlink:href="#CMSS17-72" transform="translate(200.506934 0) scale(0.996264)"/>
      <use xlink:href="#CMSS17-69" transform="translate(232.416706 0) scale(0.996264)"/>
      <use xlink:href="#CMSS17-63" transform="translate(254.597429 0) scale(0.996264)"/>
      <use xlink:href="#CMSS17-61" transform="translate(296.236252 0) scale(0.996264)"/>
      <use xlink:href="#CMSS17-6c" transform="translate(341.158172 0) scale(0.996264)"/>
     </g>
    </g>
   </g>
  </g>
 </g>
 <defs>
  <clipPath id="p549da302f9">
   <rect x="57.6" y="41.472" width="357.12" height="266.112"/>
  </clipPath>
 </defs>
</svg>
