<?xml version="1.0" encoding="utf-8" standalone="no"?>
<!DOCTYPE svg PUBLIC "-//W3C//DTD SVG 1.1//EN"
  "http://www.w3.org/Graphics/SVG/1.1/DTD/svg11.dtd">
<svg xmlns:xlink="http://www.w3.org/1999/xlink" width="460.8pt" height="345.6pt" viewBox="0 0 460.8 345.6" xmlns="http://www.w3.org/2000/svg" version="1.1">
 <metadata>
  <rdf:RDF xmlns:dc="http://purl.org/dc/elements/1.1/" xmlns:cc="http://creativecommons.org/ns#" xmlns:rdf="http://www.w3.org/1999/02/22-rdf-syntax-ns#">
   <cc:Work>
    <dc:type rdf:resource="http://purl.org/dc/dcmitype/StillImage"/>
    <dc:date>2024-11-07T14:21:14.494484</dc:date>
    <dc:format>image/svg+xml</dc:format>
    <dc:creator>
     <cc:Agent>
      <dc:title>Matplotlib v3.8.4, https://matplotlib.org/</dc:title>
     </cc:Agent>
    </dc:creator>
   </cc:Work>
  </rdf:RDF>
 </metadata>
 <defs>
  <style type="text/css">*{stroke-linejoin: round; stroke-linecap: butt}</style>
 </defs>
 <g id="figure_1">
  <g id="patch_1">
   <path d="M 0 345.6 
L 460.8 345.6 
L 460.8 0 
L 0 0 
L 0 345.6 
z
" style="fill: none"/>
  </g>
  <g id="axes_1">
   <g id="patch_2">
    <path d="M 57.6 307.584 
L 414.72 307.584 
L 414.72 41.472 
L 57.6 41.472 
L 57.6 307.584 
z
" style="fill: none"/>
   </g>
   <g id="matplotlib.axis_1">
    <g id="xtick_1">
     <g id="line2d_1">
      <path d="M 74.527919 307.584 
L 74.527919 41.472 
" clip-path="url(#p5161e4705a)" style="fill: none; stroke: #ffffff; stroke-width: 0.8; stroke-linecap: round"/>
     </g>
     <g id="text_1">
      <!-- $\mathdefault{0}$ -->
      <g style="fill: #262626" transform="translate(72.19912 321.972283) scale(0.088 -0.088)">
       <defs>
        <path id="CMR17-30" d="M 2688 2038 
C 2688 2430 2682 3099 2413 3613 
C 2176 4063 1798 4224 1466 4224 
C 1158 4224 768 4082 525 3620 
C 269 3137 243 2539 243 2038 
C 243 1671 250 1112 448 623 
C 723 -39 1216 -128 1466 -128 
C 1760 -128 2208 -7 2470 604 
C 2662 1048 2688 1568 2688 2038 
z
M 1466 -26 
C 1056 -26 813 328 723 816 
C 653 1196 653 1749 653 2109 
C 653 2604 653 3015 736 3407 
C 858 3954 1216 4121 1466 4121 
C 1728 4121 2067 3947 2189 3420 
C 2272 3054 2278 2623 2278 2109 
C 2278 1691 2278 1176 2202 797 
C 2067 96 1690 -26 1466 -26 
z
" transform="scale(0.015625)"/>
       </defs>
       <use xlink:href="#CMR17-30" transform="scale(0.996264)"/>
      </g>
     </g>
    </g>
    <g id="xtick_2">
     <g id="line2d_2">
      <path d="M 117.977403 307.584 
L 117.977403 41.472 
" clip-path="url(#p5161e4705a)" style="fill: none; stroke: #ffffff; stroke-width: 0.8; stroke-linecap: round"/>
     </g>
     <g id="text_2">
      <!-- $\mathdefault{25}$ -->
      <g style="fill: #262626" transform="translate(113.319805 321.972283) scale(0.088 -0.088)">
       <defs>
        <path id="CMR17-32" d="M 2669 990 
L 2554 990 
C 2490 537 2438 460 2413 422 
C 2381 371 1920 371 1830 371 
L 602 371 
C 832 620 1280 1073 1824 1596 
C 2214 1966 2669 2400 2669 3033 
C 2669 3788 2067 4224 1395 4224 
C 691 4224 262 3603 262 3027 
C 262 2777 448 2745 525 2745 
C 589 2745 781 2783 781 3007 
C 781 3206 614 3264 525 3264 
C 486 3264 448 3257 422 3244 
C 544 3788 915 4057 1306 4057 
C 1862 4057 2227 3616 2227 3033 
C 2227 2477 1901 1998 1536 1583 
L 262 147 
L 262 0 
L 2515 0 
L 2669 990 
z
" transform="scale(0.015625)"/>
        <path id="CMR17-35" d="M 730 3750 
C 794 3724 1056 3641 1325 3641 
C 1920 3641 2246 3961 2432 4140 
C 2432 4191 2432 4224 2394 4224 
C 2387 4224 2374 4224 2323 4198 
C 2099 4102 1837 4032 1517 4032 
C 1325 4032 1037 4055 723 4191 
C 653 4224 640 4224 634 4224 
C 602 4224 595 4217 595 4090 
L 595 2231 
C 595 2113 595 2080 659 2080 
C 691 2080 704 2093 736 2139 
C 941 2435 1222 2560 1542 2560 
C 1766 2560 2246 2415 2246 1293 
C 2246 1087 2246 716 2054 422 
C 1894 159 1645 25 1370 25 
C 947 25 518 319 403 812 
C 429 806 480 793 506 793 
C 589 793 749 838 749 1036 
C 749 1209 627 1280 506 1280 
C 358 1280 262 1190 262 1011 
C 262 454 704 -128 1382 -128 
C 2042 -128 2669 441 2669 1267 
C 2669 2054 2170 2662 1549 2662 
C 1222 2662 947 2540 730 2304 
L 730 3750 
z
" transform="scale(0.015625)"/>
       </defs>
       <use xlink:href="#CMR17-32" transform="scale(0.996264)"/>
       <use xlink:href="#CMR17-35" transform="translate(45.690477 0) scale(0.996264)"/>
      </g>
     </g>
    </g>
    <g id="xtick_3">
     <g id="line2d_3">
      <path d="M 161.426887 307.584 
L 161.426887 41.472 
" clip-path="url(#p5161e4705a)" style="fill: none; stroke: #ffffff; stroke-width: 0.8; stroke-linecap: round"/>
     </g>
     <g id="text_3">
      <!-- $\mathdefault{50}$ -->
      <g style="fill: #262626" transform="translate(156.769289 321.972283) scale(0.088 -0.088)">
       <use xlink:href="#CMR17-35" transform="scale(0.996264)"/>
       <use xlink:href="#CMR17-30" transform="translate(45.690477 0) scale(0.996264)"/>
      </g>
     </g>
    </g>
    <g id="xtick_4">
     <g id="line2d_4">
      <path d="M 204.876371 307.584 
L 204.876371 41.472 
" clip-path="url(#p5161e4705a)" style="fill: none; stroke: #ffffff; stroke-width: 0.8; stroke-linecap: round"/>
     </g>
     <g id="text_4">
      <!-- $\mathdefault{75}$ -->
      <g style="fill: #262626" transform="translate(200.218773 321.972283) scale(0.088 -0.088)">
       <defs>
        <path id="CMR17-37" d="M 2886 3955 
L 2886 4096 
L 1382 4096 
C 634 4096 621 4166 595 4288 
L 480 4288 
L 294 3104 
L 410 3104 
C 429 3226 474 3552 550 3673 
C 589 3724 1062 3724 1171 3724 
L 2579 3724 
L 1869 2670 
C 1395 1961 1069 1003 1069 166 
C 1069 89 1069 -128 1299 -128 
C 1530 -128 1530 89 1530 172 
L 1530 466 
C 1530 1514 1709 2204 2003 2644 
L 2886 3955 
z
" transform="scale(0.015625)"/>
       </defs>
       <use xlink:href="#CMR17-37" transform="scale(0.996264)"/>
       <use xlink:href="#CMR17-35" transform="translate(45.690477 0) scale(0.996264)"/>
      </g>
     </g>
    </g>
    <g id="xtick_5">
     <g id="line2d_5">
      <path d="M 248.325856 307.584 
L 248.325856 41.472 
" clip-path="url(#p5161e4705a)" style="fill: none; stroke: #ffffff; stroke-width: 0.8; stroke-linecap: round"/>
     </g>
     <g id="text_5">
      <!-- $\mathdefault{100}$ -->
      <g style="fill: #262626" transform="translate(241.339458 321.972283) scale(0.088 -0.088)">
       <defs>
        <path id="CMR17-31" d="M 1702 4083 
C 1702 4217 1696 4224 1606 4224 
C 1357 3927 979 3833 621 3820 
C 602 3820 570 3820 563 3808 
C 557 3795 557 3782 557 3648 
C 755 3648 1088 3686 1344 3839 
L 1344 467 
C 1344 243 1331 166 781 166 
L 589 166 
L 589 0 
C 896 6 1216 12 1523 12 
C 1830 12 2150 6 2458 0 
L 2458 166 
L 2266 166 
C 1715 166 1702 236 1702 467 
L 1702 4083 
z
" transform="scale(0.015625)"/>
       </defs>
       <use xlink:href="#CMR17-31" transform="scale(0.996264)"/>
       <use xlink:href="#CMR17-30" transform="translate(45.690477 0) scale(0.996264)"/>
       <use xlink:href="#CMR17-30" transform="translate(91.380954 0) scale(0.996264)"/>
      </g>
     </g>
    </g>
    <g id="xtick_6">
     <g id="line2d_6">
      <path d="M 291.77534 307.584 
L 291.77534 41.472 
" clip-path="url(#p5161e4705a)" style="fill: none; stroke: #ffffff; stroke-width: 0.8; stroke-linecap: round"/>
     </g>
     <g id="text_6">
      <!-- $\mathdefault{125}$ -->
      <g style="fill: #262626" transform="translate(284.788943 321.972283) scale(0.088 -0.088)">
       <use xlink:href="#CMR17-31" transform="scale(0.996264)"/>
       <use xlink:href="#CMR17-32" transform="translate(45.690477 0) scale(0.996264)"/>
       <use xlink:href="#CMR17-35" transform="translate(91.380954 0) scale(0.996264)"/>
      </g>
     </g>
    </g>
    <g id="xtick_7">
     <g id="line2d_7">
      <path d="M 335.224824 307.584 
L 335.224824 41.472 
" clip-path="url(#p5161e4705a)" style="fill: none; stroke: #ffffff; stroke-width: 0.8; stroke-linecap: round"/>
     </g>
     <g id="text_7">
      <!-- $\mathdefault{150}$ -->
      <g style="fill: #262626" transform="translate(328.238427 321.972283) scale(0.088 -0.088)">
       <use xlink:href="#CMR17-31" transform="scale(0.996264)"/>
       <use xlink:href="#CMR17-35" transform="translate(45.690477 0) scale(0.996264)"/>
       <use xlink:href="#CMR17-30" transform="translate(91.380954 0) scale(0.996264)"/>
      </g>
     </g>
    </g>
    <g id="xtick_8">
     <g id="line2d_8">
      <path d="M 378.674308 307.584 
L 378.674308 41.472 
" clip-path="url(#p5161e4705a)" style="fill: none; stroke: #ffffff; stroke-width: 0.8; stroke-linecap: round"/>
     </g>
     <g id="text_8">
      <!-- $\mathdefault{175}$ -->
      <g style="fill: #262626" transform="translate(371.687911 321.972283) scale(0.088 -0.088)">
       <use xlink:href="#CMR17-31" transform="scale(0.996264)"/>
       <use xlink:href="#CMR17-37" transform="translate(45.690477 0) scale(0.996264)"/>
       <use xlink:href="#CMR17-35" transform="translate(91.380954 0) scale(0.996264)"/>
      </g>
     </g>
    </g>
   </g>
   <g id="matplotlib.axis_2">
    <g id="ytick_1">
     <g id="line2d_9">
      <path d="M 57.6 307.584 
L 414.72 307.584 
" clip-path="url(#p5161e4705a)" style="fill: none; stroke: #ffffff; stroke-width: 0.8; stroke-linecap: round"/>
     </g>
     <g id="text_9">
      <!-- $\mathdefault{0.00}$ -->
      <g style="fill: #262626" transform="translate(32.73965 310.628142) scale(0.088 -0.088)">
       <defs>
        <path id="CMMI12-3a" d="M 1178 307 
C 1178 492 1024 620 870 620 
C 685 620 557 467 557 313 
C 557 128 710 0 864 0 
C 1050 0 1178 153 1178 307 
z
" transform="scale(0.015625)"/>
       </defs>
       <use xlink:href="#CMR17-30" transform="scale(0.996264)"/>
       <use xlink:href="#CMMI12-3a" transform="translate(45.690477 0) scale(0.996264)"/>
       <use xlink:href="#CMR17-30" transform="translate(72.787654 0) scale(0.996264)"/>
       <use xlink:href="#CMR17-30" transform="translate(118.478131 0) scale(0.996264)"/>
      </g>
     </g>
    </g>
    <g id="ytick_2">
     <g id="line2d_10">
      <path d="M 57.6 269.662286 
L 414.72 269.662286 
" clip-path="url(#p5161e4705a)" style="fill: none; stroke: #ffffff; stroke-width: 0.8; stroke-linecap: round"/>
     </g>
     <g id="text_10">
      <!-- $\mathdefault{0.05}$ -->
      <g style="fill: #262626" transform="translate(32.73965 272.706427) scale(0.088 -0.088)">
       <use xlink:href="#CMR17-30" transform="scale(0.996264)"/>
       <use xlink:href="#CMMI12-3a" transform="translate(45.690477 0) scale(0.996264)"/>
       <use xlink:href="#CMR17-30" transform="translate(72.787654 0) scale(0.996264)"/>
       <use xlink:href="#CMR17-35" transform="translate(118.478131 0) scale(0.996264)"/>
      </g>
     </g>
    </g>
    <g id="ytick_3">
     <g id="line2d_11">
      <path d="M 57.6 231.740571 
L 414.72 231.740571 
" clip-path="url(#p5161e4705a)" style="fill: none; stroke: #ffffff; stroke-width: 0.8; stroke-linecap: round"/>
     </g>
     <g id="text_11">
      <!-- $\mathdefault{0.10}$ -->
      <g style="fill: #262626" transform="translate(32.73965 234.784713) scale(0.088 -0.088)">
       <use xlink:href="#CMR17-30" transform="scale(0.996264)"/>
       <use xlink:href="#CMMI12-3a" transform="translate(45.690477 0) scale(0.996264)"/>
       <use xlink:href="#CMR17-31" transform="translate(72.787654 0) scale(0.996264)"/>
       <use xlink:href="#CMR17-30" transform="translate(118.478131 0) scale(0.996264)"/>
      </g>
     </g>
    </g>
    <g id="ytick_4">
     <g id="line2d_12">
      <path d="M 57.6 193.818857 
L 414.72 193.818857 
" clip-path="url(#p5161e4705a)" style="fill: none; stroke: #ffffff; stroke-width: 0.8; stroke-linecap: round"/>
     </g>
     <g id="text_12">
      <!-- $\mathdefault{0.15}$ -->
      <g style="fill: #262626" transform="translate(32.73965 196.862999) scale(0.088 -0.088)">
       <use xlink:href="#CMR17-30" transform="scale(0.996264)"/>
       <use xlink:href="#CMMI12-3a" transform="translate(45.690477 0) scale(0.996264)"/>
       <use xlink:href="#CMR17-31" transform="translate(72.787654 0) scale(0.996264)"/>
       <use xlink:href="#CMR17-35" transform="translate(118.478131 0) scale(0.996264)"/>
      </g>
     </g>
    </g>
    <g id="ytick_5">
     <g id="line2d_13">
      <path d="M 57.6 155.897143 
L 414.72 155.897143 
" clip-path="url(#p5161e4705a)" style="fill: none; stroke: #ffffff; stroke-width: 0.8; stroke-linecap: round"/>
     </g>
     <g id="text_13">
      <!-- $\mathdefault{0.20}$ -->
      <g style="fill: #262626" transform="translate(32.73965 158.941285) scale(0.088 -0.088)">
       <use xlink:href="#CMR17-30" transform="scale(0.996264)"/>
       <use xlink:href="#CMMI12-3a" transform="translate(45.690477 0) scale(0.996264)"/>
       <use xlink:href="#CMR17-32" transform="translate(72.787654 0) scale(0.996264)"/>
       <use xlink:href="#CMR17-30" transform="translate(118.478131 0) scale(0.996264)"/>
      </g>
     </g>
    </g>
    <g id="ytick_6">
     <g id="line2d_14">
      <path d="M 57.6 117.975429 
L 414.72 117.975429 
" clip-path="url(#p5161e4705a)" style="fill: none; stroke: #ffffff; stroke-width: 0.8; stroke-linecap: round"/>
     </g>
     <g id="text_14">
      <!-- $\mathdefault{0.25}$ -->
      <g style="fill: #262626" transform="translate(32.73965 121.01957) scale(0.088 -0.088)">
       <use xlink:href="#CMR17-30" transform="scale(0.996264)"/>
       <use xlink:href="#CMMI12-3a" transform="translate(45.690477 0) scale(0.996264)"/>
       <use xlink:href="#CMR17-32" transform="translate(72.787654 0) scale(0.996264)"/>
       <use xlink:href="#CMR17-35" transform="translate(118.478131 0) scale(0.996264)"/>
      </g>
     </g>
    </g>
    <g id="ytick_7">
     <g id="line2d_15">
      <path d="M 57.6 80.053714 
L 414.72 80.053714 
" clip-path="url(#p5161e4705a)" style="fill: none; stroke: #ffffff; stroke-width: 0.8; stroke-linecap: round"/>
     </g>
     <g id="text_15">
      <!-- $\mathdefault{0.30}$ -->
      <g style="fill: #262626" transform="translate(32.73965 83.097856) scale(0.088 -0.088)">
       <defs>
        <path id="CMR17-33" d="M 1414 2176 
C 1984 2176 2234 1673 2234 1094 
C 2234 322 1824 25 1453 25 
C 1114 25 563 193 390 691 
C 422 678 454 678 486 678 
C 640 678 755 780 755 947 
C 755 1132 614 1216 486 1216 
C 378 1216 211 1164 211 927 
C 211 335 787 -128 1466 -128 
C 2176 -128 2720 432 2720 1087 
C 2720 1718 2208 2176 1600 2246 
C 2086 2347 2554 2776 2554 3353 
C 2554 3856 2048 4224 1472 4224 
C 890 4224 378 3862 378 3347 
C 378 3123 544 3084 627 3084 
C 762 3084 877 3167 877 3334 
C 877 3500 762 3584 627 3584 
C 602 3584 570 3584 544 3571 
C 730 3999 1235 4076 1459 4076 
C 1683 4076 2106 3966 2106 3347 
C 2106 3167 2080 2851 1862 2574 
C 1670 2329 1453 2316 1242 2297 
C 1210 2297 1062 2284 1037 2284 
C 992 2278 966 2272 966 2227 
C 966 2182 973 2176 1101 2176 
L 1414 2176 
z
" transform="scale(0.015625)"/>
       </defs>
       <use xlink:href="#CMR17-30" transform="scale(0.996264)"/>
       <use xlink:href="#CMMI12-3a" transform="translate(45.690477 0) scale(0.996264)"/>
       <use xlink:href="#CMR17-33" transform="translate(72.787654 0) scale(0.996264)"/>
       <use xlink:href="#CMR17-30" transform="translate(118.478131 0) scale(0.996264)"/>
      </g>
     </g>
    </g>
    <g id="ytick_8">
     <g id="line2d_16">
      <path d="M 57.6 42.132 
L 414.72 42.132 
" clip-path="url(#p5161e4705a)" style="fill: none; stroke: #ffffff; stroke-width: 0.8; stroke-linecap: round"/>
     </g>
     <g id="text_16">
      <!-- $\mathdefault{0.35}$ -->
      <g style="fill: #262626" transform="translate(32.73965 45.176142) scale(0.088 -0.088)">
       <use xlink:href="#CMR17-30" transform="scale(0.996264)"/>
       <use xlink:href="#CMMI12-3a" transform="translate(45.690477 0) scale(0.996264)"/>
       <use xlink:href="#CMR17-33" transform="translate(72.787654 0) scale(0.996264)"/>
       <use xlink:href="#CMR17-35" transform="translate(118.478131 0) scale(0.996264)"/>
      </g>
     </g>
    </g>
    <g id="text_17">
     <!-- $P_{N(t)}(n)$ -->
     <g style="fill: #262626" transform="translate(25.339087 193.120646) rotate(-90) scale(0.096 -0.096)">
      <defs>
       <path id="CMMI12-50" d="M 1894 2022 
L 2970 2022 
C 3853 2022 4736 2673 4736 3400 
C 4736 3898 4314 4352 3507 4352 
L 1530 4352 
C 1408 4352 1350 4352 1350 4230 
C 1350 4166 1408 4166 1504 4166 
C 1894 4166 1894 4115 1894 4045 
C 1894 4032 1894 3994 1869 3898 
L 1005 471 
C 947 249 934 185 486 185 
C 365 185 301 185 301 70 
C 301 0 358 0 397 0 
C 518 0 646 12 768 12 
L 1517 12 
C 1638 12 1773 0 1894 0 
C 1946 0 2016 0 2016 121 
C 2016 185 1958 185 1862 185 
C 1478 185 1472 230 1472 293 
C 1472 325 1478 369 1485 401 
L 1894 2022 
z
M 2355 3917 
C 2413 4153 2438 4166 2688 4166 
L 3322 4166 
C 3802 4166 4198 4013 4198 3534 
C 4198 3369 4115 2826 3821 2533 
C 3712 2418 3405 2176 2822 2176 
L 1920 2176 
L 2355 3917 
z
" transform="scale(0.015625)"/>
       <path id="CMMI12-4e" d="M 4736 3682 
C 4806 3956 4909 4147 5395 4166 
C 5414 4166 5491 4172 5491 4281 
C 5491 4352 5434 4352 5408 4352 
C 5280 4352 4954 4339 4826 4339 
L 4518 4339 
C 4429 4339 4314 4352 4224 4352 
C 4186 4352 4109 4352 4109 4230 
C 4109 4166 4160 4166 4205 4166 
C 4589 4153 4614 4007 4614 3892 
C 4614 3835 4608 3816 4589 3726 
L 3866 854 
L 2496 4243 
C 2451 4345 2445 4352 2304 4352 
L 1523 4352 
C 1395 4352 1338 4352 1338 4230 
C 1338 4166 1382 4166 1504 4166 
C 1536 4166 1914 4166 1914 4109 
C 1914 4096 1901 4045 1894 4026 
L 1043 650 
C 966 338 813 204 390 185 
C 358 185 294 179 294 64 
C 294 0 358 0 378 0 
C 506 0 832 12 960 12 
L 1267 12 
C 1357 12 1466 0 1555 0 
C 1600 0 1670 0 1670 121 
C 1670 179 1606 185 1581 185 
C 1370 191 1165 230 1165 459 
C 1165 510 1178 567 1190 618 
L 2054 4026 
C 2093 3962 2093 3949 2118 3892 
L 3642 115 
C 3674 38 3686 0 3744 0 
C 3808 0 3814 19 3840 128 
L 4736 3682 
z
" transform="scale(0.015625)"/>
       <path id="CMR17-28" d="M 1958 -1562 
C 1958 -1556 1958 -1543 1939 -1524 
C 1645 -1223 858 -403 858 1596 
C 858 3595 1632 4408 1946 4729 
C 1946 4735 1958 4748 1958 4767 
C 1958 4787 1939 4800 1914 4800 
C 1843 4800 1299 4325 986 3620 
C 666 2909 576 2218 576 1603 
C 576 1141 621 360 1005 -467 
C 1312 -1133 1837 -1600 1914 -1600 
C 1946 -1600 1958 -1588 1958 -1562 
z
" transform="scale(0.015625)"/>
       <path id="CMMI12-74" d="M 1286 2566 
L 1875 2566 
C 1997 2566 2061 2566 2061 2681 
C 2061 2752 2022 2752 1894 2752 
L 1331 2752 
L 1568 3664 
C 1594 3752 1594 3764 1594 3808 
C 1594 3910 1510 3968 1427 3968 
C 1376 3968 1229 3948 1178 3746 
L 928 2752 
L 326 2752 
C 198 2752 141 2752 141 2630 
C 141 2566 186 2566 307 2566 
L 877 2566 
L 454 881 
C 403 657 384 593 384 510 
C 384 210 595 -64 954 -64 
C 1600 -64 1946 868 1946 913 
C 1946 951 1920 970 1882 970 
C 1869 970 1843 970 1830 944 
C 1824 938 1818 932 1773 830 
C 1638 510 1344 64 973 64 
C 781 64 768 223 768 364 
C 768 370 768 491 787 568 
L 1286 2566 
z
" transform="scale(0.015625)"/>
       <path id="CMR17-29" d="M 1683 1596 
C 1683 2057 1638 2839 1254 3665 
C 947 4332 422 4800 346 4800 
C 326 4800 301 4793 301 4761 
C 301 4748 307 4742 314 4729 
C 621 4408 1402 3595 1402 1603 
C 1402 -396 627 -1210 314 -1530 
C 307 -1543 301 -1549 301 -1562 
C 301 -1594 326 -1600 346 -1600 
C 416 -1600 960 -1127 1274 -422 
C 1594 289 1683 981 1683 1596 
z
" transform="scale(0.015625)"/>
       <path id="CMMI12-6e" d="M 1318 1870 
C 1331 1909 1491 2228 1728 2432 
C 1894 2585 2112 2687 2362 2687 
C 2618 2687 2707 2496 2707 2241 
C 2707 1877 2445 1149 2317 804 
C 2259 651 2227 568 2227 453 
C 2227 166 2426 -64 2733 -64 
C 3328 -64 3552 874 3552 913 
C 3552 945 3526 970 3488 970 
C 3430 970 3424 951 3392 842 
C 3245 319 3002 64 2752 64 
C 2688 64 2586 70 2586 274 
C 2586 434 2656 625 2694 715 
C 2822 1066 3091 1781 3091 2145 
C 3091 2528 2867 2816 2381 2816 
C 1811 2816 1510 2413 1395 2253 
C 1376 2617 1114 2816 832 2816 
C 627 2816 486 2694 378 2477 
C 262 2247 173 1864 173 1838 
C 173 1813 198 1781 243 1781 
C 294 1781 301 1787 339 1934 
C 442 2324 557 2687 813 2687 
C 960 2687 1011 2585 1011 2394 
C 1011 2253 947 2004 902 1807 
L 723 1117 
C 698 996 627 708 595 593 
C 550 427 480 127 480 95 
C 480 6 550 -64 646 -64 
C 723 -64 813 -26 864 70 
C 877 102 934 325 966 453 
L 1107 1028 
L 1318 1870 
z
" transform="scale(0.015625)"/>
      </defs>
      <use xlink:href="#CMMI12-50" transform="scale(0.996264)"/>
      <use xlink:href="#CMMI12-4e" transform="translate(62.877232 -17.925121) scale(0.697382)"/>
      <use xlink:href="#CMR17-28" transform="translate(124.842205 -17.925121) scale(0.697382)"/>
      <use xlink:href="#CMMI12-74" transform="translate(149.538626 -17.925121) scale(0.697382)"/>
      <use xlink:href="#CMR17-29" transform="translate(174.196935 -17.925121) scale(0.697382)"/>
      <use xlink:href="#CMR17-28" transform="translate(199.391488 0) scale(0.996264)"/>
      <use xlink:href="#CMMI12-6e" transform="translate(234.672256 0) scale(0.996264)"/>
      <use xlink:href="#CMR17-29" transform="translate(292.902303 0) scale(0.996264)"/>
     </g>
    </g>
   </g>
   <g id="patch_3">
    <path d="M 73.832727 307.584 
L 75.223111 307.584 
L 75.223111 306.355336 
L 73.832727 306.355336 
z
" clip-path="url(#p5161e4705a)" style="fill: #191970; stroke: #ffffff; stroke-width: 0.8; stroke-linejoin: miter"/>
   </g>
   <g id="patch_4">
    <path d="M 75.570707 307.584 
L 76.96109 307.584 
L 76.96109 303.474045 
L 75.570707 303.474045 
z
" clip-path="url(#p5161e4705a)" style="fill: #191970; stroke: #ffffff; stroke-width: 0.8; stroke-linejoin: miter"/>
   </g>
   <g id="patch_5">
    <path d="M 77.308686 307.584 
L 78.699069 307.584 
L 78.699069 300.695141 
L 77.308686 300.695141 
z
" clip-path="url(#p5161e4705a)" style="fill: #191970; stroke: #ffffff; stroke-width: 0.8; stroke-linejoin: miter"/>
   </g>
   <g id="patch_6">
    <path d="M 79.046665 307.584 
L 80.437049 307.584 
L 80.437049 300.655703 
L 79.046665 300.655703 
z
" clip-path="url(#p5161e4705a)" style="fill: #191970; stroke: #ffffff; stroke-width: 0.8; stroke-linejoin: miter"/>
   </g>
   <g id="patch_7">
    <path d="M 80.784645 307.584 
L 82.175028 307.584 
L 82.175028 301.8874 
L 80.784645 301.8874 
z
" clip-path="url(#p5161e4705a)" style="fill: #191970; stroke: #ffffff; stroke-width: 0.8; stroke-linejoin: miter"/>
   </g>
   <g id="patch_8">
    <path d="M 82.522624 307.584 
L 83.913008 307.584 
L 83.913008 304.284811 
L 82.522624 304.284811 
z
" clip-path="url(#p5161e4705a)" style="fill: #191970; stroke: #ffffff; stroke-width: 0.8; stroke-linejoin: miter"/>
   </g>
   <g id="patch_9">
    <path d="M 84.260603 307.584 
L 85.650987 307.584 
L 85.650987 303.363313 
L 84.260603 303.363313 
z
" clip-path="url(#p5161e4705a)" style="fill: #191970; stroke: #ffffff; stroke-width: 0.8; stroke-linejoin: miter"/>
   </g>
   <g id="patch_10">
    <path d="M 85.998583 307.584 
L 87.388966 307.584 
L 87.388966 304.102028 
L 85.998583 304.102028 
z
" clip-path="url(#p5161e4705a)" style="fill: #191970; stroke: #ffffff; stroke-width: 0.8; stroke-linejoin: miter"/>
   </g>
   <g id="patch_11">
    <path d="M 87.736562 307.584 
L 89.126946 307.584 
L 89.126946 304.092927 
L 87.736562 304.092927 
z
" clip-path="url(#p5161e4705a)" style="fill: #191970; stroke: #ffffff; stroke-width: 0.8; stroke-linejoin: miter"/>
   </g>
   <g id="patch_12">
    <path d="M 89.474542 307.584 
L 90.864925 307.584 
L 90.864925 305.776651 
L 89.474542 305.776651 
z
" clip-path="url(#p5161e4705a)" style="fill: #191970; stroke: #ffffff; stroke-width: 0.8; stroke-linejoin: miter"/>
   </g>
   <g id="patch_13">
    <path d="M 91.212521 307.584 
L 92.602904 307.584 
L 92.602904 306.251431 
L 91.212521 306.251431 
z
" clip-path="url(#p5161e4705a)" style="fill: #191970; stroke: #ffffff; stroke-width: 0.8; stroke-linejoin: miter"/>
   </g>
   <g id="patch_14">
    <path d="M 92.9505 307.584 
L 94.340884 307.584 
L 94.340884 306.035277 
L 92.9505 306.035277 
z
" clip-path="url(#p5161e4705a)" style="fill: #191970; stroke: #ffffff; stroke-width: 0.8; stroke-linejoin: miter"/>
   </g>
   <g id="patch_15">
    <path d="M 94.68848 307.584 
L 96.078863 307.584 
L 96.078863 305.345102 
L 94.68848 305.345102 
z
" clip-path="url(#p5161e4705a)" style="fill: #191970; stroke: #ffffff; stroke-width: 0.8; stroke-linejoin: miter"/>
   </g>
   <g id="patch_16">
    <path d="M 96.426459 307.584 
L 97.816843 307.584 
L 97.816843 304.480487 
L 96.426459 304.480487 
z
" clip-path="url(#p5161e4705a)" style="fill: #191970; stroke: #ffffff; stroke-width: 0.8; stroke-linejoin: miter"/>
   </g>
   <g id="patch_17">
    <path d="M 98.164438 307.584 
L 99.554822 307.584 
L 99.554822 303.52941 
L 98.164438 303.52941 
z
" clip-path="url(#p5161e4705a)" style="fill: #191970; stroke: #ffffff; stroke-width: 0.8; stroke-linejoin: miter"/>
   </g>
   <g id="patch_18">
    <path d="M 99.902418 307.584 
L 101.292801 307.584 
L 101.292801 304.534336 
L 99.902418 304.534336 
z
" clip-path="url(#p5161e4705a)" style="fill: #191970; stroke: #ffffff; stroke-width: 0.8; stroke-linejoin: miter"/>
   </g>
   <g id="patch_19">
    <path d="M 101.640397 307.584 
L 103.030781 307.584 
L 103.030781 305.298837 
L 101.640397 305.298837 
z
" clip-path="url(#p5161e4705a)" style="fill: #191970; stroke: #ffffff; stroke-width: 0.8; stroke-linejoin: miter"/>
   </g>
   <g id="patch_20">
    <path d="M 103.378376 307.584 
L 104.76876 307.584 
L 104.76876 305.659094 
L 103.378376 305.659094 
z
" clip-path="url(#p5161e4705a)" style="fill: #191970; stroke: #ffffff; stroke-width: 0.8; stroke-linejoin: miter"/>
   </g>
   <g id="patch_21">
    <path d="M 105.116356 307.584 
L 106.506739 307.584 
L 106.506739 305.232854 
L 105.116356 305.232854 
z
" clip-path="url(#p5161e4705a)" style="fill: #191970; stroke: #ffffff; stroke-width: 0.8; stroke-linejoin: miter"/>
   </g>
   <g id="patch_22">
    <path d="M 106.854335 307.584 
L 108.244719 307.584 
L 108.244719 304.7065 
L 106.854335 304.7065 
z
" clip-path="url(#p5161e4705a)" style="fill: #191970; stroke: #ffffff; stroke-width: 0.8; stroke-linejoin: miter"/>
   </g>
   <g id="patch_23">
    <path d="M 108.592315 307.584 
L 109.982698 307.584 
L 109.982698 305.370889 
L 108.592315 305.370889 
z
" clip-path="url(#p5161e4705a)" style="fill: #191970; stroke: #ffffff; stroke-width: 0.8; stroke-linejoin: miter"/>
   </g>
   <g id="patch_24">
    <path d="M 110.330294 307.584 
L 111.720677 307.584 
L 111.720677 305.633307 
L 110.330294 305.633307 
z
" clip-path="url(#p5161e4705a)" style="fill: #191970; stroke: #ffffff; stroke-width: 0.8; stroke-linejoin: miter"/>
   </g>
   <g id="patch_25">
    <path d="M 112.068273 307.584 
L 113.458657 307.584 
L 113.458657 304.649618 
L 112.068273 304.649618 
z
" clip-path="url(#p5161e4705a)" style="fill: #191970; stroke: #ffffff; stroke-width: 0.8; stroke-linejoin: miter"/>
   </g>
   <g id="patch_26">
    <path d="M 113.806253 307.584 
L 115.196636 307.584 
L 115.196636 303.192665 
L 113.806253 303.192665 
z
" clip-path="url(#p5161e4705a)" style="fill: #191970; stroke: #ffffff; stroke-width: 0.8; stroke-linejoin: miter"/>
   </g>
   <g id="patch_27">
    <path d="M 115.544232 307.584 
L 116.934616 307.584 
L 116.934616 302.51235 
L 115.544232 302.51235 
z
" clip-path="url(#p5161e4705a)" style="fill: #191970; stroke: #ffffff; stroke-width: 0.8; stroke-linejoin: miter"/>
   </g>
   <g id="patch_28">
    <path d="M 117.282211 307.584 
L 118.672595 307.584 
L 118.672595 298.355372 
L 117.282211 298.355372 
z
" clip-path="url(#p5161e4705a)" style="fill: #191970; stroke: #ffffff; stroke-width: 0.8; stroke-linejoin: miter"/>
   </g>
   <g id="patch_29">
    <path d="M 119.020191 307.584 
L 120.410574 307.584 
L 120.410574 293.446785 
L 119.020191 293.446785 
z
" clip-path="url(#p5161e4705a)" style="fill: #191970; stroke: #ffffff; stroke-width: 0.8; stroke-linejoin: miter"/>
   </g>
   <g id="patch_30">
    <path d="M 120.75817 307.584 
L 122.148554 307.584 
L 122.148554 295.684924 
L 120.75817 295.684924 
z
" clip-path="url(#p5161e4705a)" style="fill: #191970; stroke: #ffffff; stroke-width: 0.8; stroke-linejoin: miter"/>
   </g>
   <g id="patch_31">
    <path d="M 122.49615 307.584 
L 123.886533 307.584 
L 123.886533 300.354604 
L 122.49615 300.354604 
z
" clip-path="url(#p5161e4705a)" style="fill: #191970; stroke: #ffffff; stroke-width: 0.8; stroke-linejoin: miter"/>
   </g>
   <g id="patch_32">
    <path d="M 124.234129 307.584 
L 125.624512 307.584 
L 125.624512 304.358379 
L 124.234129 304.358379 
z
" clip-path="url(#p5161e4705a)" style="fill: #191970; stroke: #ffffff; stroke-width: 0.8; stroke-linejoin: miter"/>
   </g>
   <g id="patch_33">
    <path d="M 125.972108 307.584 
L 127.362492 307.584 
L 127.362492 306.05348 
L 125.972108 306.05348 
z
" clip-path="url(#p5161e4705a)" style="fill: #191970; stroke: #ffffff; stroke-width: 0.8; stroke-linejoin: miter"/>
   </g>
   <g id="patch_34">
    <path d="M 127.710088 307.584 
L 129.100471 307.584 
L 129.100471 306.705733 
L 127.710088 306.705733 
z
" clip-path="url(#p5161e4705a)" style="fill: #191970; stroke: #ffffff; stroke-width: 0.8; stroke-linejoin: miter"/>
   </g>
   <g id="patch_35">
    <path d="M 129.448067 307.584 
L 130.83845 307.584 
L 130.83845 307.082675 
L 129.448067 307.082675 
z
" clip-path="url(#p5161e4705a)" style="fill: #191970; stroke: #ffffff; stroke-width: 0.8; stroke-linejoin: miter"/>
   </g>
   <g id="patch_36">
    <path d="M 131.186046 307.584 
L 132.57643 307.584 
L 132.57643 307.280626 
L 131.186046 307.280626 
z
" clip-path="url(#p5161e4705a)" style="fill: #191970; stroke: #ffffff; stroke-width: 0.8; stroke-linejoin: miter"/>
   </g>
   <g id="patch_37">
    <path d="M 132.924026 307.584 
L 134.314409 307.584 
L 134.314409 305.231337 
L 132.924026 305.231337 
z
" clip-path="url(#p5161e4705a)" style="fill: #191970; stroke: #ffffff; stroke-width: 0.8; stroke-linejoin: miter"/>
   </g>
   <g id="patch_38">
    <path d="M 134.662005 307.584 
L 136.052389 307.584 
L 136.052389 304.593494 
L 134.662005 304.593494 
z
" clip-path="url(#p5161e4705a)" style="fill: #191970; stroke: #ffffff; stroke-width: 0.8; stroke-linejoin: miter"/>
   </g>
   <g id="patch_39">
    <path d="M 136.399984 307.584 
L 137.790368 307.584 
L 137.790368 305.549879 
L 136.399984 305.549879 
z
" clip-path="url(#p5161e4705a)" style="fill: #191970; stroke: #ffffff; stroke-width: 0.8; stroke-linejoin: miter"/>
   </g>
   <g id="patch_40">
    <path d="M 138.137964 307.584 
L 139.528347 307.584 
L 139.528347 306.623064 
L 138.137964 306.623064 
z
" clip-path="url(#p5161e4705a)" style="fill: #191970; stroke: #ffffff; stroke-width: 0.8; stroke-linejoin: miter"/>
   </g>
   <g id="patch_41">
    <path d="M 139.875943 307.584 
L 141.266327 307.584 
L 141.266327 304.797512 
L 139.875943 304.797512 
z
" clip-path="url(#p5161e4705a)" style="fill: #191970; stroke: #ffffff; stroke-width: 0.8; stroke-linejoin: miter"/>
   </g>
   <g id="patch_42">
    <path d="M 141.613923 307.584 
L 143.004306 307.584 
L 143.004306 301.251074 
L 141.613923 301.251074 
z
" clip-path="url(#p5161e4705a)" style="fill: #191970; stroke: #ffffff; stroke-width: 0.8; stroke-linejoin: miter"/>
   </g>
   <g id="patch_43">
    <path d="M 143.351902 307.584 
L 144.742285 307.584 
L 144.742285 298.595037 
L 143.351902 298.595037 
z
" clip-path="url(#p5161e4705a)" style="fill: #191970; stroke: #ffffff; stroke-width: 0.8; stroke-linejoin: miter"/>
   </g>
   <g id="patch_44">
    <path d="M 145.089881 307.584 
L 146.480265 307.584 
L 146.480265 299.672772 
L 145.089881 299.672772 
z
" clip-path="url(#p5161e4705a)" style="fill: #191970; stroke: #ffffff; stroke-width: 0.8; stroke-linejoin: miter"/>
   </g>
   <g id="patch_45">
    <path d="M 146.827861 307.584 
L 148.218244 307.584 
L 148.218244 300.35688 
L 146.827861 300.35688 
z
" clip-path="url(#p5161e4705a)" style="fill: #191970; stroke: #ffffff; stroke-width: 0.8; stroke-linejoin: miter"/>
   </g>
   <g id="patch_46">
    <path d="M 148.56584 307.584 
L 149.956223 307.584 
L 149.956223 303.96551 
L 148.56584 303.96551 
z
" clip-path="url(#p5161e4705a)" style="fill: #191970; stroke: #ffffff; stroke-width: 0.8; stroke-linejoin: miter"/>
   </g>
   <g id="patch_47">
    <path d="M 150.303819 307.584 
L 151.694203 307.584 
L 151.694203 303.928347 
L 150.303819 303.928347 
z
" clip-path="url(#p5161e4705a)" style="fill: #191970; stroke: #ffffff; stroke-width: 0.8; stroke-linejoin: miter"/>
   </g>
   <g id="patch_48">
    <path d="M 152.041799 307.584 
L 153.432182 307.584 
L 153.432182 302.354596 
L 152.041799 302.354596 
z
" clip-path="url(#p5161e4705a)" style="fill: #191970; stroke: #ffffff; stroke-width: 0.8; stroke-linejoin: miter"/>
   </g>
   <g id="patch_49">
    <path d="M 153.779778 307.584 
L 155.170162 307.584 
L 155.170162 300.940116 
L 153.779778 300.940116 
z
" clip-path="url(#p5161e4705a)" style="fill: #191970; stroke: #ffffff; stroke-width: 0.8; stroke-linejoin: miter"/>
   </g>
   <g id="patch_50">
    <path d="M 155.517757 307.584 
L 156.908141 307.584 
L 156.908141 301.300372 
L 155.517757 301.300372 
z
" clip-path="url(#p5161e4705a)" style="fill: #191970; stroke: #ffffff; stroke-width: 0.8; stroke-linejoin: miter"/>
   </g>
   <g id="patch_51">
    <path d="M 157.255737 307.584 
L 158.64612 307.584 
L 158.64612 302.98713 
L 157.255737 302.98713 
z
" clip-path="url(#p5161e4705a)" style="fill: #191970; stroke: #ffffff; stroke-width: 0.8; stroke-linejoin: miter"/>
   </g>
   <g id="patch_52">
    <path d="M 158.993716 307.584 
L 160.3841 307.584 
L 160.3841 303.890425 
L 158.993716 303.890425 
z
" clip-path="url(#p5161e4705a)" style="fill: #191970; stroke: #ffffff; stroke-width: 0.8; stroke-linejoin: miter"/>
   </g>
   <g id="patch_53">
    <path d="M 160.731696 307.584 
L 162.122079 307.584 
L 162.122079 305.314765 
L 160.731696 305.314765 
z
" clip-path="url(#p5161e4705a)" style="fill: #191970; stroke: #ffffff; stroke-width: 0.8; stroke-linejoin: miter"/>
   </g>
   <g id="patch_54">
    <path d="M 162.469675 307.584 
L 163.860058 307.584 
L 163.860058 300.488847 
L 162.469675 300.488847 
z
" clip-path="url(#p5161e4705a)" style="fill: #191970; stroke: #ffffff; stroke-width: 0.8; stroke-linejoin: miter"/>
   </g>
   <g id="patch_55">
    <path d="M 164.207654 307.584 
L 165.598038 307.584 
L 165.598038 297.367132 
L 164.207654 297.367132 
z
" clip-path="url(#p5161e4705a)" style="fill: #191970; stroke: #ffffff; stroke-width: 0.8; stroke-linejoin: miter"/>
   </g>
   <g id="patch_56">
    <path d="M 165.945634 307.584 
L 167.336017 307.584 
L 167.336017 298.811191 
L 165.945634 298.811191 
z
" clip-path="url(#p5161e4705a)" style="fill: #191970; stroke: #ffffff; stroke-width: 0.8; stroke-linejoin: miter"/>
   </g>
   <g id="patch_57">
    <path d="M 167.683613 307.584 
L 169.073996 307.584 
L 169.073996 300.624607 
L 167.683613 300.624607 
z
" clip-path="url(#p5161e4705a)" style="fill: #191970; stroke: #ffffff; stroke-width: 0.8; stroke-linejoin: miter"/>
   </g>
   <g id="patch_58">
    <path d="M 169.421592 307.584 
L 170.811976 307.584 
L 170.811976 300.867306 
L 169.421592 300.867306 
z
" clip-path="url(#p5161e4705a)" style="fill: #191970; stroke: #ffffff; stroke-width: 0.8; stroke-linejoin: miter"/>
   </g>
   <g id="patch_59">
    <path d="M 171.159572 307.584 
L 172.549955 307.584 
L 172.549955 300.625365 
L 171.159572 300.625365 
z
" clip-path="url(#p5161e4705a)" style="fill: #191970; stroke: #ffffff; stroke-width: 0.8; stroke-linejoin: miter"/>
   </g>
   <g id="patch_60">
    <path d="M 172.897551 307.584 
L 174.287935 307.584 
L 174.287935 302.414512 
L 172.897551 302.414512 
z
" clip-path="url(#p5161e4705a)" style="fill: #191970; stroke: #ffffff; stroke-width: 0.8; stroke-linejoin: miter"/>
   </g>
   <g id="patch_61">
    <path d="M 174.63553 307.584 
L 176.025914 307.584 
L 176.025914 303.726603 
L 174.63553 303.726603 
z
" clip-path="url(#p5161e4705a)" style="fill: #191970; stroke: #ffffff; stroke-width: 0.8; stroke-linejoin: miter"/>
   </g>
   <g id="patch_62">
    <path d="M 176.37351 307.584 
L 177.763893 307.584 
L 177.763893 306.184689 
L 176.37351 306.184689 
z
" clip-path="url(#p5161e4705a)" style="fill: #191970; stroke: #ffffff; stroke-width: 0.8; stroke-linejoin: miter"/>
   </g>
   <g id="patch_63">
    <path d="M 178.111489 307.584 
L 179.501873 307.584 
L 179.501873 303.03567 
L 178.111489 303.03567 
z
" clip-path="url(#p5161e4705a)" style="fill: #191970; stroke: #ffffff; stroke-width: 0.8; stroke-linejoin: miter"/>
   </g>
   <g id="patch_64">
    <path d="M 179.849469 307.584 
L 181.239852 307.584 
L 181.239852 300.130866 
L 179.849469 300.130866 
z
" clip-path="url(#p5161e4705a)" style="fill: #191970; stroke: #ffffff; stroke-width: 0.8; stroke-linejoin: miter"/>
   </g>
   <g id="patch_65">
    <path d="M 181.587448 307.584 
L 182.977831 307.584 
L 182.977831 301.10773 
L 181.587448 301.10773 
z
" clip-path="url(#p5161e4705a)" style="fill: #191970; stroke: #ffffff; stroke-width: 0.8; stroke-linejoin: miter"/>
   </g>
   <g id="patch_66">
    <path d="M 183.325427 307.584 
L 184.715811 307.584 
L 184.715811 302.550272 
L 183.325427 302.550272 
z
" clip-path="url(#p5161e4705a)" style="fill: #191970; stroke: #ffffff; stroke-width: 0.8; stroke-linejoin: miter"/>
   </g>
   <g id="patch_67">
    <path d="M 185.063407 307.584 
L 186.45379 307.584 
L 186.45379 304.732287 
L 185.063407 304.732287 
z
" clip-path="url(#p5161e4705a)" style="fill: #191970; stroke: #ffffff; stroke-width: 0.8; stroke-linejoin: miter"/>
   </g>
   <g id="patch_68">
    <path d="M 186.801386 307.584 
L 188.19177 307.584 
L 188.19177 306.293145 
L 186.801386 306.293145 
z
" clip-path="url(#p5161e4705a)" style="fill: #191970; stroke: #ffffff; stroke-width: 0.8; stroke-linejoin: miter"/>
   </g>
   <g id="patch_69">
    <path d="M 188.539365 307.584 
L 189.929749 307.584 
L 189.929749 306.720902 
L 188.539365 306.720902 
z
" clip-path="url(#p5161e4705a)" style="fill: #191970; stroke: #ffffff; stroke-width: 0.8; stroke-linejoin: miter"/>
   </g>
   <g id="patch_70">
    <path d="M 190.277345 307.584 
L 191.667728 307.584 
L 191.667728 306.641266 
L 190.277345 306.641266 
z
" clip-path="url(#p5161e4705a)" style="fill: #191970; stroke: #ffffff; stroke-width: 0.8; stroke-linejoin: miter"/>
   </g>
   <g id="patch_71">
    <path d="M 192.015324 307.584 
L 193.405708 307.584 
L 193.405708 304.582117 
L 192.015324 304.582117 
z
" clip-path="url(#p5161e4705a)" style="fill: #191970; stroke: #ffffff; stroke-width: 0.8; stroke-linejoin: miter"/>
   </g>
   <g id="patch_72">
    <path d="M 193.753303 307.584 
L 195.143687 307.584 
L 195.143687 304.61473 
L 193.753303 304.61473 
z
" clip-path="url(#p5161e4705a)" style="fill: #191970; stroke: #ffffff; stroke-width: 0.8; stroke-linejoin: miter"/>
   </g>
   <g id="patch_73">
    <path d="M 195.491283 307.584 
L 196.881666 307.584 
L 196.881666 304.824058 
L 195.491283 304.824058 
z
" clip-path="url(#p5161e4705a)" style="fill: #191970; stroke: #ffffff; stroke-width: 0.8; stroke-linejoin: miter"/>
   </g>
   <g id="patch_74">
    <path d="M 197.229262 307.584 
L 198.619646 307.584 
L 198.619646 305.106195 
L 197.229262 305.106195 
z
" clip-path="url(#p5161e4705a)" style="fill: #191970; stroke: #ffffff; stroke-width: 0.8; stroke-linejoin: miter"/>
   </g>
   <g id="patch_75">
    <path d="M 198.967242 307.584 
L 200.357625 307.584 
L 200.357625 303.512725 
L 198.967242 303.512725 
z
" clip-path="url(#p5161e4705a)" style="fill: #191970; stroke: #ffffff; stroke-width: 0.8; stroke-linejoin: miter"/>
   </g>
   <g id="patch_76">
    <path d="M 200.705221 307.584 
L 202.095604 307.584 
L 202.095604 301.419446 
L 200.705221 301.419446 
z
" clip-path="url(#p5161e4705a)" style="fill: #191970; stroke: #ffffff; stroke-width: 0.8; stroke-linejoin: miter"/>
   </g>
   <g id="patch_77">
    <path d="M 202.4432 307.584 
L 203.833584 307.584 
L 203.833584 300.607921 
L 202.4432 300.607921 
z
" clip-path="url(#p5161e4705a)" style="fill: #191970; stroke: #ffffff; stroke-width: 0.8; stroke-linejoin: miter"/>
   </g>
   <g id="patch_78">
    <path d="M 204.18118 307.584 
L 205.571563 307.584 
L 205.571563 303.42323 
L 204.18118 303.42323 
z
" clip-path="url(#p5161e4705a)" style="fill: #191970; stroke: #ffffff; stroke-width: 0.8; stroke-linejoin: miter"/>
   </g>
   <g id="patch_79">
    <path d="M 205.919159 307.584 
L 207.309543 307.584 
L 207.309543 304.897626 
L 205.919159 304.897626 
z
" clip-path="url(#p5161e4705a)" style="fill: #191970; stroke: #ffffff; stroke-width: 0.8; stroke-linejoin: miter"/>
   </g>
   <g id="patch_80">
    <path d="M 207.657138 307.584 
L 209.047522 307.584 
L 209.047522 305.653785 
L 207.657138 305.653785 
z
" clip-path="url(#p5161e4705a)" style="fill: #191970; stroke: #ffffff; stroke-width: 0.8; stroke-linejoin: miter"/>
   </g>
   <g id="patch_81">
    <path d="M 209.395118 307.584 
L 210.785501 307.584 
L 210.785501 305.759207 
L 209.395118 305.759207 
z
" clip-path="url(#p5161e4705a)" style="fill: #191970; stroke: #ffffff; stroke-width: 0.8; stroke-linejoin: miter"/>
   </g>
   <g id="patch_82">
    <path d="M 211.133097 307.584 
L 212.523481 307.584 
L 212.523481 304.428155 
L 211.133097 304.428155 
z
" clip-path="url(#p5161e4705a)" style="fill: #191970; stroke: #ffffff; stroke-width: 0.8; stroke-linejoin: miter"/>
   </g>
   <g id="patch_83">
    <path d="M 212.871077 307.584 
L 214.26146 307.584 
L 214.26146 302.617014 
L 212.871077 302.617014 
z
" clip-path="url(#p5161e4705a)" style="fill: #191970; stroke: #ffffff; stroke-width: 0.8; stroke-linejoin: miter"/>
   </g>
   <g id="patch_84">
    <path d="M 214.609056 307.584 
L 215.999439 307.584 
L 215.999439 302.870331 
L 214.609056 302.870331 
z
" clip-path="url(#p5161e4705a)" style="fill: #191970; stroke: #ffffff; stroke-width: 0.8; stroke-linejoin: miter"/>
   </g>
   <g id="patch_85">
    <path d="M 216.347035 307.584 
L 217.737419 307.584 
L 217.737419 302.919629 
L 216.347035 302.919629 
z
" clip-path="url(#p5161e4705a)" style="fill: #191970; stroke: #ffffff; stroke-width: 0.8; stroke-linejoin: miter"/>
   </g>
   <g id="patch_86">
    <path d="M 218.085015 307.584 
L 219.475398 307.584 
L 219.475398 304.364446 
L 218.085015 304.364446 
z
" clip-path="url(#p5161e4705a)" style="fill: #191970; stroke: #ffffff; stroke-width: 0.8; stroke-linejoin: miter"/>
   </g>
   <g id="patch_87">
    <path d="M 219.822994 307.584 
L 221.213377 307.584 
L 221.213377 305.389091 
L 219.822994 305.389091 
z
" clip-path="url(#p5161e4705a)" style="fill: #191970; stroke: #ffffff; stroke-width: 0.8; stroke-linejoin: miter"/>
   </g>
   <g id="patch_88">
    <path d="M 221.560973 307.584 
L 222.951357 307.584 
L 222.951357 305.935922 
L 221.560973 305.935922 
z
" clip-path="url(#p5161e4705a)" style="fill: #191970; stroke: #ffffff; stroke-width: 0.8; stroke-linejoin: miter"/>
   </g>
   <g id="patch_89">
    <path d="M 223.298953 307.584 
L 224.689336 307.584 
L 224.689336 306.059547 
L 223.298953 306.059547 
z
" clip-path="url(#p5161e4705a)" style="fill: #191970; stroke: #ffffff; stroke-width: 0.8; stroke-linejoin: miter"/>
   </g>
   <g id="patch_90">
    <path d="M 225.036932 307.584 
L 226.427316 307.584 
L 226.427316 304.333351 
L 225.036932 304.333351 
z
" clip-path="url(#p5161e4705a)" style="fill: #191970; stroke: #ffffff; stroke-width: 0.8; stroke-linejoin: miter"/>
   </g>
   <g id="patch_91">
    <path d="M 226.774911 307.584 
L 228.165295 307.584 
L 228.165295 302.65266 
L 226.774911 302.65266 
z
" clip-path="url(#p5161e4705a)" style="fill: #191970; stroke: #ffffff; stroke-width: 0.8; stroke-linejoin: miter"/>
   </g>
   <g id="patch_92">
    <path d="M 228.512891 307.584 
L 229.903274 307.584 
L 229.903274 303.352695 
L 228.512891 303.352695 
z
" clip-path="url(#p5161e4705a)" style="fill: #191970; stroke: #ffffff; stroke-width: 0.8; stroke-linejoin: miter"/>
   </g>
   <g id="patch_93">
    <path d="M 230.25087 307.584 
L 231.641254 307.584 
L 231.641254 303.422471 
L 230.25087 303.422471 
z
" clip-path="url(#p5161e4705a)" style="fill: #191970; stroke: #ffffff; stroke-width: 0.8; stroke-linejoin: miter"/>
   </g>
   <g id="patch_94">
    <path d="M 231.98885 307.584 
L 233.379233 307.584 
L 233.379233 302.740639 
L 231.98885 302.740639 
z
" clip-path="url(#p5161e4705a)" style="fill: #191970; stroke: #ffffff; stroke-width: 0.8; stroke-linejoin: miter"/>
   </g>
   <g id="patch_95">
    <path d="M 233.726829 307.584 
L 235.117212 307.584 
L 235.117212 302.874882 
L 233.726829 302.874882 
z
" clip-path="url(#p5161e4705a)" style="fill: #191970; stroke: #ffffff; stroke-width: 0.8; stroke-linejoin: miter"/>
   </g>
   <g id="patch_96">
    <path d="M 235.464808 307.584 
L 236.855192 307.584 
L 236.855192 304.617005 
L 235.464808 304.617005 
z
" clip-path="url(#p5161e4705a)" style="fill: #191970; stroke: #ffffff; stroke-width: 0.8; stroke-linejoin: miter"/>
   </g>
   <g id="patch_97">
    <path d="M 237.202788 307.584 
L 238.593171 307.584 
L 238.593171 305.493755 
L 237.202788 305.493755 
z
" clip-path="url(#p5161e4705a)" style="fill: #191970; stroke: #ffffff; stroke-width: 0.8; stroke-linejoin: miter"/>
   </g>
   <g id="patch_98">
    <path d="M 238.940767 307.584 
L 240.33115 307.584 
L 240.33115 304.805855 
L 238.940767 304.805855 
z
" clip-path="url(#p5161e4705a)" style="fill: #191970; stroke: #ffffff; stroke-width: 0.8; stroke-linejoin: miter"/>
   </g>
   <g id="patch_99">
    <path d="M 240.678746 307.584 
L 242.06913 307.584 
L 242.06913 303.331459 
L 240.678746 303.331459 
z
" clip-path="url(#p5161e4705a)" style="fill: #191970; stroke: #ffffff; stroke-width: 0.8; stroke-linejoin: miter"/>
   </g>
   <g id="patch_100">
    <path d="M 242.416726 307.584 
L 243.807109 307.584 
L 243.807109 304.290878 
L 242.416726 304.290878 
z
" clip-path="url(#p5161e4705a)" style="fill: #191970; stroke: #ffffff; stroke-width: 0.8; stroke-linejoin: miter"/>
   </g>
   <g id="patch_101">
    <path d="M 244.154705 307.584 
L 245.545089 307.584 
L 245.545089 304.302255 
L 244.154705 304.302255 
z
" clip-path="url(#p5161e4705a)" style="fill: #191970; stroke: #ffffff; stroke-width: 0.8; stroke-linejoin: miter"/>
   </g>
   <g id="patch_102">
    <path d="M 245.892684 307.584 
L 247.283068 307.584 
L 247.283068 304.714843 
L 245.892684 304.714843 
z
" clip-path="url(#p5161e4705a)" style="fill: #191970; stroke: #ffffff; stroke-width: 0.8; stroke-linejoin: miter"/>
   </g>
   <g id="patch_103">
    <path d="M 247.630664 307.584 
L 249.021047 307.584 
L 249.021047 305.4528 
L 247.630664 305.4528 
z
" clip-path="url(#p5161e4705a)" style="fill: #191970; stroke: #ffffff; stroke-width: 0.8; stroke-linejoin: miter"/>
   </g>
   <g id="patch_104">
    <path d="M 249.368643 307.584 
L 250.759027 307.584 
L 250.759027 305.839601 
L 249.368643 305.839601 
z
" clip-path="url(#p5161e4705a)" style="fill: #191970; stroke: #ffffff; stroke-width: 0.8; stroke-linejoin: miter"/>
   </g>
   <g id="patch_105">
    <path d="M 251.106623 307.584 
L 252.497006 307.584 
L 252.497006 305.967018 
L 251.106623 305.967018 
z
" clip-path="url(#p5161e4705a)" style="fill: #191970; stroke: #ffffff; stroke-width: 0.8; stroke-linejoin: miter"/>
   </g>
   <g id="patch_106">
    <path d="M 252.844602 307.584 
L 254.234985 307.584 
L 254.234985 305.691706 
L 252.844602 305.691706 
z
" clip-path="url(#p5161e4705a)" style="fill: #191970; stroke: #ffffff; stroke-width: 0.8; stroke-linejoin: miter"/>
   </g>
   <g id="patch_107">
    <path d="M 254.582581 307.584 
L 255.972965 307.584 
L 255.972965 306.111121 
L 254.582581 306.111121 
z
" clip-path="url(#p5161e4705a)" style="fill: #191970; stroke: #ffffff; stroke-width: 0.8; stroke-linejoin: miter"/>
   </g>
   <g id="patch_108">
    <path d="M 256.320561 307.584 
L 257.710944 307.584 
L 257.710944 305.462659 
L 256.320561 305.462659 
z
" clip-path="url(#p5161e4705a)" style="fill: #191970; stroke: #ffffff; stroke-width: 0.8; stroke-linejoin: miter"/>
   </g>
   <g id="patch_109">
    <path d="M 258.05854 307.584 
L 259.448923 307.584 
L 259.448923 304.864255 
L 258.05854 304.864255 
z
" clip-path="url(#p5161e4705a)" style="fill: #191970; stroke: #ffffff; stroke-width: 0.8; stroke-linejoin: miter"/>
   </g>
   <g id="patch_110">
    <path d="M 259.796519 307.584 
L 261.186903 307.584 
L 261.186903 305.068273 
L 259.796519 305.068273 
z
" clip-path="url(#p5161e4705a)" style="fill: #191970; stroke: #ffffff; stroke-width: 0.8; stroke-linejoin: miter"/>
   </g>
   <g id="patch_111">
    <path d="M 261.534499 307.584 
L 262.924882 307.584 
L 262.924882 304.38189 
L 261.534499 304.38189 
z
" clip-path="url(#p5161e4705a)" style="fill: #191970; stroke: #ffffff; stroke-width: 0.8; stroke-linejoin: miter"/>
   </g>
   <g id="patch_112">
    <path d="M 263.272478 307.584 
L 264.662862 307.584 
L 264.662862 304.509307 
L 263.272478 304.509307 
z
" clip-path="url(#p5161e4705a)" style="fill: #191970; stroke: #ffffff; stroke-width: 0.8; stroke-linejoin: miter"/>
   </g>
   <g id="patch_113">
    <path d="M 265.010457 307.584 
L 266.400841 307.584 
L 266.400841 305.294287 
L 265.010457 305.294287 
z
" clip-path="url(#p5161e4705a)" style="fill: #191970; stroke: #ffffff; stroke-width: 0.8; stroke-linejoin: miter"/>
   </g>
   <g id="patch_114">
    <path d="M 266.748437 307.584 
L 268.13882 307.584 
L 268.13882 306.064856 
L 266.748437 306.064856 
z
" clip-path="url(#p5161e4705a)" style="fill: #191970; stroke: #ffffff; stroke-width: 0.8; stroke-linejoin: miter"/>
   </g>
   <g id="patch_115">
    <path d="M 268.486416 307.584 
L 269.8768 307.584 
L 269.8768 305.502856 
L 268.486416 305.502856 
z
" clip-path="url(#p5161e4705a)" style="fill: #191970; stroke: #ffffff; stroke-width: 0.8; stroke-linejoin: miter"/>
   </g>
   <g id="patch_116">
    <path d="M 270.224396 307.584 
L 271.614779 307.584 
L 271.614779 305.035661 
L 270.224396 305.035661 
z
" clip-path="url(#p5161e4705a)" style="fill: #191970; stroke: #ffffff; stroke-width: 0.8; stroke-linejoin: miter"/>
   </g>
   <g id="patch_117">
    <path d="M 271.962375 307.584 
L 273.352758 307.584 
L 273.352758 304.711051 
L 271.962375 304.711051 
z
" clip-path="url(#p5161e4705a)" style="fill: #191970; stroke: #ffffff; stroke-width: 0.8; stroke-linejoin: miter"/>
   </g>
   <g id="patch_118">
    <path d="M 273.700354 307.584 
L 275.090738 307.584 
L 275.090738 302.519176 
L 273.700354 302.519176 
z
" clip-path="url(#p5161e4705a)" style="fill: #191970; stroke: #ffffff; stroke-width: 0.8; stroke-linejoin: miter"/>
   </g>
   <g id="patch_119">
    <path d="M 275.438334 307.584 
L 276.828717 307.584 
L 276.828717 301.414137 
L 275.438334 301.414137 
z
" clip-path="url(#p5161e4705a)" style="fill: #191970; stroke: #ffffff; stroke-width: 0.8; stroke-linejoin: miter"/>
   </g>
   <g id="patch_120">
    <path d="M 277.176313 307.584 
L 278.566697 307.584 
L 278.566697 303.460393 
L 277.176313 303.460393 
z
" clip-path="url(#p5161e4705a)" style="fill: #191970; stroke: #ffffff; stroke-width: 0.8; stroke-linejoin: miter"/>
   </g>
   <g id="patch_121">
    <path d="M 278.914292 307.584 
L 280.304676 307.584 
L 280.304676 305.629515 
L 278.914292 305.629515 
z
" clip-path="url(#p5161e4705a)" style="fill: #191970; stroke: #ffffff; stroke-width: 0.8; stroke-linejoin: miter"/>
   </g>
   <g id="patch_122">
    <path d="M 280.652272 307.584 
L 282.042655 307.584 
L 282.042655 306.488821 
L 280.652272 306.488821 
z
" clip-path="url(#p5161e4705a)" style="fill: #191970; stroke: #ffffff; stroke-width: 0.8; stroke-linejoin: miter"/>
   </g>
   <g id="patch_123">
    <path d="M 282.390251 307.584 
L 283.780635 307.584 
L 283.780635 305.167628 
L 282.390251 305.167628 
z
" clip-path="url(#p5161e4705a)" style="fill: #191970; stroke: #ffffff; stroke-width: 0.8; stroke-linejoin: miter"/>
   </g>
   <g id="patch_124">
    <path d="M 284.12823 307.584 
L 285.518614 307.584 
L 285.518614 302.823308 
L 284.12823 302.823308 
z
" clip-path="url(#p5161e4705a)" style="fill: #191970; stroke: #ffffff; stroke-width: 0.8; stroke-linejoin: miter"/>
   </g>
   <g id="patch_125">
    <path d="M 285.86621 307.584 
L 287.256593 307.584 
L 287.256593 299.014451 
L 285.86621 299.014451 
z
" clip-path="url(#p5161e4705a)" style="fill: #191970; stroke: #ffffff; stroke-width: 0.8; stroke-linejoin: miter"/>
   </g>
   <g id="patch_126">
    <path d="M 287.604189 307.584 
L 288.994573 307.584 
L 288.994573 296.895386 
L 287.604189 296.895386 
z
" clip-path="url(#p5161e4705a)" style="fill: #191970; stroke: #ffffff; stroke-width: 0.8; stroke-linejoin: miter"/>
   </g>
   <g id="patch_127">
    <path d="M 289.342169 307.584 
L 290.732552 307.584 
L 290.732552 297.564325 
L 289.342169 297.564325 
z
" clip-path="url(#p5161e4705a)" style="fill: #191970; stroke: #ffffff; stroke-width: 0.8; stroke-linejoin: miter"/>
   </g>
   <g id="patch_128">
    <path d="M 291.080148 307.584 
L 292.470531 307.584 
L 292.470531 300.378116 
L 291.080148 300.378116 
z
" clip-path="url(#p5161e4705a)" style="fill: #191970; stroke: #ffffff; stroke-width: 0.8; stroke-linejoin: miter"/>
   </g>
   <g id="patch_129">
    <path d="M 292.818127 307.584 
L 294.208511 307.584 
L 294.208511 304.520684 
L 292.818127 304.520684 
z
" clip-path="url(#p5161e4705a)" style="fill: #191970; stroke: #ffffff; stroke-width: 0.8; stroke-linejoin: miter"/>
   </g>
   <g id="patch_130">
    <path d="M 294.556107 307.584 
L 295.94649 307.584 
L 295.94649 304.554813 
L 294.556107 304.554813 
z
" clip-path="url(#p5161e4705a)" style="fill: #191970; stroke: #ffffff; stroke-width: 0.8; stroke-linejoin: miter"/>
   </g>
   <g id="patch_131">
    <path d="M 296.294086 307.584 
L 297.68447 307.584 
L 297.68447 301.947316 
L 296.294086 301.947316 
z
" clip-path="url(#p5161e4705a)" style="fill: #191970; stroke: #ffffff; stroke-width: 0.8; stroke-linejoin: miter"/>
   </g>
   <g id="patch_132">
    <path d="M 298.032065 307.584 
L 299.422449 307.584 
L 299.422449 302.437265 
L 298.032065 302.437265 
z
" clip-path="url(#p5161e4705a)" style="fill: #191970; stroke: #ffffff; stroke-width: 0.8; stroke-linejoin: miter"/>
   </g>
   <g id="patch_133">
    <path d="M 299.770045 307.584 
L 301.160428 307.584 
L 301.160428 303.198733 
L 299.770045 303.198733 
z
" clip-path="url(#p5161e4705a)" style="fill: #191970; stroke: #ffffff; stroke-width: 0.8; stroke-linejoin: miter"/>
   </g>
   <g id="patch_134">
    <path d="M 301.508024 307.584 
L 302.898408 307.584 
L 302.898408 303.602978 
L 301.508024 303.602978 
z
" clip-path="url(#p5161e4705a)" style="fill: #191970; stroke: #ffffff; stroke-width: 0.8; stroke-linejoin: miter"/>
   </g>
   <g id="patch_135">
    <path d="M 303.246004 307.584 
L 304.636387 307.584 
L 304.636387 303.977645 
L 303.246004 303.977645 
z
" clip-path="url(#p5161e4705a)" style="fill: #191970; stroke: #ffffff; stroke-width: 0.8; stroke-linejoin: miter"/>
   </g>
   <g id="patch_136">
    <path d="M 304.983983 307.584 
L 306.374366 307.584 
L 306.374366 302.63825 
L 304.983983 302.63825 
z
" clip-path="url(#p5161e4705a)" style="fill: #191970; stroke: #ffffff; stroke-width: 0.8; stroke-linejoin: miter"/>
   </g>
   <g id="patch_137">
    <path d="M 306.721962 307.584 
L 308.112346 307.584 
L 308.112346 302.214285 
L 306.721962 302.214285 
z
" clip-path="url(#p5161e4705a)" style="fill: #191970; stroke: #ffffff; stroke-width: 0.8; stroke-linejoin: miter"/>
   </g>
   <g id="patch_138">
    <path d="M 308.459942 307.584 
L 309.850325 307.584 
L 309.850325 300.949217 
L 308.459942 300.949217 
z
" clip-path="url(#p5161e4705a)" style="fill: #191970; stroke: #ffffff; stroke-width: 0.8; stroke-linejoin: miter"/>
   </g>
   <g id="patch_139">
    <path d="M 310.197921 307.584 
L 311.588304 307.584 
L 311.588304 299.09712 
L 310.197921 299.09712 
z
" clip-path="url(#p5161e4705a)" style="fill: #191970; stroke: #ffffff; stroke-width: 0.8; stroke-linejoin: miter"/>
   </g>
   <g id="patch_140">
    <path d="M 311.9359 307.584 
L 313.326284 307.584 
L 313.326284 299.889684 
L 311.9359 299.889684 
z
" clip-path="url(#p5161e4705a)" style="fill: #191970; stroke: #ffffff; stroke-width: 0.8; stroke-linejoin: miter"/>
   </g>
   <g id="patch_141">
    <path d="M 313.67388 307.584 
L 315.064263 307.584 
L 315.064263 300.214294 
L 313.67388 300.214294 
z
" clip-path="url(#p5161e4705a)" style="fill: #191970; stroke: #ffffff; stroke-width: 0.8; stroke-linejoin: miter"/>
   </g>
   <g id="patch_142">
    <path d="M 315.411859 307.584 
L 316.802243 307.584 
L 316.802243 302.171055 
L 315.411859 302.171055 
z
" clip-path="url(#p5161e4705a)" style="fill: #191970; stroke: #ffffff; stroke-width: 0.8; stroke-linejoin: miter"/>
   </g>
   <g id="patch_143">
    <path d="M 317.149838 307.584 
L 318.540222 307.584 
L 318.540222 303.591602 
L 317.149838 303.591602 
z
" clip-path="url(#p5161e4705a)" style="fill: #191970; stroke: #ffffff; stroke-width: 0.8; stroke-linejoin: miter"/>
   </g>
   <g id="patch_144">
    <path d="M 318.887818 307.584 
L 320.278201 307.584 
L 320.278201 304.089135 
L 318.887818 304.089135 
z
" clip-path="url(#p5161e4705a)" style="fill: #191970; stroke: #ffffff; stroke-width: 0.8; stroke-linejoin: miter"/>
   </g>
   <g id="patch_145">
    <path d="M 320.625797 307.584 
L 322.016181 307.584 
L 322.016181 304.328042 
L 320.625797 304.328042 
z
" clip-path="url(#p5161e4705a)" style="fill: #191970; stroke: #ffffff; stroke-width: 0.8; stroke-linejoin: miter"/>
   </g>
   <g id="patch_146">
    <path d="M 322.363777 307.584 
L 323.75416 307.584 
L 323.75416 304.083067 
L 322.363777 304.083067 
z
" clip-path="url(#p5161e4705a)" style="fill: #191970; stroke: #ffffff; stroke-width: 0.8; stroke-linejoin: miter"/>
   </g>
   <g id="patch_147">
    <path d="M 324.101756 307.584 
L 325.492139 307.584 
L 325.492139 299.514259 
L 324.101756 299.514259 
z
" clip-path="url(#p5161e4705a)" style="fill: #191970; stroke: #ffffff; stroke-width: 0.8; stroke-linejoin: miter"/>
   </g>
   <g id="patch_148">
    <path d="M 325.839735 307.584 
L 327.230119 307.584 
L 327.230119 298.114948 
L 325.839735 298.114948 
z
" clip-path="url(#p5161e4705a)" style="fill: #191970; stroke: #ffffff; stroke-width: 0.8; stroke-linejoin: miter"/>
   </g>
   <g id="patch_149">
    <path d="M 327.577715 307.584 
L 328.968098 307.584 
L 328.968098 301.243489 
L 327.577715 301.243489 
z
" clip-path="url(#p5161e4705a)" style="fill: #191970; stroke: #ffffff; stroke-width: 0.8; stroke-linejoin: miter"/>
   </g>
   <g id="patch_150">
    <path d="M 329.315694 307.584 
L 330.706077 307.584 
L 330.706077 304.450908 
L 329.315694 304.450908 
z
" clip-path="url(#p5161e4705a)" style="fill: #191970; stroke: #ffffff; stroke-width: 0.8; stroke-linejoin: miter"/>
   </g>
   <g id="patch_151">
    <path d="M 331.053673 307.584 
L 332.444057 307.584 
L 332.444057 305.300354 
L 331.053673 305.300354 
z
" clip-path="url(#p5161e4705a)" style="fill: #191970; stroke: #ffffff; stroke-width: 0.8; stroke-linejoin: miter"/>
   </g>
   <g id="patch_152">
    <path d="M 332.791653 307.584 
L 334.182036 307.584 
L 334.182036 306.059547 
L 332.791653 306.059547 
z
" clip-path="url(#p5161e4705a)" style="fill: #191970; stroke: #ffffff; stroke-width: 0.8; stroke-linejoin: miter"/>
   </g>
   <g id="patch_153">
    <path d="M 334.529632 307.584 
L 335.920016 307.584 
L 335.920016 305.445215 
L 334.529632 305.445215 
z
" clip-path="url(#p5161e4705a)" style="fill: #191970; stroke: #ffffff; stroke-width: 0.8; stroke-linejoin: miter"/>
   </g>
   <g id="patch_154">
    <path d="M 336.267611 307.584 
L 337.657995 307.584 
L 337.657995 305.446732 
L 336.267611 305.446732 
z
" clip-path="url(#p5161e4705a)" style="fill: #191970; stroke: #ffffff; stroke-width: 0.8; stroke-linejoin: miter"/>
   </g>
   <g id="patch_155">
    <path d="M 338.005591 307.584 
L 339.395974 307.584 
L 339.395974 306.089884 
L 338.005591 306.089884 
z
" clip-path="url(#p5161e4705a)" style="fill: #191970; stroke: #ffffff; stroke-width: 0.8; stroke-linejoin: miter"/>
   </g>
   <g id="patch_156">
    <path d="M 339.74357 307.584 
L 341.133954 307.584 
L 341.133954 305.413361 
L 339.74357 305.413361 
z
" clip-path="url(#p5161e4705a)" style="fill: #191970; stroke: #ffffff; stroke-width: 0.8; stroke-linejoin: miter"/>
   </g>
   <g id="patch_157">
    <path d="M 341.48155 307.584 
L 342.871933 307.584 
L 342.871933 305.541536 
L 341.48155 305.541536 
z
" clip-path="url(#p5161e4705a)" style="fill: #191970; stroke: #ffffff; stroke-width: 0.8; stroke-linejoin: miter"/>
   </g>
   <g id="patch_158">
    <path d="M 343.219529 307.584 
L 344.609912 307.584 
L 344.609912 306.347752 
L 343.219529 306.347752 
z
" clip-path="url(#p5161e4705a)" style="fill: #191970; stroke: #ffffff; stroke-width: 0.8; stroke-linejoin: miter"/>
   </g>
   <g id="patch_159">
    <path d="M 344.957508 307.584 
L 346.347892 307.584 
L 346.347892 306.899134 
L 344.957508 306.899134 
z
" clip-path="url(#p5161e4705a)" style="fill: #191970; stroke: #ffffff; stroke-width: 0.8; stroke-linejoin: miter"/>
   </g>
   <g id="patch_160">
    <path d="M 346.695488 307.584 
L 348.085871 307.584 
L 348.085871 304.680714 
L 346.695488 304.680714 
z
" clip-path="url(#p5161e4705a)" style="fill: #191970; stroke: #ffffff; stroke-width: 0.8; stroke-linejoin: miter"/>
   </g>
   <g id="patch_161">
    <path d="M 348.433467 307.584 
L 349.82385 307.584 
L 349.82385 302.133133 
L 348.433467 302.133133 
z
" clip-path="url(#p5161e4705a)" style="fill: #191970; stroke: #ffffff; stroke-width: 0.8; stroke-linejoin: miter"/>
   </g>
   <g id="patch_162">
    <path d="M 350.171446 307.584 
L 351.56183 307.584 
L 351.56183 301.395176 
L 350.171446 301.395176 
z
" clip-path="url(#p5161e4705a)" style="fill: #191970; stroke: #ffffff; stroke-width: 0.8; stroke-linejoin: miter"/>
   </g>
   <g id="patch_163">
    <path d="M 351.909426 307.584 
L 353.299809 307.584 
L 353.299809 304.012533 
L 351.909426 304.012533 
z
" clip-path="url(#p5161e4705a)" style="fill: #191970; stroke: #ffffff; stroke-width: 0.8; stroke-linejoin: miter"/>
   </g>
   <g id="patch_164">
    <path d="M 353.647405 307.584 
L 355.037789 307.584 
L 355.037789 306.132357 
L 353.647405 306.132357 
z
" clip-path="url(#p5161e4705a)" style="fill: #191970; stroke: #ffffff; stroke-width: 0.8; stroke-linejoin: miter"/>
   </g>
   <g id="patch_165">
    <path d="M 355.385384 307.584 
L 356.775768 307.584 
L 356.775768 305.88359 
L 355.385384 305.88359 
z
" clip-path="url(#p5161e4705a)" style="fill: #191970; stroke: #ffffff; stroke-width: 0.8; stroke-linejoin: miter"/>
   </g>
   <g id="patch_166">
    <path d="M 357.123364 307.584 
L 358.513747 307.584 
L 358.513747 305.938956 
L 357.123364 305.938956 
z
" clip-path="url(#p5161e4705a)" style="fill: #191970; stroke: #ffffff; stroke-width: 0.8; stroke-linejoin: miter"/>
   </g>
   <g id="patch_167">
    <path d="M 358.861343 307.584 
L 360.251727 307.584 
L 360.251727 305.358754 
L 358.861343 305.358754 
z
" clip-path="url(#p5161e4705a)" style="fill: #191970; stroke: #ffffff; stroke-width: 0.8; stroke-linejoin: miter"/>
   </g>
   <g id="patch_168">
    <path d="M 360.599323 307.584 
L 361.989706 307.584 
L 361.989706 305.307939 
L 360.599323 305.307939 
z
" clip-path="url(#p5161e4705a)" style="fill: #191970; stroke: #ffffff; stroke-width: 0.8; stroke-linejoin: miter"/>
   </g>
   <g id="patch_169">
    <path d="M 362.337302 307.584 
L 363.727685 307.584 
L 363.727685 305.690948 
L 362.337302 305.690948 
z
" clip-path="url(#p5161e4705a)" style="fill: #191970; stroke: #ffffff; stroke-width: 0.8; stroke-linejoin: miter"/>
   </g>
   <g id="patch_170">
    <path d="M 364.075281 307.584 
L 365.465665 307.584 
L 365.465665 306.462276 
L 364.075281 306.462276 
z
" clip-path="url(#p5161e4705a)" style="fill: #191970; stroke: #ffffff; stroke-width: 0.8; stroke-linejoin: miter"/>
   </g>
   <g id="patch_171">
    <path d="M 365.813261 307.584 
L 367.203644 307.584 
L 367.203644 306.475928 
L 365.813261 306.475928 
z
" clip-path="url(#p5161e4705a)" style="fill: #191970; stroke: #ffffff; stroke-width: 0.8; stroke-linejoin: miter"/>
   </g>
   <g id="patch_172">
    <path d="M 367.55124 307.584 
L 368.941624 307.584 
L 368.941624 305.827466 
L 367.55124 305.827466 
z
" clip-path="url(#p5161e4705a)" style="fill: #191970; stroke: #ffffff; stroke-width: 0.8; stroke-linejoin: miter"/>
   </g>
   <g id="patch_173">
    <path d="M 369.289219 307.584 
L 370.679603 307.584 
L 370.679603 305.729628 
L 369.289219 305.729628 
z
" clip-path="url(#p5161e4705a)" style="fill: #191970; stroke: #ffffff; stroke-width: 0.8; stroke-linejoin: miter"/>
   </g>
   <g id="patch_174">
    <path d="M 371.027199 307.584 
L 372.417582 307.584 
L 372.417582 306.284044 
L 371.027199 306.284044 
z
" clip-path="url(#p5161e4705a)" style="fill: #191970; stroke: #ffffff; stroke-width: 0.8; stroke-linejoin: miter"/>
   </g>
   <g id="patch_175">
    <path d="M 372.765178 307.584 
L 374.155562 307.584 
L 374.155562 305.387574 
L 372.765178 305.387574 
z
" clip-path="url(#p5161e4705a)" style="fill: #191970; stroke: #ffffff; stroke-width: 0.8; stroke-linejoin: miter"/>
   </g>
   <g id="patch_176">
    <path d="M 374.503157 307.584 
L 375.893541 307.584 
L 375.893541 300.376599 
L 374.503157 300.376599 
z
" clip-path="url(#p5161e4705a)" style="fill: #191970; stroke: #ffffff; stroke-width: 0.8; stroke-linejoin: miter"/>
   </g>
   <g id="patch_177">
    <path d="M 376.241137 307.584 
L 377.63152 307.584 
L 377.63152 299.205576 
L 376.241137 299.205576 
z
" clip-path="url(#p5161e4705a)" style="fill: #191970; stroke: #ffffff; stroke-width: 0.8; stroke-linejoin: miter"/>
   </g>
   <g id="patch_178">
    <path d="M 377.979116 307.584 
L 379.3695 307.584 
L 379.3695 301.977654 
L 377.979116 301.977654 
z
" clip-path="url(#p5161e4705a)" style="fill: #191970; stroke: #ffffff; stroke-width: 0.8; stroke-linejoin: miter"/>
   </g>
   <g id="patch_179">
    <path d="M 379.717096 307.584 
L 381.107479 307.584 
L 381.107479 300.852137 
L 379.717096 300.852137 
z
" clip-path="url(#p5161e4705a)" style="fill: #191970; stroke: #ffffff; stroke-width: 0.8; stroke-linejoin: miter"/>
   </g>
   <g id="patch_180">
    <path d="M 381.455075 307.584 
L 382.845458 307.584 
L 382.845458 297.776686 
L 381.455075 297.776686 
z
" clip-path="url(#p5161e4705a)" style="fill: #191970; stroke: #ffffff; stroke-width: 0.8; stroke-linejoin: miter"/>
   </g>
   <g id="patch_181">
    <path d="M 383.193054 307.584 
L 384.583438 307.584 
L 384.583438 298.840011 
L 383.193054 298.840011 
z
" clip-path="url(#p5161e4705a)" style="fill: #191970; stroke: #ffffff; stroke-width: 0.8; stroke-linejoin: miter"/>
   </g>
   <g id="patch_182">
    <path d="M 384.931034 307.584 
L 386.321417 307.584 
L 386.321417 295.775178 
L 384.931034 295.775178 
z
" clip-path="url(#p5161e4705a)" style="fill: #191970; stroke: #ffffff; stroke-width: 0.8; stroke-linejoin: miter"/>
   </g>
   <g id="patch_183">
    <path d="M 386.669013 307.584 
L 388.059397 307.584 
L 388.059397 294.7475 
L 386.669013 294.7475 
z
" clip-path="url(#p5161e4705a)" style="fill: #191970; stroke: #ffffff; stroke-width: 0.8; stroke-linejoin: miter"/>
   </g>
   <g id="patch_184">
    <path d="M 388.406992 307.584 
L 389.797376 307.584 
L 389.797376 300.136175 
L 388.406992 300.136175 
z
" clip-path="url(#p5161e4705a)" style="fill: #191970; stroke: #ffffff; stroke-width: 0.8; stroke-linejoin: miter"/>
   </g>
   <g id="patch_185">
    <path d="M 390.144972 307.584 
L 391.535355 307.584 
L 391.535355 304.033769 
L 390.144972 304.033769 
z
" clip-path="url(#p5161e4705a)" style="fill: #191970; stroke: #ffffff; stroke-width: 0.8; stroke-linejoin: miter"/>
   </g>
   <g id="patch_186">
    <path d="M 391.882951 307.584 
L 393.273335 307.584 
L 393.273335 306.251431 
L 391.882951 306.251431 
z
" clip-path="url(#p5161e4705a)" style="fill: #191970; stroke: #ffffff; stroke-width: 0.8; stroke-linejoin: miter"/>
   </g>
   <g id="patch_187">
    <path d="M 393.620931 307.584 
L 395.011314 307.584 
L 395.011314 307.319306 
L 393.620931 307.319306 
z
" clip-path="url(#p5161e4705a)" style="fill: #191970; stroke: #ffffff; stroke-width: 0.8; stroke-linejoin: miter"/>
   </g>
   <g id="patch_188">
    <path d="M 395.35891 307.584 
L 396.749293 307.584 
L 396.749293 307.491471 
L 395.35891 307.491471 
z
" clip-path="url(#p5161e4705a)" style="fill: #191970; stroke: #ffffff; stroke-width: 0.8; stroke-linejoin: miter"/>
   </g>
   <g id="patch_189">
    <path d="M 397.096889 307.584 
L 398.487273 307.584 
L 398.487273 307.56959 
L 397.096889 307.56959 
z
" clip-path="url(#p5161e4705a)" style="fill: #191970; stroke: #ffffff; stroke-width: 0.8; stroke-linejoin: miter"/>
   </g>
   <g id="LineCollection_1">
    <path d="M 74.527919 307.584 
L 74.527919 138.624 
" clip-path="url(#p5161e4705a)" style="fill: none; stroke: #6495ed; stroke-width: 1.2"/>
    <path d="M 76.265898 307.584 
L 76.265898 54.144 
" clip-path="url(#p5161e4705a)" style="fill: none; stroke: #6495ed; stroke-width: 1.2"/>
    <path d="M 78.003878 307.584 
L 78.003878 117.504 
" clip-path="url(#p5161e4705a)" style="fill: none; stroke: #6495ed; stroke-width: 1.2"/>
    <path d="M 79.741857 307.584 
L 79.741857 212.544 
" clip-path="url(#p5161e4705a)" style="fill: none; stroke: #6495ed; stroke-width: 1.2"/>
    <path d="M 81.479836 307.584 
L 81.479836 271.944 
" clip-path="url(#p5161e4705a)" style="fill: none; stroke: #6495ed; stroke-width: 1.2"/>
    <path d="M 83.217816 307.584 
L 83.217816 296.892 
" clip-path="url(#p5161e4705a)" style="fill: none; stroke: #6495ed; stroke-width: 1.2"/>
    <path d="M 84.955795 307.584 
L 84.955795 304.3764 
" clip-path="url(#p5161e4705a)" style="fill: none; stroke: #6495ed; stroke-width: 1.2"/>
    <path d="M 86.693775 307.584 
L 86.693775 306.62172 
" clip-path="url(#p5161e4705a)" style="fill: none; stroke: #6495ed; stroke-width: 1.2"/>
    <path d="M 88.431754 307.584 
L 88.431754 307.295316 
" clip-path="url(#p5161e4705a)" style="fill: none; stroke: #6495ed; stroke-width: 1.2"/>
    <path d="M 90.169733 307.584 
L 90.169733 307.497395 
" clip-path="url(#p5161e4705a)" style="fill: none; stroke: #6495ed; stroke-width: 1.2"/>
    <path d="M 91.907713 307.584 
L 91.907713 307.558018 
" clip-path="url(#p5161e4705a)" style="fill: none; stroke: #6495ed; stroke-width: 1.2"/>
    <path d="M 93.645692 307.584 
L 93.645692 307.576206 
" clip-path="url(#p5161e4705a)" style="fill: none; stroke: #6495ed; stroke-width: 1.2"/>
    <path d="M 95.383671 307.584 
L 95.383671 307.581662 
" clip-path="url(#p5161e4705a)" style="fill: none; stroke: #6495ed; stroke-width: 1.2"/>
    <path d="M 97.121651 307.584 
L 97.121651 307.583298 
" clip-path="url(#p5161e4705a)" style="fill: none; stroke: #6495ed; stroke-width: 1.2"/>
    <path d="M 98.85963 307.584 
L 98.85963 307.58379 
" clip-path="url(#p5161e4705a)" style="fill: none; stroke: #6495ed; stroke-width: 1.2"/>
    <path d="M 100.597609 307.584 
L 100.597609 307.583937 
" clip-path="url(#p5161e4705a)" style="fill: none; stroke: #6495ed; stroke-width: 1.2"/>
    <path d="M 102.335589 307.584 
L 102.335589 307.583981 
" clip-path="url(#p5161e4705a)" style="fill: none; stroke: #6495ed; stroke-width: 1.2"/>
    <path d="M 104.073568 307.584 
L 104.073568 307.583994 
" clip-path="url(#p5161e4705a)" style="fill: none; stroke: #6495ed; stroke-width: 1.2"/>
    <path d="M 105.811548 307.584 
L 105.811548 307.583998 
" clip-path="url(#p5161e4705a)" style="fill: none; stroke: #6495ed; stroke-width: 1.2"/>
    <path d="M 107.549527 307.584 
L 107.549527 307.583999 
" clip-path="url(#p5161e4705a)" style="fill: none; stroke: #6495ed; stroke-width: 1.2"/>
    <path d="M 109.287506 307.584 
L 109.287506 307.584 
" clip-path="url(#p5161e4705a)" style="fill: none; stroke: #6495ed; stroke-width: 1.2"/>
    <path d="M 111.025486 307.584 
L 111.025486 307.584 
" clip-path="url(#p5161e4705a)" style="fill: none; stroke: #6495ed; stroke-width: 1.2"/>
    <path d="M 112.763465 307.584 
L 112.763465 307.584 
" clip-path="url(#p5161e4705a)" style="fill: none; stroke: #6495ed; stroke-width: 1.2"/>
    <path d="M 114.501444 307.584 
L 114.501444 307.584 
" clip-path="url(#p5161e4705a)" style="fill: none; stroke: #6495ed; stroke-width: 1.2"/>
    <path d="M 116.239424 307.584 
L 116.239424 307.584 
" clip-path="url(#p5161e4705a)" style="fill: none; stroke: #6495ed; stroke-width: 1.2"/>
   </g>
   <g id="line2d_17">
    <defs>
     <path id="m6cff995382" d="M 0 2.4 
C 0.636487 2.4 1.246992 2.147121 1.697056 1.697056 
C 2.147121 1.246992 2.4 0.636487 2.4 0 
C 2.4 -0.636487 2.147121 -1.246992 1.697056 -1.697056 
C 1.246992 -2.147121 0.636487 -2.4 0 -2.4 
C -0.636487 -2.4 -1.246992 -2.147121 -1.697056 -1.697056 
C -2.147121 -1.246992 -2.4 -0.636487 -2.4 0 
C -2.4 0.636487 -2.147121 1.246992 -1.697056 1.697056 
C -1.246992 2.147121 -0.636487 2.4 0 2.4 
z
" style="stroke: #6495ed"/>
    </defs>
    <g clip-path="url(#p5161e4705a)">
     <use xlink:href="#m6cff995382" x="74.527919" y="138.624" style="fill: #6495ed; stroke: #6495ed"/>
     <use xlink:href="#m6cff995382" x="76.265898" y="54.144" style="fill: #6495ed; stroke: #6495ed"/>
     <use xlink:href="#m6cff995382" x="78.003878" y="117.504" style="fill: #6495ed; stroke: #6495ed"/>
     <use xlink:href="#m6cff995382" x="79.741857" y="212.544" style="fill: #6495ed; stroke: #6495ed"/>
     <use xlink:href="#m6cff995382" x="81.479836" y="271.944" style="fill: #6495ed; stroke: #6495ed"/>
     <use xlink:href="#m6cff995382" x="83.217816" y="296.892" style="fill: #6495ed; stroke: #6495ed"/>
     <use xlink:href="#m6cff995382" x="84.955795" y="304.3764" style="fill: #6495ed; stroke: #6495ed"/>
     <use xlink:href="#m6cff995382" x="86.693775" y="306.62172" style="fill: #6495ed; stroke: #6495ed"/>
     <use xlink:href="#m6cff995382" x="88.431754" y="307.295316" style="fill: #6495ed; stroke: #6495ed"/>
     <use xlink:href="#m6cff995382" x="90.169733" y="307.497395" style="fill: #6495ed; stroke: #6495ed"/>
     <use xlink:href="#m6cff995382" x="91.907713" y="307.558018" style="fill: #6495ed; stroke: #6495ed"/>
     <use xlink:href="#m6cff995382" x="93.645692" y="307.576206" style="fill: #6495ed; stroke: #6495ed"/>
     <use xlink:href="#m6cff995382" x="95.383671" y="307.581662" style="fill: #6495ed; stroke: #6495ed"/>
     <use xlink:href="#m6cff995382" x="97.121651" y="307.583298" style="fill: #6495ed; stroke: #6495ed"/>
     <use xlink:href="#m6cff995382" x="98.85963" y="307.58379" style="fill: #6495ed; stroke: #6495ed"/>
     <use xlink:href="#m6cff995382" x="100.597609" y="307.583937" style="fill: #6495ed; stroke: #6495ed"/>
     <use xlink:href="#m6cff995382" x="102.335589" y="307.583981" style="fill: #6495ed; stroke: #6495ed"/>
     <use xlink:href="#m6cff995382" x="104.073568" y="307.583994" style="fill: #6495ed; stroke: #6495ed"/>
     <use xlink:href="#m6cff995382" x="105.811548" y="307.583998" style="fill: #6495ed; stroke: #6495ed"/>
     <use xlink:href="#m6cff995382" x="107.549527" y="307.583999" style="fill: #6495ed; stroke: #6495ed"/>
     <use xlink:href="#m6cff995382" x="109.287506" y="307.584" style="fill: #6495ed; stroke: #6495ed"/>
     <use xlink:href="#m6cff995382" x="111.025486" y="307.584" style="fill: #6495ed; stroke: #6495ed"/>
     <use xlink:href="#m6cff995382" x="112.763465" y="307.584" style="fill: #6495ed; stroke: #6495ed"/>
     <use xlink:href="#m6cff995382" x="114.501444" y="307.584" style="fill: #6495ed; stroke: #6495ed"/>
     <use xlink:href="#m6cff995382" x="116.239424" y="307.584" style="fill: #6495ed; stroke: #6495ed"/>
    </g>
   </g>
   <g id="line2d_18">
    <path d="M 74.527919 307.584 
L 116.239424 307.584 
" clip-path="url(#p5161e4705a)" style="fill: none; stroke: #6495ed; stroke-width: 1.2; stroke-linecap: round"/>
   </g>
   <g id="patch_190">
    <path d="M 57.6 307.584 
L 57.6 41.472 
" style="fill: none; stroke: #ffffff; stroke-linejoin: miter; stroke-linecap: square"/>
   </g>
   <g id="patch_191">
    <path d="M 414.72 307.584 
L 414.72 41.472 
" style="fill: none; stroke: #ffffff; stroke-linejoin: miter; stroke-linecap: square"/>
   </g>
   <g id="patch_192">
    <path d="M 57.6 307.584 
L 414.72 307.584 
" style="fill: none; stroke: #ffffff; stroke-linejoin: miter; stroke-linecap: square"/>
   </g>
   <g id="patch_193">
    <path d="M 57.6 41.472 
L 414.72 41.472 
" style="fill: none; stroke: #ffffff; stroke-linejoin: miter; stroke-linecap: square"/>
   </g>
   <g id="legend_1">
    <g id="patch_194">
     <path d="M 344.143855 73.041425 
L 408.56 73.041425 
Q 410.32 73.041425 410.32 71.281425 
L 410.32 47.632 
Q 410.32 45.872 408.56 45.872 
L 344.143855 45.872 
Q 342.383855 45.872 342.383855 47.632 
L 342.383855 71.281425 
Q 342.383855 73.041425 344.143855 73.041425 
z
" style="fill: #eaeaf2; opacity: 0.8; stroke: #cccccc; stroke-width: 0.8; stroke-linejoin: miter"/>
    </g>
    <g id="line2d_19">
     <path d="M 354.703855 55.552 
L 354.703855 51.317 
" style="fill: none; stroke: #6495ed; stroke-width: 1.2"/>
    </g>
    <g id="line2d_20">
     <path d="M 345.903855 55.552 
L 363.503855 55.552 
" style="fill: none; stroke: #6495ed; stroke-width: 1.2; stroke-linecap: round"/>
    </g>
    <g id="line2d_21">
     <g>
      <use xlink:href="#m6cff995382" x="354.703855" y="51.317" style="fill: #6495ed; stroke: #6495ed"/>
     </g>
    </g>
    <g id="text_18">
     <!-- Ideal -->
     <g style="fill: #262626" transform="translate(370.543855 55.552) scale(0.088 -0.088)">
      <defs>
       <path id="CMSS17-49" d="M 1094 4416 
L 557 4416 
L 557 0 
L 1094 0 
L 1094 4416 
z
" transform="scale(0.015625)"/>
       <path id="CMSS17-64" d="M 2611 4416 
L 2138 4416 
L 2138 2495 
C 1939 2662 1613 2816 1254 2816 
C 672 2816 211 2179 211 1375 
C 211 572 666 -64 1235 -64 
C 1677 -64 1971 172 2125 307 
L 2125 -13 
L 2611 -13 
L 2611 4416 
z
M 2125 851 
C 2125 760 2125 663 1926 488 
C 1798 378 1645 326 1498 326 
C 1152 326 698 585 698 1369 
C 698 2185 1210 2425 1562 2425 
C 1798 2425 1990 2308 2125 2114 
L 2125 851 
z
" transform="scale(0.015625)"/>
       <path id="CMSS17-65" d="M 2502 1375 
C 2502 1587 2490 2001 2285 2347 
C 2061 2713 1696 2816 1421 2816 
C 755 2816 192 2184 192 1363 
C 192 579 774 -64 1510 -64 
C 1798 -64 2150 19 2470 249 
C 2470 275 2458 414 2451 421 
C 2451 433 2432 629 2432 655 
C 2125 408 1773 326 1517 326 
C 1107 326 666 667 646 1375 
L 2502 1375 
z
M 698 1728 
C 781 2086 1062 2425 1421 2425 
C 1517 2425 1965 2412 2080 1728 
L 698 1728 
z
" transform="scale(0.015625)"/>
       <path id="CMSS17-61" d="M 2406 1789 
C 2406 2399 1978 2816 1402 2816 
C 1120 2816 813 2764 461 2559 
L 499 2133 
C 659 2250 934 2438 1395 2438 
C 1722 2438 1920 2185 1920 1782 
L 1920 1536 
C 896 1504 256 1209 256 711 
C 256 452 416 -64 947 -64 
C 1043 -64 1562 -52 1933 224 
L 1933 -13 
L 2406 -13 
L 2406 1789 
z
M 1920 824 
C 1920 711 1920 559 1728 446 
C 1562 339 1350 326 1261 326 
C 941 326 723 503 723 723 
C 723 1165 1722 1209 1920 1216 
L 1920 824 
z
" transform="scale(0.015625)"/>
       <path id="CMSS17-6c" d="M 947 4416 
L 474 4416 
L 474 0 
L 947 0 
L 947 4416 
z
" transform="scale(0.015625)"/>
      </defs>
      <use xlink:href="#CMSS17-49" transform="scale(0.996264)"/>
      <use xlink:href="#CMSS17-64" transform="translate(25.783926 0) scale(0.996264)"/>
      <use xlink:href="#CMSS17-65" transform="translate(73.988869 0) scale(0.996264)"/>
      <use xlink:href="#CMSS17-61" transform="translate(115.627691 0) scale(0.996264)"/>
      <use xlink:href="#CMSS17-6c" transform="translate(160.549611 0) scale(0.996264)"/>
     </g>
    </g>
    <g id="patch_195">
     <path d="M 345.903855 67.816713 
L 363.503855 67.816713 
L 363.503855 61.656713 
L 345.903855 61.656713 
z
" style="fill: #191970; stroke: #ffffff; stroke-width: 0.8; stroke-linejoin: miter"/>
    </g>
    <g id="text_19">
     <!-- Empirical -->
     <g style="fill: #262626" transform="translate(370.543855 67.816713) scale(0.088 -0.088)">
      <defs>
       <path id="CMSS17-45" d="M 1958 435 
C 1446 435 1216 435 1101 428 
L 1101 2105 
L 3085 2105 
L 3085 2496 
L 1101 2496 
L 1101 3993 
L 1926 3993 
C 2003 3993 2080 3987 2157 3987 
L 3251 3987 
L 3251 4403 
L 563 4403 
L 563 0 
L 3334 0 
L 3334 441 
L 1958 435 
z
" transform="scale(0.015625)"/>
       <path id="CMSS17-6d" d="M 4288 1878 
C 4288 2309 4179 2816 3462 2816 
C 2982 2816 2694 2515 2566 2328 
C 2451 2668 2182 2816 1798 2816 
C 1363 2816 1088 2566 941 2386 
L 941 2783 
L 474 2783 
L 474 0 
L 960 0 
L 960 1556 
C 960 1936 1101 2425 1555 2425 
C 2138 2425 2138 2013 2138 1826 
L 2138 0 
L 2624 0 
L 2624 1556 
C 2624 1936 2765 2425 3219 2425 
C 3802 2425 3802 2013 3802 1826 
L 3802 0 
L 4288 0 
L 4288 1878 
z
" transform="scale(0.015625)"/>
       <path id="CMSS17-70" d="M 966 275 
C 1178 70 1466 -64 1773 -64 
C 2368 -64 2880 553 2880 1382 
C 2880 2147 2496 2816 1946 2816 
C 1626 2816 1242 2700 954 2470 
L 954 2764 
L 480 2764 
L 480 -1280 
L 966 -1280 
L 966 275 
z
M 966 2088 
C 1018 2166 1235 2412 1587 2412 
C 2035 2412 2394 1946 2394 1382 
C 2394 741 1958 326 1530 326 
C 1402 326 1267 358 1139 468 
C 966 624 966 721 966 812 
L 966 2088 
z
" transform="scale(0.015625)"/>
       <path id="CMSS17-69" d="M 979 4224 
L 442 4224 
L 442 3686 
L 979 3686 
L 979 4224 
z
M 947 2752 
L 474 2752 
L 474 0 
L 947 0 
L 947 2752 
z
" transform="scale(0.015625)"/>
       <path id="CMSS17-72" d="M 954 1369 
C 954 1974 1395 2379 1958 2392 
L 1958 2816 
C 1549 2809 1165 2604 934 2270 
L 934 2783 
L 480 2783 
L 480 0 
L 954 0 
L 954 1369 
z
" transform="scale(0.015625)"/>
       <path id="CMSS17-63" d="M 2464 2540 
C 2464 2585 2170 2713 2093 2739 
C 1882 2816 1613 2816 1542 2816 
C 710 2816 211 2092 211 1363 
C 211 595 768 -64 1517 -64 
C 1946 -64 2253 76 2502 243 
L 2464 665 
C 2189 454 1869 339 1523 339 
C 1024 339 698 774 698 1369 
C 698 1830 909 2412 1549 2412 
C 1901 2412 2099 2342 2394 2143 
L 2464 2540 
z
" transform="scale(0.015625)"/>
      </defs>
      <use xlink:href="#CMSS17-45" transform="scale(0.996264)"/>
      <use xlink:href="#CMSS17-6d" transform="translate(55.892013 0) scale(0.996264)"/>
      <use xlink:href="#CMSS17-70" transform="translate(130.121268 0) scale(0.996264)"/>
      <use xlink:href="#CMSS17-69" transform="translate(178.326211 0) scale(0.996264)"/>
      <use xlink:href="#CMSS17-72" transform="translate(200.506934 0) scale(0.996264)"/>
      <use xlink:href="#CMSS17-69" transform="translate(232.416706 0) scale(0.996264)"/>
      <use xlink:href="#CMSS17-63" transform="translate(254.597429 0) scale(0.996264)"/>
      <use xlink:href="#CMSS17-61" transform="translate(296.236252 0) scale(0.996264)"/>
      <use xlink:href="#CMSS17-6c" transform="translate(341.158172 0) scale(0.996264)"/>
     </g>
    </g>
   </g>
  </g>
 </g>
 <defs>
  <clipPath id="p5161e4705a">
   <rect x="57.6" y="41.472" width="357.12" height="266.112"/>
  </clipPath>
 </defs>
</svg>
